<svg xmlns="http://www.w3.org/2000/svg" xmlns:xlink="http://www.w3.org/1999/xlink" width="1080" zoomAndPan="magnify" viewBox="0 0 810 809.999993" height="1080" preserveAspectRatio="xMidYMid meet" version="1.0"><defs><clipPath id="d29cf0366f"><path d="M 470 329 L 611.25 329 L 611.25 416 L 470 416 Z M 470 329 " clip-rule="nonzero"/></clipPath></defs><path fill="#a20921" d="M 372.832031 324.164062 L 359.953125 248.179688 L 403.09375 255.863281 L 429.433594 294.410156 L 404.25 324.164062 " fill-opacity="1" fill-rule="nonzero"/><path fill="#82ab00" d="M 464.082031 298.089844 L 465.042969 297.371094 C 485.992188 281.6875 511.804688 273.890625 537.945312 275.359375 C 552.53125 276.179688 567.082031 273.308594 580.265625 267.011719 L 594.582031 260.171875 L 582.945312 286.5625 C 574.175781 306.433594 554.75 319.488281 533.03125 320.109375 C 521.503906 320.4375 510.644531 325.460938 502.949219 333.96875 L 439.515625 329.667969 L 464.082031 298.097656 Z M 464.082031 298.089844 " fill-opacity="1" fill-rule="nonzero"/><path fill="#82ab00" d="M 413.773438 241.957031 C 413.773438 235.957031 413.015625 229.984375 411.523438 224.179688 L 410.96875 222.023438 C 407.355469 207.988281 409.183594 193.113281 416.097656 180.378906 C 416.097656 180.378906 422.699219 191.824219 422.699219 191.824219 C 428.570312 202.011719 437.660156 209.960938 448.550781 214.414062 C 458.097656 218.320312 466.289062 224.625 472.4375 232.5625 L 426.140625 294.417969 L 413.78125 241.964844 Z M 413.773438 241.957031 " fill-opacity="1" fill-rule="nonzero"/><path fill="#719301" d="M 431.511719 276.597656 L 501.847656 200.890625 C 506.203125 196.203125 512.113281 193.257812 518.472656 192.605469 L 528.117188 191.617188 C 532.648438 191.152344 535.625 196.226562 533.007812 199.953125 L 454.769531 311.351562 L 414.449219 311.351562 Z M 431.511719 276.597656 " fill-opacity="1" fill-rule="nonzero"/><path fill="#e4183e" d="M 485.007812 574.867188 L 486.367188 574.214844 C 508.820312 563.40625 522.628906 540.21875 521.421875 515.335938 C 521.421875 515.335938 480.125 517.945312 480.125 517.945312 L 465.457031 547.730469 L 485.007812 574.875 Z M 485.007812 574.867188 " fill-opacity="1" fill-rule="nonzero"/><path fill="#be0936" d="M 441.261719 598.949219 L 446.839844 598.949219 C 472.371094 598.949219 491.722656 575.925781 487.3125 550.789062 C 487.3125 550.789062 435.492188 557.484375 435.492188 557.484375 L 441.269531 598.949219 Z M 441.261719 598.949219 " fill-opacity="1" fill-rule="nonzero"/><path fill="#a20921" d="M 382.746094 605.515625 L 388.769531 608.886719 C 409.625 620.574219 436.027344 612.292969 446.464844 590.785156 C 450.164062 583.167969 451.117188 574.5 449.167969 566.261719 L 448.933594 565.289062 L 441.726562 556.03125 L 382.753906 569.664062 L 382.753906 605.507812 Z M 382.746094 605.515625 " fill-opacity="1" fill-rule="nonzero"/><path fill="#a20921" d="M 273.480469 596.738281 C 277.902344 616.804688 297.539062 629.675781 317.714844 625.726562 L 342.359375 620.898438 L 330.441406 583.070312 L 288.402344 576.894531 L 273.472656 596.730469 Z M 273.480469 596.738281 " fill-opacity="1" fill-rule="nonzero"/><path fill="#a20921" d="M 317.269531 596.144531 L 320.644531 602.847656 C 330.980469 623.378906 357.855469 628.769531 375.3125 613.804688 C 381.9375 608.132812 386.652344 600.558594 388.828125 592.117188 L 391.730469 580.835938 L 386.277344 550.460938 L 336.90625 553.660156 L 317.265625 596.144531 Z M 317.269531 596.144531 " fill-opacity="1" fill-rule="nonzero"/><path fill="#a20921" d="M 217.753906 441.425781 L 213.042969 447.46875 C 199.085938 465.371094 205.515625 491.609375 226.167969 501.046875 C 226.167969 501.046875 260.953125 481.0625 260.953125 481.0625 L 258.222656 461.707031 L 217.761719 441.425781 Z M 217.753906 441.425781 " fill-opacity="1" fill-rule="nonzero"/><path fill="#a20921" d="M 239.160156 536.523438 C 220.605469 521.800781 220.949219 493.523438 239.855469 479.257812 L 241.054688 478.347656 L 288.839844 495.320312 L 288.410156 536.515625 L 239.160156 536.515625 Z M 239.160156 536.523438 " fill-opacity="1" fill-rule="nonzero"/><path fill="#a20921" d="M 273.375 527.429688 L 266.167969 525.585938 C 252.972656 522.203125 239.546875 530.203125 236.242188 543.414062 C 229.890625 568.796875 247.445312 593.941406 273.480469 596.738281 C 279.667969 597.402344 285.53125 594.21875 288.410156 588.886719 L 286.429688 536.523438 Z M 273.375 527.429688 " fill-opacity="1" fill-rule="nonzero"/><path fill="#a20921" d="M 277.65625 536.84375 L 277.152344 537.398438 C 270.875 544.273438 268.421875 553.816406 270.621094 562.859375 C 277.527344 591.359375 309.972656 605.140625 335.292969 590.328125 C 343.046875 585.792969 348.066406 577.71875 348.695312 568.757812 L 348.726562 568.308594 L 329.21875 511.589844 L 277.664062 536.84375 Z M 277.65625 536.84375 " fill-opacity="1" fill-rule="nonzero"/><path fill="#a20921" d="M 380.886719 563.105469 C 380.886719 575.25 391.640625 584.578125 403.664062 582.875 L 416.585938 581.046875 C 428.078125 579.417969 437.960938 572.101562 442.890625 561.597656 C 442.890625 561.597656 448.566406 524.257812 448.566406 524.257812 L 380.886719 526.71875 L 380.886719 563.113281 Z M 380.886719 563.105469 " fill-opacity="1" fill-rule="nonzero"/><path fill="#a20921" d="M 326.285156 526.28125 L 326.285156 535.914062 C 326.285156 555.765625 342.964844 571.539062 362.789062 570.445312 C 375.636719 569.734375 386.625 560.960938 390.148438 548.59375 L 391.730469 543.039062 L 388.777344 522.265625 L 323.5625 506.902344 L 326.269531 526.28125 Z M 326.285156 526.28125 " fill-opacity="1" fill-rule="nonzero"/><path fill="#e4183e" d="M 531.605469 502.886719 C 557 495.875 570.007812 467.75 558.898438 443.871094 L 558.109375 442.175781 L 523.304688 474.292969 L 531.605469 502.878906 Z M 531.605469 502.886719 " fill-opacity="1" fill-rule="nonzero"/><path fill="#be0936" d="M 539.464844 384.046875 C 544.035156 383.195312 549.035156 384.828125 552.097656 389.167969 C 565.949219 408.824219 565.582031 435.152344 551.195312 454.417969 L 534.230469 477.140625 L 516.757812 458.84375 L 539.457031 384.046875 Z M 539.464844 384.046875 " fill-opacity="1" fill-rule="nonzero"/><path fill="#a20921" d="M 497.902344 526.53125 L 513.050781 520.21875 C 531.269531 512.632812 540.132812 491.917969 533.046875 473.507812 L 528.1875 460.890625 L 506.1875 456.960938 L 480.125 507.429688 Z M 497.902344 526.53125 " fill-opacity="1" fill-rule="nonzero"/><path fill="#a20921" d="M 431.722656 531.179688 L 433.207031 543.871094 C 435.808594 566.113281 462.839844 575.671875 478.859375 560.011719 L 481.507812 557.417969 C 492.589844 546.574219 498.839844 531.726562 498.839844 516.230469 C 498.839844 516.230469 435.035156 511.597656 435.035156 511.597656 L 431.730469 531.183594 Z M 431.722656 531.179688 " fill-opacity="1" fill-rule="nonzero"/><path fill="#a20921" d="M 228.148438 394.234375 L 225.792969 379.585938 C 221.527344 353.019531 231.402344 326.152344 251.871094 308.675781 C 251.871094 308.675781 292.332031 338.144531 292.332031 338.144531 L 261.667969 397.0625 Z M 228.148438 394.234375 " fill-opacity="1" fill-rule="nonzero"/><path fill="#a20921" d="M 240.027344 395.1875 C 234.832031 391.65625 227.480469 392.660156 223.519531 398.015625 C 210.972656 414.972656 211.804688 438.347656 225.523438 454.375 C 229.191406 458.65625 233.878906 461.945312 239.152344 463.933594 C 239.152344 463.933594 269.300781 443.847656 269.300781 443.847656 L 240.019531 395.1875 Z M 240.027344 395.1875 " fill-opacity="1" fill-rule="nonzero"/><path fill="#a20921" d="M 269.121094 435.753906 L 256.078125 441.71875 C 242.195312 448.070312 235.625 464.097656 241.054688 478.355469 C 246.238281 491.96875 257.878906 502.105469 272.082031 505.367188 C 272.082031 505.367188 295.28125 484.546875 295.28125 484.546875 Z M 269.121094 435.753906 " fill-opacity="1" fill-rule="nonzero"/><path fill="#a20921" d="M 439.589844 520.683594 L 448.574219 524.257812 C 482.863281 537.894531 519.554688 510.800781 516.589844 474.03125 L 515.960938 466.25 L 497.902344 432.613281 L 431.40625 482.238281 Z M 439.589844 520.683594 " fill-opacity="1" fill-rule="nonzero"/><path fill="#a20921" d="M 372.382812 520.082031 L 378.382812 530.699219 C 387.296875 546.472656 408.117188 550.714844 422.496094 539.679688 C 436.761719 528.734375 446.089844 512.863281 448.933594 495.507812 L 433.605469 463.933594 L 380.886719 470.550781 L 372.375 520.074219 Z M 372.382812 520.082031 " fill-opacity="1" fill-rule="nonzero"/><path fill="#a20921" d="M 283.429688 481.308594 L 280.109375 486.027344 C 270.53125 499.632812 268.671875 517.226562 275.203125 532.535156 C 280.371094 544.640625 294.980469 549.484375 306.367188 542.867188 L 309.589844 540.992188 C 319.730469 535.097656 327.792969 526.246094 332.722656 515.652344 L 327.042969 469 L 283.429688 481.300781 Z M 283.429688 481.308594 " fill-opacity="1" fill-rule="nonzero"/><path fill="#a20921" d="M 314.277344 482.5625 L 315.832031 490.027344 C 321.484375 517.21875 351.6875 531.351562 376.207031 518.277344 C 388.617188 511.65625 396.367188 498.738281 396.367188 484.675781 C 396.367188 484.675781 387.667969 443.003906 387.667969 443.003906 L 320.1875 441.261719 L 314.277344 482.554688 Z M 314.277344 482.5625 " fill-opacity="1" fill-rule="nonzero"/><path fill="#a20921" d="M 332.347656 457.742188 L 327.050781 469.007812 C 317.1875 489.984375 288.238281 492.285156 275.1875 473.132812 C 265.664062 459.15625 264.839844 441 273.066406 426.222656 L 279.726562 414.253906 L 310.949219 401.492188 L 342.375 428.535156 L 332.355469 457.746094 Z M 332.347656 457.742188 " fill-opacity="1" fill-rule="nonzero"/><path fill="#be0936" d="M 255.9375 329.53125 L 253.011719 317.449219 C 248.339844 298.128906 258.246094 278.253906 276.492188 270.347656 L 285.71875 266.351562 L 313.796875 263.808594 L 290.496094 329.195312 L 255.9375 329.523438 Z M 255.9375 329.53125 " fill-opacity="1" fill-rule="nonzero"/><path fill="#a20921" d="M 345.390625 321.007812 C 333.117188 350.636719 320.226562 379.59375 307.957031 409.214844 C 289.769531 396.914062 262.753906 388.417969 255.292969 367.773438 C 247.4375 346.054688 254.324219 321.714844 272.464844 307.320312 L 290.429688 293.066406 C 304.566406 293.066406 316.828125 288.074219 330.90625 289.410156 L 345.390625 321 Z M 345.390625 321.007812 " fill-opacity="1" fill-rule="nonzero"/><path fill="#e4183e" d="M 279.800781 356.019531 C 283.5 352.785156 287.804688 349.984375 290.160156 345.679688 C 292.25 341.855469 292.527344 337.34375 292.761719 332.996094 L 293.78125 313.929688 C 293.96875 310.4375 292.964844 306.914062 290.660156 304.277344 C 288.703125 302.027344 286.964844 299.605469 285.367188 297.085938 L 272.457031 307.328125 C 254.316406 321.714844 247.429688 346.0625 255.285156 367.78125 C 257.234375 373.183594 260.546875 377.734375 264.671875 381.761719 C 266.929688 371.894531 272.167969 362.691406 279.792969 356.027344 Z M 279.800781 356.019531 " fill-opacity="1" fill-rule="nonzero"/><path fill="#a20921" d="M 383.300781 435.753906 L 373.3125 393.277344 L 431.722656 390.21875 L 456.285156 406.777344 L 445.558594 435.753906 " fill-opacity="1" fill-rule="nonzero"/><path fill="#a20921" d="M 370.605469 261.925781 L 381.261719 257.550781 C 385.933594 255.628906 386.300781 249.167969 381.882812 246.722656 C 352.527344 230.515625 316.363281 233.164062 289.6875 253.476562 C 282.5625 258.90625 283.984375 270 292.242188 273.457031 C 292.242188 273.457031 370.597656 261.925781 370.597656 261.925781 Z M 370.605469 261.925781 " fill-opacity="1" fill-rule="nonzero"/><path fill="#a20921" d="M 499.394531 363.507812 C 506.257812 356.535156 517.582031 356.8125 524.089844 364.113281 L 530.644531 371.460938 C 553.625 397.226562 552.546875 436.417969 528.1875 460.890625 C 519.351562 469.765625 504.402344 467.335938 498.839844 456.113281 C 498.839844 456.113281 467.355469 423.765625 467.355469 423.765625 L 499.386719 363.5 Z M 499.394531 363.507812 " fill-opacity="1" fill-rule="nonzero"/><path fill="#be0936" d="M 530.644531 371.460938 L 524.089844 364.113281 C 519.367188 358.8125 512.105469 357.269531 505.851562 359.457031 C 507.132812 362.914062 508.125 366.511719 508.550781 370.3125 L 509.152344 375.6875 C 510.417969 387.113281 507.867188 398.847656 501.964844 408.71875 C 499.761719 412.40625 497.097656 415.730469 494.128906 418.710938 C 499.257812 422.46875 503.179688 427.84375 504.90625 434.1875 C 507.5625 443.925781 507.382812 453.835938 504.953125 463.0625 C 511.894531 467.777344 521.691406 467.410156 528.195312 460.882812 C 552.554688 436.417969 553.625 397.21875 530.652344 371.453125 Z M 530.644531 371.460938 " fill-opacity="1" fill-rule="nonzero"/><path fill="#e4183e" d="M 530.644531 371.460938 L 524.089844 364.113281 C 520.25 359.804688 514.753906 358.109375 509.464844 358.753906 C 520.003906 373.6875 523.542969 393.457031 518.390625 411.019531 C 516.957031 415.902344 514.910156 420.601562 513.75 425.550781 C 512.585938 430.503906 512.375 435.894531 514.535156 440.496094 C 517.777344 447.402344 526.019531 451.105469 533.617188 450.371094 C 534.824219 450.25 535.964844 449.890625 537.125 449.597656 C 552.3125 425.511719 550.355469 393.5625 530.644531 371.460938 Z M 530.644531 371.460938 " fill-opacity="1" fill-rule="nonzero"/><path fill="#a20921" d="M 427.230469 470.550781 L 427.574219 472.359375 C 431.054688 490.386719 449.804688 501.054688 467.089844 494.855469 C 491.039062 486.257812 504.351562 460.703125 497.667969 436.164062 C 495.382812 427.761719 488.152344 421.636719 479.488281 420.75 C 479.488281 420.75 450.15625 409.769531 450.15625 409.769531 L 427.230469 433.878906 L 427.230469 470.558594 Z M 427.230469 470.550781 " fill-opacity="1" fill-rule="nonzero"/><path fill="#a20921" d="M 373.6875 284.671875 C 381.523438 279.820312 381.425781 268.398438 373.519531 263.667969 L 365.128906 258.652344 C 339.195312 243.148438 305.609375 251.371094 289.785156 277.109375 C 284.375 285.902344 289.761719 297.355469 299.984375 298.8125 L 316.917969 301.21875 L 373.679688 284.671875 Z M 373.6875 284.671875 " fill-opacity="1" fill-rule="nonzero"/><path fill="#a20921" d="M 451.640625 345.5 L 452.03125 345.074219 C 457.394531 339.179688 465.589844 336.773438 473.285156 338.835938 C 488.324219 342.855469 499.363281 355.679688 501.089844 371.144531 L 501.6875 376.519531 C 502.792969 386.394531 500.625 396.351562 495.523438 404.875 C 487.320312 418.585938 472.507812 426.980469 456.523438 426.980469 L 452.75 426.980469 C 445.214844 426.980469 438.394531 422.519531 435.375 415.617188 C 432.613281 409.304688 432.007812 402.265625 433.632812 395.578125 C 433.632812 395.578125 451.640625 345.5 451.640625 345.5 Z M 451.640625 345.5 " fill-opacity="1" fill-rule="nonzero"/><path fill="#be0936" d="M 501.6875 376.519531 L 501.089844 371.144531 C 499.363281 355.679688 488.324219 342.855469 473.285156 338.835938 C 468.082031 337.441406 462.703125 338.242188 458.070312 340.636719 C 458.398438 341.828125 458.8125 342.972656 459.027344 344.203125 C 463.214844 368.171875 452.722656 391.957031 432.855469 405.359375 C 433.117188 408.878906 433.941406 412.347656 435.375 415.625 C 438.390625 422.527344 445.214844 426.988281 452.75 426.988281 L 456.523438 426.988281 C 472.515625 426.988281 487.320312 418.59375 495.523438 404.882812 C 500.625 396.359375 502.792969 386.402344 501.6875 376.527344 Z M 501.6875 376.519531 " fill-opacity="1" fill-rule="nonzero"/><path fill="#e4183e" d="M 495.523438 404.875 C 500.625 396.351562 502.792969 386.394531 501.6875 376.519531 L 501.089844 371.144531 C 499.363281 355.679688 488.324219 342.855469 473.285156 338.835938 C 469.355469 337.785156 465.328125 337.988281 461.59375 339.179688 C 464.789062 344.5625 467.75 350.089844 469.632812 356.039062 C 472.078125 363.785156 472.535156 372.457031 469.191406 379.863281 C 467.097656 384.496094 463.664062 388.367188 460.828125 392.578125 C 457.992188 396.792969 455.667969 401.742188 456.285156 406.785156 C 457.140625 413.789062 463.8125 419.15625 470.828125 419.964844 C 475.835938 420.542969 480.824219 419.109375 485.269531 416.644531 C 489.277344 413.367188 492.792969 409.453125 495.53125 404.882812 Z M 495.523438 404.875 " fill-opacity="1" fill-rule="nonzero"/><path fill="#a20921" d="M 388.972656 301.882812 C 388.410156 293.332031 382.117188 286.253906 373.695312 284.671875 L 367.542969 283.515625 C 334.144531 277.265625 303.382812 303.144531 303.839844 337.105469 L 303.980469 347.375 L 351.292969 375.816406 L 388.980469 301.875 " fill-opacity="1" fill-rule="nonzero"/><path fill="#e4183e" d="M 318.957031 337.703125 C 323.75 311.636719 346.4375 292.722656 372.90625 292.722656 C 375.222656 292.722656 377.554688 292.875 379.910156 293.164062 L 386.59375 294.019531 C 383.9375 289.261719 379.320312 285.722656 373.6875 284.671875 L 367.535156 283.515625 C 334.140625 277.265625 303.375 303.144531 303.832031 337.105469 L 303.972656 347.375 L 319.394531 356.648438 C 318.027344 350.476562 317.796875 344.046875 318.957031 337.703125 Z M 318.957031 337.703125 " fill-opacity="1" fill-rule="nonzero"/><path fill="#a20921" d="M 317.675781 423.25 L 299.277344 422.886719 C 283.199219 422.574219 270.765625 408.703125 272.195312 392.691406 C 273.667969 376.320312 282.253906 361.414062 295.679688 351.925781 C 304.402344 345.753906 315.15625 343.183594 325.707031 344.707031 L 353.097656 365.589844 L 359.953125 409.417969 L 317.675781 423.242188 Z M 317.675781 423.25 " fill-opacity="1" fill-rule="nonzero"/><path fill="#a20921" d="M 341.347656 378.082031 C 321.628906 392.363281 312.953125 417.753906 320.195312 441.269531 C 326.992188 463.332031 354.726562 470.394531 371.257812 454.277344 L 375.296875 450.332031 L 393.425781 417.332031 C 393.671875 412.039062 392.886719 406.664062 391.003906 401.507812 L 396.375 377.0625 L 369.15625 365.105469 Z M 341.347656 378.082031 " fill-opacity="1" fill-rule="nonzero"/><path fill="#a20921" d="M 409.347656 321.464844 L 411.1875 320.886719 C 429.34375 315.191406 448.363281 326.765625 451.640625 345.5 C 455.617188 368.214844 444.644531 390.929688 424.386719 401.957031 C 405.859375 412.039062 382.714844 403.042969 375.867188 383.109375 L 374.453125 378.980469 L 409.355469 321.472656 Z M 409.347656 321.464844 " fill-opacity="1" fill-rule="nonzero"/><path fill="#e4183e" d="M 451.640625 345.5 C 448.695312 328.664062 433.027344 317.726562 416.707031 319.800781 C 416.828125 322.832031 416.554688 325.882812 415.605469 328.84375 C 410.167969 345.636719 401.601562 360.957031 390.140625 374.386719 L 387.214844 377.8125 C 384.328125 381.191406 380.871094 383.941406 377.078125 386.085938 C 385.117188 403.914062 406.8125 411.53125 424.386719 401.964844 C 444.652344 390.9375 455.617188 368.222656 451.640625 345.507812 Z M 451.640625 345.5 " fill-opacity="1" fill-rule="nonzero"/><path fill="#fb5a72" d="M 417.171875 363.035156 C 414.957031 367.675781 413.503906 373.074219 415.152344 377.9375 C 416.0625 380.621094 417.898438 382.976562 420.277344 384.511719 C 426.304688 388.402344 434.820312 386.328125 439.941406 381.304688 C 445.0625 376.28125 447.359375 369.03125 448.410156 361.933594 C 449.457031 354.863281 449.414062 347.410156 446.617188 340.835938 C 444.375 335.558594 440.070312 330.84375 434.601562 328.859375 C 430.894531 327.515625 422.773438 326.667969 421.851562 331.902344 C 421.183594 335.679688 425.105469 340.222656 424.957031 344.34375 C 424.707031 351.152344 419.992188 357.105469 417.171875 363.027344 Z M 417.171875 363.035156 " fill-opacity="1" fill-rule="nonzero"/><path fill="#e4183e" d="M 381.515625 372.929688 L 384.433594 369.511719 C 395.1875 356.902344 403.355469 342.292969 408.464844 326.527344 C 412.042969 315.46875 404.691406 303.886719 393.15625 302.417969 L 378.964844 300.609375 C 353.992188 297.425781 330.882812 314.304688 326.339844 339.058594 C 324.019531 351.691406 327.847656 364.675781 336.660156 374.03125 C 343.199219 380.972656 352.640625 384.414062 362.113281 383.296875 C 369.660156 382.414062 376.589844 378.710938 381.515625 372.929688 Z M 381.515625 372.929688 " fill-opacity="1" fill-rule="nonzero"/><path fill="#fb5a72" d="M 362.339844 303.929688 C 356.082031 305.910156 350.472656 309.5625 347.4375 314.15625 C 344.285156 318.917969 343.941406 325.875 347.554688 330.265625 C 352.257812 335.980469 360.847656 336.804688 367.730469 336.4375 C 375.5 336.023438 383.820312 334.210938 388.714844 327.613281 C 391.792969 323.46875 392.929688 317.628906 390.882812 312.84375 C 386.285156 302.117188 373.3125 300.453125 362.339844 303.929688 Z M 362.339844 303.929688 " fill-opacity="1" fill-rule="nonzero"/><path fill="#a20921" d="M 277.507812 373.449219 L 265.332031 368.378906 C 257.789062 365.238281 249.105469 368.566406 245.59375 375.945312 C 236.632812 394.769531 237.769531 416.847656 248.632812 434.644531 L 253.695312 442.941406 L 292.769531 441.425781 Z M 277.507812 373.449219 " fill-opacity="1" fill-rule="nonzero"/><path fill="#82ab00" d="M 397.144531 291.15625 C 391.882812 270.601562 377.480469 253.589844 358.070312 244.992188 C 339.019531 236.558594 328.035156 216.371094 331.289062 195.800781 L 332.9375 185.402344 L 344.570312 198.234375 C 358.476562 213.574219 376.09375 225.066406 395.734375 231.609375 C 419.742188 239.609375 434.660156 263.546875 431.269531 288.609375 L 429.15625 304.214844 Z M 397.144531 291.15625 " fill-opacity="1" fill-rule="nonzero"/><g clip-path="url(#d29cf0366f)"><path fill="#82ab00" d="M 479.945312 329.652344 L 491.457031 331.277344 C 512.097656 334.1875 530.160156 346.648438 540.203125 364.902344 C 546.253906 375.90625 555.335938 384.949219 566.367188 390.96875 L 611.40625 415.527344 L 571.828125 413.238281 C 527.734375 410.691406 488.652344 384.011719 470.226562 343.886719 C 470.226562 343.886719 479.953125 329.660156 479.953125 329.660156 Z M 479.945312 329.652344 " fill-opacity="1" fill-rule="nonzero"/></g><path fill="#be0936" d="M 387.148438 406.554688 C 384.621094 402.8125 380.96875 400 377.375 397.257812 C 375.972656 396.183594 374.644531 394.730469 373.3125 393.285156 C 371.089844 390.871094 367.875 389.769531 364.597656 389.804688 C 354.667969 389.917969 344.789062 387.316406 336.058594 382.59375 C 320.195312 397.324219 313.65625 420.023438 320.195312 441.277344 C 326.992188 463.339844 354.726562 470.402344 371.25 454.285156 L 375.292969 450.339844 L 390.929688 421.875 C 391.160156 416.457031 390.15625 411.019531 387.140625 406.5625 Z M 387.148438 406.554688 " fill-opacity="1" fill-rule="nonzero"/><path fill="#e4183e" d="M 320.472656 422.3125 C 321.824219 429.972656 325.417969 437.371094 331.273438 442.492188 C 341.257812 451.234375 356.308594 452.050781 368.929688 447.949219 C 372.410156 446.816406 375.734375 445.324219 378.964844 443.648438 L 390.9375 421.859375 C 391.167969 416.441406 390.164062 411.007812 387.148438 406.546875 C 384.621094 402.804688 380.96875 399.992188 377.375 397.25 C 375.972656 396.175781 374.644531 394.722656 373.3125 393.277344 C 371.089844 390.863281 367.875 389.761719 364.597656 389.796875 C 354.667969 389.910156 344.789062 387.308594 336.058594 382.585938 C 328.492188 389.609375 323.128906 398.480469 320.210938 408.113281 C 319.6875 412.851562 319.65625 417.625 320.480469 422.3125 Z M 320.472656 422.3125 " fill-opacity="1" fill-rule="nonzero"/><path fill="#be0936" d="M 434.960938 414.605469 C 427.371094 408.308594 416.113281 405.894531 405.53125 409.828125 C 401.683594 411.261719 398.160156 413.308594 395.105469 415.863281 C 379.703125 428.8125 372.3125 447.828125 375.367188 466.699219 C 377.855469 482.113281 397.222656 489.855469 411.402344 481.109375 L 420.34375 475.597656 C 436.265625 465.785156 445.25 449.015625 443.9375 431.570312 C 443.722656 428.707031 443.007812 426.023438 441.882812 423.546875 L 434.960938 414.597656 Z M 434.960938 414.605469 " fill-opacity="1" fill-rule="nonzero"/><path fill="#fb5a72" d="M 351.523438 396.042969 C 348.726562 394.6875 345.980469 393.089844 343.257812 391.761719 C 340.5 390.414062 337.574219 389.59375 335.277344 390.800781 C 330.914062 393.105469 330.71875 402.910156 334.84375 410.976562 C 341.265625 423.527344 356.375 430.96875 365.660156 428.984375 C 375.816406 426.816406 378.433594 415.820312 375.832031 407.117188 C 373.605469 399.648438 367.558594 399.980469 361.453125 399.28125 C 358.214844 398.90625 354.832031 397.648438 351.523438 396.042969 Z M 351.523438 396.042969 " fill-opacity="1" fill-rule="nonzero"/><path fill="#be0936" d="M 357.507812 275.089844 C 361.304688 275.089844 365.144531 275.449219 368.917969 276.15625 L 375.058594 277.304688 C 376.320312 277.535156 377.488281 278 378.679688 278.40625 C 380.570312 273.171875 378.898438 266.882812 373.519531 263.667969 L 365.128906 258.652344 C 339.195312 243.148438 305.609375 251.371094 289.785156 277.109375 C 284.375 285.902344 289.761719 297.355469 299.984375 298.8125 L 308.359375 300.003906 C 310.070312 297.703125 311.894531 295.460938 313.949219 293.375 C 325.589844 281.582031 341.054688 275.082031 357.5 275.082031 Z M 357.507812 275.089844 " fill-opacity="1" fill-rule="nonzero"/><path fill="#e4183e" d="M 298.371094 284.933594 C 302.324219 287.625 307.769531 287.027344 312.042969 284.890625 C 316.320312 282.753906 319.761719 279.296875 323.40625 276.199219 C 327.050781 273.105469 331.199219 270.242188 335.945312 269.671875 C 339.953125 269.191406 343.941406 270.40625 347.929688 271.027344 C 351.921875 271.648438 356.398438 271.554688 359.472656 268.9375 C 362.902344 266.011719 363.195312 260.765625 361.3125 256.628906 C 338.316406 245.203125 310.582031 251.265625 294.390625 270.804688 C 293 275.945312 294.015625 281.972656 298.371094 284.933594 Z M 298.371094 284.933594 " fill-opacity="1" fill-rule="nonzero"/><path fill="#e4183e" d="M 387.667969 443.007812 C 384.582031 450.207031 384.214844 459.050781 388.695312 465.484375 C 392.195312 470.523438 398.234375 473.414062 404.324219 474.113281 C 410.421875 474.808594 416.59375 473.511719 422.390625 471.511719 C 424.695312 470.71875 426.921875 469.707031 429.132812 468.6875 C 439.421875 458.828125 444.972656 445.445312 443.929688 431.570312 C 443.714844 428.707031 443 426.023438 441.875 423.546875 L 434.953125 414.597656 C 429.480469 410.054688 422.082031 407.582031 414.425781 408 C 411.035156 413.996094 406.273438 419.148438 401.527344 424.183594 C 396.15625 429.890625 390.75 435.796875 387.667969 443.003906 Z M 387.667969 443.007812 " fill-opacity="1" fill-rule="nonzero"/><path fill="#fb5a72" d="M 411.554688 455.320312 C 413.796875 460.355469 420.71875 461.976562 425.765625 459.765625 C 430.8125 457.554688 434.121094 452.550781 436.046875 447.386719 C 439.671875 437.6875 438.808594 425.519531 431.160156 418.53125 C 428.136719 415.765625 422.527344 413.816406 419.585938 417.738281 C 416.886719 421.328125 419.152344 424.457031 420.15625 427.972656 C 422.992188 437.851562 406.738281 444.515625 411.554688 455.328125 Z M 411.554688 455.320312 " fill-opacity="1" fill-rule="nonzero"/><path fill="#e4183e" d="M 451.421875 434.378906 C 451.589844 451.347656 443.480469 467.5 429.441406 478.332031 C 435.464844 492.621094 451.828125 500.328125 467.097656 494.847656 C 491.046875 486.25 504.359375 460.703125 497.675781 436.15625 C 496.242188 430.886719 492.859375 426.515625 488.40625 423.765625 C 479.339844 430.585938 468.15625 434.476562 456.539062 434.476562 C 456.539062 434.476562 451.882812 434.402344 451.429688 434.378906 Z M 451.421875 434.378906 " fill-opacity="1" fill-rule="nonzero"/><path fill="#fb5a72" d="M 469.402344 467.945312 C 468.636719 470.003906 467.691406 472.035156 467.421875 474.21875 C 467.152344 476.398438 467.691406 478.835938 469.410156 480.207031 C 471.9375 482.226562 475.6875 481.136719 478.515625 479.585938 C 485.742188 475.613281 491.503906 469.03125 494.480469 461.339844 C 496.402344 456.375 497.171875 450.851562 495.90625 445.6875 C 494.640625 440.519531 491.152344 435.773438 486.261719 433.675781 C 478.085938 430.175781 468.109375 435.585938 468.859375 445.035156 C 469.101562 448.023438 470.984375 450.304688 471.621094 453.160156 C 472.671875 457.859375 471.035156 463.542969 469.402344 467.9375 Z M 469.402344 467.945312 " fill-opacity="1" fill-rule="nonzero"/><path fill="#e4183e" d="M 315.066406 444.328125 C 312.929688 439.921875 311.128906 434.164062 309.6875 429.476562 C 297.9375 430.886719 285.765625 427.476562 276.253906 420.46875 L 273.058594 426.21875 C 264.839844 440.992188 265.65625 459.148438 275.179688 473.125 C 288.238281 492.285156 317.179688 489.984375 327.042969 469 L 329.992188 462.742188 C 328.289062 461.660156 326.660156 460.476562 325.207031 459.089844 C 320.863281 454.945312 317.683594 449.726562 315.058594 444.320312 Z M 315.066406 444.328125 " fill-opacity="1" fill-rule="nonzero"/><path fill="#fb5a72" d="M 277.207031 432.894531 C 271.910156 437.296875 269.640625 444.652344 270.320312 451.503906 C 271.003906 458.355469 274.328125 464.71875 278.570312 470.132812 C 281.195312 473.476562 284.265625 476.570312 288.050781 478.5 C 291.839844 480.425781 296.445312 481.046875 300.367188 479.429688 C 304.289062 477.808594 307.257812 473.671875 306.808594 469.449219 C 305.953125 461.457031 294.652344 457.539062 294.277344 449.5 C 294.140625 446.628906 295.507812 443.9375 296.316406 441.1875 C 300.066406 428.480469 285.035156 426.398438 277.199219 432.894531 Z M 277.207031 432.894531 " fill-opacity="1" fill-rule="nonzero"/><path fill="#be0936" d="M 370.875 470.679688 C 369.230469 467.757812 365.886719 466.332031 362.660156 467.261719 C 355.617188 469.292969 347.75 469.59375 340.515625 468.371094 C 337.746094 467.90625 334.933594 469.171875 333.492188 471.578125 C 329.269531 478.625 322.8125 484.234375 315.34375 487.644531 L 315.839844 490.027344 C 321.492188 517.21875 351.703125 531.351562 376.214844 518.277344 C 387.066406 512.488281 394.347656 501.886719 396.015625 489.917969 C 385.453125 487.238281 376.230469 480.207031 370.882812 470.6875 Z M 370.875 470.679688 " fill-opacity="1" fill-rule="nonzero"/><path fill="#e4183e" d="M 370.875 470.679688 C 369.230469 467.757812 365.886719 466.332031 362.660156 467.261719 C 355.617188 469.292969 347.75 469.59375 340.515625 468.371094 C 337.746094 467.90625 334.933594 469.171875 333.492188 471.578125 C 330.238281 477.015625 325.640625 481.558594 320.285156 484.9375 C 320.894531 487.792969 322.035156 490.597656 323.300781 492.976562 C 333.277344 511.746094 359.25 516.933594 378.390625 511.605469 C 382.4375 510.480469 386.203125 508.53125 389.734375 506.132812 C 393.015625 501.324219 395.203125 495.785156 396.015625 489.917969 C 385.453125 487.238281 376.230469 480.207031 370.882812 470.6875 Z M 370.875 470.679688 " fill-opacity="1" fill-rule="nonzero"/><path fill="#fb5a72" d="M 363.164062 497.054688 C 366.589844 498.46875 370.207031 499.894531 373.894531 499.480469 C 376.0625 499.242188 378.132812 498.371094 380.308594 498.171875 C 382.484375 497.96875 384.996094 498.671875 385.933594 500.644531 C 386.644531 502.152344 386.21875 504.003906 385.222656 505.34375 C 384.222656 506.6875 382.761719 507.585938 381.277344 508.335938 C 371.984375 513.019531 360.15625 512.59375 351.140625 507.421875 C 347.609375 505.390625 343.222656 501.230469 346.761719 497.152344 C 350.96875 492.300781 358.3125 495.058594 363.164062 497.058594 Z M 363.164062 497.054688 " fill-opacity="1" fill-rule="nonzero"/><path fill="#e4183e" d="M 308.796875 489.992188 C 299.308594 491.332031 289.492188 489.25 281.152344 484.542969 L 280.101562 486.027344 C 270.523438 499.632812 268.664062 517.226562 275.195312 532.535156 C 280.363281 544.640625 294.972656 549.484375 306.359375 542.863281 L 309.582031 540.992188 C 318.449219 535.839844 325.582031 528.335938 330.570312 519.476562 C 320.757812 511.972656 312.898438 501.410156 308.789062 489.984375 Z M 308.796875 489.992188 " fill-opacity="1" fill-rule="nonzero"/><path fill="#fb5a72" d="M 274.703125 521.542969 C 276.007812 525.742188 278.367188 529.746094 281.984375 532.257812 C 285.597656 534.769531 290.570312 535.546875 294.480469 533.515625 C 298.386719 531.484375 300.628906 526.378906 298.820312 522.363281 C 297.195312 518.742188 293 516.835938 291.203125 513.289062 C 289.8125 510.554688 290.070312 507.308594 290.277344 504.242188 C 290.488281 501.175781 290.542969 497.878906 288.839844 495.3125 C 284.210938 488.347656 278.265625 495.792969 276.222656 500.210938 C 273.164062 506.8125 272.535156 514.566406 274.703125 521.53125 Z M 274.703125 521.542969 " fill-opacity="1" fill-rule="nonzero"/><path fill="#be0936" d="M 423.214844 481.976562 C 416.804688 486.917969 409.042969 490.082031 401.007812 491.03125 C 398.953125 505.597656 387.953125 518.359375 374.023438 522.984375 L 378.382812 530.699219 C 387.296875 546.472656 408.117188 550.714844 422.496094 539.679688 C 435.832031 529.453125 444.777344 514.902344 448.214844 498.875 C 438.050781 496.558594 428.5625 490.574219 423.207031 481.96875 Z M 423.214844 481.976562 " fill-opacity="1" fill-rule="nonzero"/><path fill="#e4183e" d="M 423.214844 481.976562 C 416.804688 486.917969 409.042969 490.082031 401.007812 491.03125 C 399.480469 501.902344 392.953125 511.753906 383.960938 517.984375 C 385.527344 525.894531 396.089844 529.828125 403.054688 531.15625 C 414.964844 533.425781 428.105469 529.875 437.917969 522.984375 C 438 522.925781 438.066406 522.847656 438.148438 522.796875 C 442.941406 515.523438 446.390625 507.429688 448.222656 498.882812 C 438.058594 496.566406 428.570312 490.582031 423.214844 481.976562 Z M 423.214844 481.976562 " fill-opacity="1" fill-rule="nonzero"/><path fill="#fb5a72" d="M 430.347656 497.292969 C 433.558594 494.722656 438.703125 495.613281 441.441406 498.679688 C 444.179688 501.746094 444.667969 506.386719 443.382812 510.285156 C 442.101562 514.183594 439.289062 517.429688 436.101562 520.023438 C 432.5 522.945312 428.339844 525.179688 423.90625 526.566406 C 420.148438 527.746094 415.0625 528.179688 412.753906 524.214844 C 411.636719 522.292969 411.898438 521.15625 413.578125 519.828125 C 418.132812 516.214844 423.351562 516.417969 425.457031 509.984375 C 426.847656 505.75 426.523438 500.351562 430.339844 497.300781 Z M 430.347656 497.292969 " fill-opacity="1" fill-rule="nonzero"/><path fill="#be0936" d="M 482.742188 492.398438 C 473.96875 498.640625 462.679688 503.027344 451.910156 502.617188 C 450.605469 509.675781 447.660156 516.394531 443.488281 522.234375 L 448.566406 524.25 C 482.855469 537.886719 519.546875 510.792969 516.582031 474.023438 L 516.253906 469.929688 C 510.945312 469.789062 505.597656 468.84375 501.269531 466.640625 C 498.132812 476.9375 491.511719 486.144531 482.734375 492.390625 Z M 482.742188 492.398438 " fill-opacity="1" fill-rule="nonzero"/><path fill="#e4183e" d="M 510.710938 477.425781 C 507.195312 478.820312 504.410156 481.609375 502.070312 484.578125 C 499.722656 487.546875 497.699219 490.777344 495.097656 493.523438 C 487.957031 501.0625 477.441406 504.128906 468.230469 508.929688 C 464.308594 510.972656 460.273438 513.75 459.105469 518.015625 C 458.1875 521.351562 459.351562 524.796875 461.570312 527.519531 C 490.617188 530.796875 517.476562 507.527344 516.628906 476.746094 C 514.65625 476.453125 512.570312 476.683594 510.710938 477.417969 Z M 510.710938 477.425781 " fill-opacity="1" fill-rule="nonzero"/><path fill="#e4183e" d="M 264.996094 495.480469 C 267.75 493.6875 267.765625 489.714844 267.253906 486.476562 C 265.796875 477.230469 262.617188 468.339844 260.765625 459.164062 C 259.492188 452.851562 259.003906 446.234375 260 439.921875 L 256.078125 441.710938 C 242.195312 448.0625 235.625 464.089844 241.054688 478.347656 C 242.015625 480.867188 243.269531 483.230469 244.640625 485.484375 C 248.160156 489.265625 252.269531 492.496094 256.894531 494.789062 C 259.4375 496.046875 262.609375 497.015625 264.996094 495.472656 Z M 264.996094 495.480469 " fill-opacity="1" fill-rule="nonzero"/><path fill="#e4183e" d="M 310.933594 401.484375 C 313.320312 394.304688 317.292969 387.707031 322.410156 382 C 325.796875 378.222656 326.535156 372.902344 324.320312 368.335938 C 320.699219 360.867188 318.671875 352.636719 318.570312 344.351562 C 310.417969 344.585938 302.4375 347.140625 295.679688 351.917969 C 286.371094 358.5 279.464844 367.710938 275.5625 378.179688 C 275.722656 382.21875 276.457031 386.230469 277.957031 389.992188 C 281.023438 397.683594 286.875 404.148438 294.042969 408.261719 C 300.433594 411.9375 308.617188 408.472656 310.933594 401.46875 Z M 310.933594 401.484375 " fill-opacity="1" fill-rule="nonzero"/><path fill="#fb5a72" d="M 311.160156 358.828125 C 311.292969 362.433594 312.6875 365.859375 313.925781 369.25 C 315.164062 372.636719 316.273438 376.222656 315.808594 379.804688 C 314.96875 386.34375 308.480469 391.410156 301.882812 391.34375 C 295.28125 391.273438 289.183594 386.597656 286.6875 380.503906 C 284.1875 374.40625 285.058594 367.210938 288.246094 361.4375 C 291.433594 355.664062 296.742188 351.25 302.667969 348.347656 C 305.21875 347.105469 311.617188 344.796875 313.378906 348.519531 C 314.578125 351.0625 311.054688 355.875 311.167969 358.820312 Z M 311.160156 358.828125 " fill-opacity="1" fill-rule="nonzero"/><path fill="#e4183e" d="M 276.972656 408.980469 C 270.890625 399.695312 268.835938 382.007812 269.128906 369.960938 L 265.332031 368.378906 C 257.789062 365.238281 249.105469 368.566406 245.59375 375.945312 C 236.632812 394.769531 237.769531 416.847656 248.632812 434.644531 L 250.574219 437.820312 C 254.691406 434.964844 259.394531 432.949219 264.351562 432.25 C 266.9375 423.210938 270.292969 415.59375 276.972656 408.972656 Z M 276.972656 408.980469 " fill-opacity="1" fill-rule="nonzero"/><path fill="#e4183e" d="M 238.339844 448.9375 C 241.695312 439.042969 238.117188 428.347656 236.179688 418.082031 C 234.644531 409.949219 234.171875 401.589844 235.035156 393.375 C 230.8125 392.75 226.328125 394.234375 223.527344 398.023438 C 210.980469 414.980469 211.8125 438.355469 225.53125 454.382812 C 226.566406 455.589844 227.699219 456.691406 228.882812 457.734375 C 229.542969 457.710938 230.210938 457.734375 230.832031 457.523438 C 234.578125 456.285156 237.082031 452.671875 238.347656 448.9375 Z M 238.339844 448.9375 " fill-opacity="1" fill-rule="nonzero"/><path fill="#be0936" d="M 445.542969 529.140625 C 442.746094 528.3125 439.835938 529.222656 437.9375 531.433594 C 436.234375 533.417969 434.367188 535.261719 432.402344 536.988281 L 433.207031 543.863281 C 435.808594 566.105469 462.839844 575.664062 478.859375 560.003906 L 481.507812 557.410156 C 491.136719 547.984375 497.105469 535.535156 498.507812 522.265625 C 494.285156 525.644531 489.125 528.074219 483.921875 529.648438 C 471.480469 533.417969 458.03125 532.835938 445.542969 529.132812 Z M 445.542969 529.140625 " fill-opacity="1" fill-rule="nonzero"/><path fill="#e4183e" d="M 485.96875 535.5625 C 483.203125 536.84375 480.832031 539.003906 477.882812 539.777344 C 474.5625 540.644531 471.082031 539.621094 467.683594 539.140625 C 455.804688 537.445312 443.878906 542.683594 435.050781 550.976562 C 441.898438 567.957031 464.683594 573.878906 478.867188 560.011719 L 481.515625 557.417969 C 487.265625 551.785156 491.683594 545.0625 494.625 537.746094 C 494.511719 537.414062 494.453125 537.0625 494.257812 536.753906 C 492.605469 534.191406 488.734375 534.273438 485.976562 535.5625 Z M 485.96875 535.5625 " fill-opacity="1" fill-rule="nonzero"/><path fill="#fb5a72" d="M 452.097656 553.691406 C 453.9375 553.082031 455.921875 553.242188 457.851562 553.382812 C 459.777344 553.527344 461.765625 553.660156 463.597656 553.023438 C 467.414062 551.6875 470 547.175781 474.050781 547.265625 C 477.539062 547.347656 480.007812 551.269531 479.535156 554.71875 C 479.0625 558.164062 476.445312 560.96875 473.511719 562.859375 C 467.527344 566.710938 459.726562 567.582031 453.035156 565.144531 C 451.421875 564.554688 449.820312 563.742188 448.761719 562.394531 C 446.382812 559.378906 448.761719 554.777344 452.105469 553.675781 Z M 452.097656 553.691406 " fill-opacity="1" fill-rule="nonzero"/><path fill="#be0936" d="M 371.953125 533.605469 C 369.652344 529.882812 365.765625 527.429688 361.402344 527.023438 L 340.3125 525.0625 C 338.796875 524.917969 337.214844 524.789062 335.796875 525.339844 C 334.582031 525.808594 333.613281 526.738281 332.683594 527.648438 C 330.554688 529.714844 328.417969 531.785156 326.285156 533.855469 L 326.285156 535.921875 C 326.285156 555.773438 342.964844 571.546875 362.789062 570.453125 C 375.097656 569.769531 385.625 561.652344 389.59375 550.097656 C 382.417969 546.253906 376.230469 540.535156 371.953125 533.613281 Z M 371.953125 533.605469 " fill-opacity="1" fill-rule="nonzero"/><path fill="#e4183e" d="M 353.4375 536.035156 C 349.703125 532.640625 344.855469 529.976562 339.839844 530.496094 C 334.761719 531.019531 330.417969 534.820312 328.222656 539.425781 C 327.710938 540.496094 327.320312 541.605469 327 542.738281 C 330.296875 559.246094 345.296875 571.421875 362.789062 570.453125 C 372.328125 569.929688 380.757812 564.898438 385.933594 557.296875 C 377.722656 556.292969 369.808594 552.746094 363.792969 547.0625 C 360.125 543.59375 357.164062 539.433594 353.4375 536.042969 Z M 353.4375 536.035156 " fill-opacity="1" fill-rule="nonzero"/><path fill="#fb5a72" d="M 329.226562 544.980469 C 329.070312 541.90625 329.917969 538.683594 332 536.417969 C 334.085938 534.152344 337.519531 533.03125 340.402344 534.117188 C 343.28125 535.203125 345.15625 538.71875 344.03125 541.582031 C 343.515625 542.894531 342.457031 544.027344 342.351562 545.4375 C 342.238281 546.921875 343.230469 548.261719 344.316406 549.265625 C 345.402344 550.273438 346.679688 551.140625 347.457031 552.410156 C 348.679688 554.394531 348.3125 557.214844 346.625 558.832031 C 343.132812 562.175781 338.722656 559.035156 335.734375 556.808594 C 332.007812 554.027344 329.464844 549.671875 329.226562 544.988281 Z M 329.226562 544.980469 " fill-opacity="1" fill-rule="nonzero"/><path fill="#be0936" d="M 429.171875 542.324219 C 418.804688 547.617188 407.152344 550.835938 395.519531 551.179688 C 392.269531 557.679688 387.3125 563.25 381.367188 567.417969 C 383.546875 577.363281 393.109375 584.375 403.671875 582.875 L 416.59375 581.046875 C 427.296875 579.53125 436.558594 573.039062 441.765625 563.667969 C 434.953125 558.59375 430.167969 550.78125 429.179688 542.332031 Z M 429.171875 542.324219 " fill-opacity="1" fill-rule="nonzero"/><path fill="#e4183e" d="M 402.785156 574.113281 C 412.992188 575.332031 423.546875 573.472656 432.71875 568.839844 C 435.808594 567.28125 438.757812 565.414062 441.726562 563.625 C 434.9375 558.546875 430.160156 550.75 429.179688 542.324219 C 418.8125 547.617188 407.160156 550.835938 395.527344 551.179688 C 393.472656 555.292969 390.667969 558.984375 387.417969 562.230469 C 388.5 565.152344 389.820312 568.007812 392.105469 570.078125 C 394.980469 572.679688 398.953125 573.652344 402.792969 574.117188 Z M 402.785156 574.113281 " fill-opacity="1" fill-rule="nonzero"/><path fill="#fb5a72" d="M 390.515625 561.875 C 389.992188 565.691406 393.042969 569.304688 396.671875 570.59375 C 400.304688 571.886719 404.316406 571.367188 408.074219 570.519531 C 409.09375 570.289062 410.152344 570.019531 410.96875 569.359375 C 411.785156 568.699219 412.304688 567.550781 411.914062 566.578125 C 411.117188 564.582031 407.855469 565.199219 406.4375 563.585938 C 404.96875 561.914062 406.078125 559.214844 404.960938 557.3125 C 404.046875 555.738281 401.960938 554.171875 400.085938 554.085938 C 396.050781 553.914062 391.070312 557.925781 390.523438 561.875 Z M 390.515625 561.875 " fill-opacity="1" fill-rule="nonzero"/><path fill="#be0936" d="M 332.542969 562.183594 C 326.535156 555.722656 321.953125 546.742188 321.671875 537.925781 C 315.570312 545.21875 306.074219 549.558594 296.5625 549.394531 C 288.507812 549.253906 280.714844 545.757812 274.925781 540.175781 C 270.320312 546.71875 268.703125 554.980469 270.605469 562.867188 C 277.515625 591.367188 309.957031 605.148438 335.277344 590.335938 C 342.066406 586.359375 346.558594 579.628906 348.050781 572.011719 C 342.179688 570.054688 336.757812 566.726562 332.542969 562.191406 Z M 332.542969 562.183594 " fill-opacity="1" fill-rule="nonzero"/><path fill="#e4183e" d="M 348.058594 572.003906 C 342.1875 570.046875 336.765625 566.71875 332.546875 562.183594 C 326.542969 555.722656 321.957031 546.742188 321.679688 537.925781 C 315.578125 545.21875 306.082031 549.558594 296.570312 549.394531 C 292.214844 549.320312 287.96875 548.195312 284.039062 546.351562 C 282.042969 553.617188 282.765625 561.703125 285.996094 568.578125 C 290.675781 578.535156 299.917969 585.910156 310.214844 589.773438 C 316.152344 592 322.4375 593.046875 328.785156 593.394531 C 330.988281 592.546875 333.171875 591.578125 335.292969 590.335938 C 342.082031 586.359375 346.574219 579.628906 348.066406 572.011719 Z M 348.058594 572.003906 " fill-opacity="1" fill-rule="nonzero"/><path fill="#fb5a72" d="M 289.101562 571.300781 C 287.03125 568.300781 285.425781 564.832031 285.390625 561.179688 C 285.351562 557.527344 287.144531 553.726562 290.40625 552.101562 C 293.667969 550.472656 298.296875 551.734375 299.683594 555.105469 C 300.710938 557.605469 299.886719 560.527344 300.710938 563.105469 C 301.558594 565.753906 303.945312 567.535156 306.066406 569.328125 C 308.1875 571.121094 310.3125 573.421875 310.257812 576.195312 C 310.214844 578.894531 307.925781 581.226562 305.300781 581.871094 C 298.730469 583.476562 292.394531 576.074219 289.09375 571.308594 Z M 289.101562 571.300781 " fill-opacity="1" fill-rule="nonzero"/><path fill="#be0936" d="M 269.863281 571.570312 C 265.550781 560.664062 266.046875 548.210938 270.882812 537.527344 C 267.769531 534.363281 266.1875 529.984375 265.984375 525.554688 C 252.847656 522.292969 239.535156 530.261719 236.242188 543.414062 C 229.890625 568.804688 247.445312 593.941406 273.480469 596.738281 C 278.390625 597.261719 283.027344 595.304688 286.199219 591.839844 C 278.917969 586.894531 273.105469 579.765625 269.863281 571.570312 Z M 269.863281 571.570312 " fill-opacity="1" fill-rule="nonzero"/><path fill="#e4183e" d="M 269.285156 594.039062 C 271.785156 593.625 274.214844 591.984375 274.890625 589.546875 C 275.511719 587.304688 274.550781 584.890625 273.15625 583.03125 C 271.753906 581.171875 269.929688 579.675781 268.4375 577.882812 C 264.328125 572.933594 263.160156 566.179688 263.007812 559.746094 C 262.859375 553.316406 263.5625 546.832031 262.582031 540.480469 C 261.726562 534.972656 259.542969 529.679688 256.332031 525.113281 C 246.859375 526.574219 238.714844 533.523438 236.25 543.40625 C 231.570312 562.132812 239.910156 580.6875 255.042969 590.28125 C 257.25 591.355469 259.507812 592.320312 261.847656 593.070312 C 264.253906 593.84375 266.804688 594.441406 269.292969 594.03125 Z M 269.285156 594.039062 " fill-opacity="1" fill-rule="nonzero"/><path fill="#be0936" d="M 248.652344 524.402344 C 251.472656 523.292969 254.480469 522.699219 257.257812 521.5 C 260.039062 520.300781 262.6875 518.3125 263.675781 515.449219 C 265.011719 511.597656 262.917969 507.292969 259.933594 504.511719 C 256.949219 501.730469 253.160156 499.992188 249.808594 497.667969 C 244.09375 493.703125 239.78125 487.890625 237.359375 481.371094 C 221.742188 495.472656 221.488281 520.023438 236.828125 534.453125 C 239.625 529.984375 243.726562 526.335938 248.640625 524.402344 Z M 248.652344 524.402344 " fill-opacity="1" fill-rule="nonzero"/><path fill="#be0936" d="M 376.347656 573.128906 C 370.257812 576.105469 363.335938 577.363281 356.585938 576.726562 C 348.382812 589.457031 334.597656 598.386719 319.6875 600.941406 L 320.644531 602.855469 C 330.980469 623.386719 357.855469 628.777344 375.3125 613.8125 C 381.9375 608.140625 386.652344 600.566406 388.828125 592.125 L 390.523438 585.550781 C 384.375 583.527344 378.996094 579.058594 376.347656 573.128906 Z M 376.347656 573.128906 " fill-opacity="1" fill-rule="nonzero"/><path fill="#e4183e" d="M 368.0625 611.585938 C 375.074219 609.253906 381.082031 604.804688 386.203125 599.292969 C 387.269531 596.984375 388.191406 594.605469 388.835938 592.117188 L 390.53125 585.542969 C 384.382812 583.519531 379.003906 579.050781 376.355469 573.121094 C 370.265625 576.097656 363.34375 577.359375 356.59375 576.71875 C 348.757812 588.878906 335.820312 597.492188 321.6875 600.484375 C 333.671875 610.050781 354 616.257812 368.070312 611.585938 Z M 368.0625 611.585938 " fill-opacity="1" fill-rule="nonzero"/><path fill="#fb5a72" d="M 365.789062 593.304688 C 368.332031 591.457031 371.667969 590.207031 374.601562 591.332031 C 377.617188 592.492188 379.304688 596.023438 378.898438 599.234375 C 378.492188 602.441406 376.328125 605.230469 373.648438 607.03125 C 370.972656 608.828125 367.796875 609.765625 364.640625 610.457031 C 361.792969 611.078125 358.835938 611.519531 355.964844 610.996094 C 352.355469 610.34375 346.175781 606.136719 348.589844 601.601562 C 349.394531 600.09375 350.960938 600.550781 352.402344 600.664062 C 354.785156 600.859375 356.742188 600.417969 358.777344 599.089844 C 361.328125 597.425781 363.335938 595.078125 365.789062 593.296875 Z M 365.789062 593.304688 " fill-opacity="1" fill-rule="nonzero"/><path fill="#e4183e" d="M 398.714844 587.164062 C 396 594.699219 391.640625 601.601562 386.144531 607.425781 L 388.769531 608.894531 C 409.625 620.582031 436.027344 612.300781 446.464844 590.792969 C 449.234375 585.085938 450.457031 578.804688 450.082031 572.542969 C 447.492188 572.941406 444.914062 574.269531 442.542969 575.550781 C 428.984375 582.90625 414.132812 586.984375 398.707031 587.164062 Z M 398.714844 587.164062 " fill-opacity="1" fill-rule="nonzero"/><path fill="#82ab00" d="M 435.035156 307.710938 L 408.292969 291.824219 C 401 287.5 391.632812 291.734375 390.074219 300.0625 L 377.8125 365.589844 C 402.296875 353.320312 429.050781 346.199219 456.402344 344.660156 L 470.226562 343.878906 C 479.691406 343.347656 483.980469 331.804688 477.15625 325.222656 C 465.816406 314.300781 450.777344 308.046875 435.035156 307.710938 Z M 435.035156 307.710938 " fill-opacity="1" fill-rule="nonzero"/><path fill="#8dbf00" d="M 398.136719 325.25 C 395.269531 329.554688 391.617188 334.449219 393.246094 339.359375 C 395.160156 345.148438 402.710938 346.289062 408.800781 346.421875 C 417.589844 346.617188 426.382812 346.8125 435.171875 347.007812 C 442.183594 345.851562 449.269531 345.058594 456.394531 344.652344 L 470.21875 343.875 C 479.683594 343.339844 483.972656 331.796875 477.148438 325.214844 C 465.816406 314.292969 450.769531 308.039062 435.027344 307.703125 L 408.285156 291.808594 C 408.015625 291.652344 407.730469 291.582031 407.457031 291.449219 C 407.945312 303.316406 404.722656 315.339844 398.136719 325.238281 Z M 398.136719 325.25 " fill-opacity="1" fill-rule="nonzero"/><path fill="#719301" d="M 435.035156 307.71875 L 431.203125 305.4375 C 418.339844 311.40625 406.828125 320.222656 397.867188 331.210938 C 396.554688 332.816406 396.792969 335.175781 398.40625 336.488281 C 399.105469 337.058594 399.9375 337.328125 400.769531 337.328125 C 401.855469 337.328125 402.9375 336.855469 403.679688 335.949219 C 412.328125 325.328125 423.539062 316.824219 436.109375 311.34375 L 436.550781 311.148438 C 437.894531 310.558594 438.570312 309.3125 438.570312 307.964844 C 437.390625 307.875 436.222656 307.746094 435.027344 307.722656 Z M 435.035156 307.71875 " fill-opacity="1" fill-rule="nonzero"/><path fill="#8dbf00" d="M 395.734375 231.609375 C 376.09375 225.066406 358.46875 213.574219 344.570312 198.234375 L 341.421875 194.757812 C 340.703125 197.605469 340.28125 200.53125 340.535156 203.460938 C 341.203125 211.300781 345.53125 218.753906 352.011719 223.222656 C 359.992188 228.722656 370.421875 229.585938 378.554688 234.855469 C 391.738281 243.386719 395.535156 260.808594 405.367188 273.042969 C 411.839844 281.105469 421.132812 286.824219 431.203125 289.109375 L 431.269531 288.601562 C 434.667969 263.53125 419.742188 239.601562 395.734375 231.601562 Z M 395.734375 231.609375 " fill-opacity="1" fill-rule="nonzero"/><path fill="#8dbf00" d="M 428.039062 241.109375 C 428.929688 244.496094 428.9375 248.394531 431.375 250.90625 C 434.210938 253.824219 439.027344 253.441406 442.859375 252.070312 C 453.351562 248.304688 461.089844 238.988281 465.5 228.753906 C 465.875 227.878906 466.125 226.960938 466.460938 226.078125 C 461.308594 221.191406 455.277344 217.171875 448.527344 214.414062 C 437.640625 209.960938 428.546875 202.011719 422.675781 191.824219 L 416.078125 180.378906 C 409.175781 193.101562 407.339844 207.964844 410.9375 221.984375 C 413.0625 223.582031 415.222656 225.132812 417.285156 226.789062 C 422.023438 230.582031 426.472656 235.246094 428.015625 241.117188 Z M 428.039062 241.109375 " fill-opacity="1" fill-rule="nonzero"/><path fill="#8dbf00" d="M 493.566406 337.6875 C 492.644531 343.519531 490.070312 349.359375 491.390625 355.117188 C 492.75 361.0625 497.886719 365.285156 502.746094 368.964844 C 517.640625 380.238281 533.445312 391.175781 551.609375 395.585938 C 560.503906 397.746094 569.535156 398.195312 578.59375 397.632812 L 566.359375 390.960938 C 555.328125 384.949219 546.253906 375.898438 540.195312 364.894531 C 530.480469 347.246094 513.261719 335.101562 493.484375 331.675781 C 493.828125 333.671875 493.867188 335.753906 493.566406 337.679688 Z M 493.566406 337.6875 " fill-opacity="1" fill-rule="nonzero"/><path fill="#8dbf00" d="M 594.582031 260.164062 L 580.265625 267.003906 C 567.089844 273.300781 552.53125 276.171875 537.945312 275.355469 C 522.050781 274.460938 506.292969 277.039062 491.652344 282.691406 C 490.980469 284.980469 489.671875 287.191406 488.054688 288.90625 C 484.535156 292.640625 479.847656 295.226562 476.773438 299.34375 C 473.699219 303.453125 473.015625 310.214844 477.277344 313.078125 C 480.027344 314.929688 483.667969 314.425781 486.9375 313.855469 C 501.726562 311.261719 516.515625 308.660156 531.3125 306.066406 C 545.5625 303.5625 559.941406 301.03125 573.375 295.648438 C 575.488281 294.800781 577.550781 293.839844 579.597656 292.859375 C 580.820312 290.835938 581.96875 288.757812 582.9375 286.554688 L 594.578125 260.164062 Z M 594.582031 260.164062 " fill-opacity="1" fill-rule="nonzero"/></svg>