<svg xmlns="http://www.w3.org/2000/svg" xmlns:xlink="http://www.w3.org/1999/xlink" width="1080" zoomAndPan="magnify" viewBox="0 0 810 809.999993" height="1080" preserveAspectRatio="xMidYMid meet" version="1.0"><defs><clipPath id="b1c29191a0"><path d="M 231 383 L 535 383 L 535 534.96875 L 231 534.96875 Z M 231 383 " clip-rule="nonzero"/></clipPath></defs><path fill="#840000" d="M 215.460938 388.578125 C 209.695312 385.148438 201.371094 385.957031 194.886719 383.222656 C 191.0625 381.609375 187.851562 374.535156 185.847656 370.871094 C 184.734375 368.832031 184.328125 366.636719 183.109375 364.605469 C 181.746094 362.332031 178.488281 361.410156 176.402344 360.019531 C 174.199219 358.550781 172.109375 358.421875 169.984375 359.910156 C 169.488281 360.257812 169.746094 361.234375 170.378906 361.214844 C 175.746094 361.046875 177.46875 373.171875 179.167969 376.820312 C 181.515625 381.855469 183.734375 385.113281 187.078125 389.210938 C 191.765625 394.953125 210.785156 398.171875 215.769531 392.613281 C 216.8125 391.449219 217 389.496094 215.460938 388.578125 " fill-opacity="1" fill-rule="nonzero"/><path fill="#a30505" d="M 244.015625 392.976562 C 240.941406 392.113281 238.433594 392.625 235.296875 393.171875 C 232.0625 393.738281 228.734375 392.660156 225.71875 393.164062 C 214.328125 395.074219 198.414062 390.628906 192.1875 380.582031 C 190.773438 378.289062 192.898438 375.257812 191.207031 373.171875 C 189.335938 370.878906 188.910156 370.03125 187.625 367.667969 C 185.449219 363.703125 179.066406 360.390625 174.648438 360.453125 C 173.429688 360.476562 172.992188 361.714844 173.640625 362.628906 C 175.34375 365.050781 176.496094 367.078125 178.886719 368.929688 C 181.335938 370.824219 181.335938 374.792969 184.054688 376.316406 C 184.679688 376.664062 184.222656 381.769531 185.378906 382.949219 C 188.046875 385.660156 188.964844 388.441406 192.308594 390.371094 C 195.773438 392.378906 198.058594 394.203125 201.960938 395.304688 C 206.582031 396.601562 211.3125 399.839844 216.292969 399.453125 C 220.210938 399.15625 230.019531 395.847656 233.183594 396.699219 C 237.148438 397.761719 240.921875 396.941406 244.292969 394.652344 C 244.878906 394.253906 244.703125 393.164062 244.015625 392.976562 " fill-opacity="1" fill-rule="nonzero"/><path fill="#a30505" d="M 275.179688 384.570312 C 275.0625 384.570312 275.050781 384.761719 275.167969 384.761719 C 275.289062 384.761719 275.304688 384.570312 275.179688 384.570312 " fill-opacity="1" fill-rule="nonzero"/><path fill="#d11818" d="M 594.121094 440.363281 C 587.59375 438.8125 579.085938 441.835938 573.210938 438.15625 C 568.1875 435.003906 562.167969 435.671875 557.449219 432.117188 C 556.792969 431.621094 555.835938 432.613281 556.453125 433.191406 C 561.398438 437.792969 567.960938 437.84375 573.542969 441.515625 C 578.484375 444.761719 588.652344 443.542969 593.960938 442.304688 C 594.855469 442.097656 595.179688 440.617188 594.121094 440.363281 " fill-opacity="1" fill-rule="nonzero"/><path fill="#ffffff" d="M 245.128906 439.882812 C 238.335938 439.882812 231.375 439.5 224.429688 438.738281 C 223.90625 438.746094 223.011719 438.761719 221.804688 438.761719 C 212.324219 438.761719 188.421875 438.109375 171.328125 432.085938 C 147.765625 423.785156 136.484375 391.0625 134.914062 372.390625 C 133.269531 352.753906 143.390625 341.34375 159.09375 330.242188 C 164.699219 326.277344 173.261719 318.460938 182.324219 310.175781 C 196.203125 297.503906 210.550781 284.394531 221.171875 278.476562 C 240.164062 267.894531 296.980469 257.375 315.882812 255.761719 C 320.246094 255.398438 325.648438 255.191406 331.09375 255.191406 C 354.765625 255.191406 409.976562 259.027344 411.363281 294.605469 C 412.644531 327.566406 410.296875 347.4375 393.886719 364.574219 C 392.878906 365.628906 391.660156 366.976562 390.21875 368.554688 C 372.472656 388.058594 325.332031 439.882812 245.128906 439.882812 " fill-opacity="1" fill-rule="nonzero"/><path fill="#5b0600" d="M 226.125 433.203125 C 226.125 433.203125 194.761719 434.019531 174.601562 426.914062 C 154.453125 419.808594 144.21875 389.335938 142.847656 373.097656 C 141.488281 356.859375 149.472656 347.679688 164.101562 337.339844 C 178.738281 327 209.191406 294.894531 226.203125 285.417969 C 243.214844 275.941406 298.390625 265.128906 318.929688 263.382812 C 339.472656 261.636719 405.925781 262.046875 407.230469 295.355469 C 408.523438 328.65625 405.757812 345.835938 391.664062 360.554688 C 377.574219 375.269531 323.667969 444.089844 226.125 433.203125 " fill-opacity="1" fill-rule="nonzero"/><path fill="#840000" d="M 390.898438 286.242188 C 382.519531 275.695312 377.054688 273.730469 364.039062 274.066406 C 355.855469 274.269531 346.46875 276.867188 338.574219 278.839844 C 337.460938 279.121094 336.398438 279.5 335.375 279.941406 C 334.300781 279.363281 333.234375 278.847656 332.132812 278.492188 C 313.335938 272.445312 289.199219 277.53125 271.710938 285.417969 C 262.785156 289.449219 254.738281 291.039062 246.605469 297.070312 C 236.960938 304.226562 228.898438 313.554688 218.675781 320.269531 C 212.25 324.488281 207.90625 328.433594 202.941406 333.964844 C 200.417969 336.769531 200.324219 339.195312 196.484375 341.246094 C 189.097656 345.191406 182.429688 347.5625 176.832031 354.003906 C 176.222656 354.703125 177.128906 355.609375 177.871094 355.160156 C 183.066406 351.984375 188.359375 349.144531 193.324219 345.640625 C 199.148438 341.53125 210.148438 339.992188 216.820312 336.746094 C 227.523438 331.535156 238.359375 327.789062 249.164062 322.902344 C 254.367188 320.550781 257.933594 317.363281 263.601562 316.121094 C 268.246094 315.105469 272.796875 314.015625 277.320312 312.570312 C 287.347656 309.371094 301.9375 301.070312 314.53125 300.453125 C 296.46875 321.746094 267.679688 328.351562 242.867188 338.238281 C 230.363281 343.21875 217.378906 344.914062 204.972656 350.144531 C 195.359375 354.199219 189.304688 364.605469 179.738281 369.390625 C 179.332031 369.585938 179.660156 370.195312 180.070312 370.003906 C 186.09375 367.15625 190.972656 363.402344 195.882812 358.878906 C 207.539062 348.144531 220.546875 347.414062 235.027344 343.507812 C 245.480469 340.683594 255.496094 335.941406 265.820312 332.636719 C 272.242188 330.578125 279.195312 330.042969 285.894531 329.429688 C 289.886719 329.070312 294.007812 325.25 297.488281 323.445312 C 305.484375 319.296875 314.101562 318.71875 321.648438 313.535156 C 324.988281 311.242188 327.816406 308.027344 330.671875 304.859375 C 335.339844 306.753906 339.949219 307.898438 345.339844 308.507812 C 346.125 308.601562 347.148438 308.53125 348.300781 308.378906 C 347.925781 310.078125 347.621094 311.792969 347.242188 313.382812 C 345.789062 319.546875 335.746094 324.261719 330.957031 328.535156 C 323.960938 334.773438 318.589844 343.414062 310.828125 348.746094 C 303.1875 354.003906 304.335938 363.445312 294.632812 366.019531 C 274.449219 371.367188 255.101562 379.644531 235.105469 385.253906 C 228.1875 387.195312 219.367188 386.992188 212.015625 388.363281 C 203.101562 390.03125 196.90625 393.703125 187.390625 388.097656 C 182.460938 385.1875 178.765625 385.007812 173.214844 385.113281 C 172.882812 385.121094 172.851562 385.605469 173.195312 385.632812 C 181.308594 386.40625 185.496094 393.011719 192.386719 396.476562 C 199.011719 399.8125 211.050781 394.773438 217.730469 393.742188 C 229.574219 391.914062 239.222656 391.984375 250.609375 387.464844 C 262.878906 382.59375 276.078125 381.210938 288.488281 376.648438 C 297.113281 373.484375 306.992188 374.332031 314.910156 370.132812 C 323.601562 365.523438 334.964844 358.871094 341.695312 351.378906 C 349.875 342.269531 360.984375 337.605469 368.226562 327.496094 C 370.496094 324.332031 371.632812 320.660156 372.453125 316.894531 C 376.554688 322.601562 386.664062 324.03125 390.050781 316.460938 C 394.191406 307.210938 397.9375 295.113281 390.898438 286.242188 " fill-opacity="1" fill-rule="nonzero"/><path fill="#840000" d="M 233.664062 408.449219 C 230.558594 406.445312 230.171875 406.46875 226.222656 406.339844 C 223.804688 406.453125 221.402344 406.699219 219.015625 407.082031 C 213.527344 407.777344 210.652344 404.21875 206.683594 401.867188 C 201.097656 398.550781 192.382812 397.832031 186.109375 398.261719 C 185.011719 398.335938 184.5 399.9375 185.730469 400.296875 C 191.21875 401.90625 196.996094 403.234375 202.367188 405.132812 C 206.992188 406.765625 208.292969 410.808594 211.890625 413.34375 C 215.945312 416.203125 218.539062 414.742188 223.289062 414.242188 C 227.726562 413.773438 230.175781 414.050781 233.835938 411.671875 C 234.949219 410.949219 234.675781 409.09375 233.664062 408.449219 " fill-opacity="1" fill-rule="nonzero"/><path fill="#840000" d="M 367.207031 354.558594 C 363.40625 355.378906 361.617188 356.945312 358.507812 359.269531 C 355.945312 361.1875 354.753906 364.355469 352.300781 366.292969 C 350.476562 367.730469 347.886719 368.476562 345.832031 369.566406 C 343.585938 370.765625 341.355469 372.03125 339.167969 373.351562 C 345.882812 366.253906 352.464844 359.046875 359.859375 353.882812 C 363.621094 351.253906 359.976562 345.304688 356.066406 347.808594 C 340.71875 357.652344 328.042969 371.933594 313.78125 383.28125 C 297.570312 396.164062 273.683594 393.683594 255.019531 399.621094 C 252.335938 400.472656 252.808594 404.535156 255.488281 404.988281 C 258.21875 405.457031 261.003906 405.695312 263.804688 405.773438 C 257.667969 405.796875 251.554688 405.65625 246.257812 406.574219 C 243.101562 407.125 242.628906 411.773438 246.019531 412.367188 C 258.039062 414.472656 274.316406 418.894531 286.261719 414.738281 C 291.011719 413.082031 295.085938 410.542969 299.269531 407.777344 C 305.726562 403.511719 311.113281 403.097656 318.246094 400.945312 C 330.136719 397.367188 341.191406 388.445312 351.710938 382.121094 C 355.984375 379.550781 361.339844 378.359375 364.109375 373.828125 C 367.417969 368.421875 371.078125 364.316406 371.605469 357.921875 C 371.804688 355.558594 369.25 354.121094 367.207031 354.558594 Z M 273.316406 405.429688 C 274.347656 405.328125 275.382812 405.210938 276.417969 405.070312 C 275.398438 405.21875 274.367188 405.335938 273.316406 405.429688 " fill-opacity="1" fill-rule="nonzero"/><path fill="#380000" d="M 404.886719 277.015625 C 392.871094 245.515625 338.347656 252.644531 312.136719 257.378906 C 335.4375 257.65625 370.296875 255.28125 388.179688 272.503906 C 400.175781 284.054688 394.019531 309.671875 389.832031 323.183594 C 384.082031 340.601562 365.042969 356.050781 351.667969 367.5 C 332.765625 383.679688 310.917969 396.835938 287.058594 404.210938 C 264.40625 411.210938 242.816406 411.402344 219.414062 410.914062 C 202.957031 410.570312 184.628906 412.132812 168.914062 405.96875 C 155.519531 400.710938 151.53125 390.527344 147.320312 377.660156 C 143.332031 365.480469 141.601562 353.28125 149.847656 342.457031 C 156.402344 333.847656 165.773438 327.113281 173.351562 319.40625 C 157.882812 330.398438 137.34375 339.292969 135.769531 360.753906 C 134.351562 379.011719 138.054688 396.84375 151.199219 410.234375 C 156.089844 415.097656 161.335938 418.53125 167.753906 420.839844 C 174.570312 423.292969 181.726562 424.6875 188.859375 425.832031 C 196.886719 427.109375 214.792969 426.640625 218.375 428.148438 C 255.179688 432.289062 291.515625 426.679688 324.378906 409.128906 C 351.085938 394.859375 372.269531 374.191406 392.007812 351.589844 C 401.980469 340.171875 406.375 326.324219 407.410156 311.351562 C 408.203125 299.820312 409.164062 288.230469 404.886719 277.015625 " fill-opacity="1" fill-rule="nonzero"/><path fill="#4c0200" d="M 346.332031 311.136719 C 340.902344 320.175781 334.617188 332.046875 323.472656 334.78125 C 314.878906 336.902344 306.449219 343.421875 298.773438 347.535156 C 275.125 360.226562 253.730469 376.484375 226.710938 381.011719 C 222.796875 381.664062 223.734375 387.433594 227.632812 387.050781 C 239.367188 385.910156 249.996094 382.148438 261.484375 379.601562 C 277.851562 375.988281 290.753906 367.875 306.003906 361.125 C 328.355469 351.230469 351.859375 342.78125 361.316406 317.917969 C 364.726562 308.992188 351.105469 303.183594 346.332031 311.136719 " fill-opacity="1" fill-rule="nonzero"/><path fill="#4c0200" d="M 359.347656 281.171875 C 348.785156 278.667969 339.433594 271.136719 328.007812 272.972656 C 317.414062 274.675781 310.433594 282.058594 299.46875 281.847656 C 290.421875 281.675781 284.171875 288.382812 276.636719 292.363281 C 265.71875 298.136719 253.003906 303.582031 243.53125 311.597656 C 227.710938 324.992188 207.464844 337.355469 188.34375 345.523438 C 185.125 346.910156 186.792969 352.378906 190.246094 351.464844 C 207.589844 346.832031 225.667969 338.707031 241.203125 329.746094 C 255.003906 321.78125 271.089844 321.207031 285.5 314.332031 C 293.125 310.691406 299.058594 306.683594 307.257812 306.960938 C 317.882812 307.3125 324.203125 297.136719 333.621094 296.9375 C 340.804688 296.785156 347.328125 298.144531 354.40625 299.269531 C 369.941406 301.738281 378.253906 306.363281 385.34375 320.429688 C 385.871094 321.488281 387.632812 321.203125 387.65625 319.964844 C 387.941406 300.785156 378.515625 285.71875 359.347656 281.171875 " fill-opacity="1" fill-rule="nonzero"/><path fill="#4c0200" d="M 240.164062 290.371094 C 229.769531 296.246094 219.996094 302.480469 209.636719 308.414062 C 195.925781 316.25 184.359375 329.269531 172.460938 339.578125 C 157.273438 352.742188 156 379.121094 179.359375 383.753906 C 181.816406 384.238281 185.21875 382.648438 184.910156 379.632812 C 183.929688 370.011719 176.816406 359.410156 185.074219 351.132812 C 190.765625 345.433594 196.097656 340.261719 200.769531 333.660156 C 212.480469 317.140625 226.664062 306.226562 242.820312 294.683594 C 245.449219 292.800781 243.035156 288.746094 240.164062 290.371094 " fill-opacity="1" fill-rule="nonzero"/><path fill="#a30505" d="M 334.828125 278.792969 C 342.144531 277.25 354.300781 280.554688 361.800781 282.324219 C 371.417969 284.585938 377.570312 286.230469 383.375 292.714844 C 376.621094 290.753906 370.859375 286.125 363.101562 287.035156 C 361.40625 287.234375 361.140625 289.652344 362.875 290.046875 C 364.882812 290.503906 382.972656 298.394531 385.886719 295.863281 C 386.078125 296.125 386.261719 296.363281 386.453125 296.636719 L 386.5 296.621094 C 387.09375 297.539062 388.46875 297.96875 389.3125 296.976562 C 396.007812 289.078125 385.019531 283.710938 380.046875 279.050781 C 376.246094 275.480469 369.316406 275.996094 364.566406 274.742188 C 357.988281 273.003906 351.289062 271.058594 345.167969 267.996094 C 338.554688 264.6875 330.75 267.253906 323.734375 267.117188 C 320.996094 267.0625 318.164062 266.777344 315.539062 267.734375 C 312.128906 268.976562 309.332031 271.546875 305.9375 272.65625 C 299.679688 274.699219 292.773438 275.078125 286.367188 276.660156 C 282.496094 277.613281 279.042969 277.421875 275.242188 277.980469 C 271.597656 278.511719 268.449219 280.113281 264.871094 280.984375 C 258.050781 282.636719 253.582031 284.4375 247.433594 288.144531 C 239.878906 292.710938 232.371094 293.785156 224.261719 296.453125 C 218.703125 298.273438 216.628906 303.054688 213.175781 307.253906 C 210.949219 309.960938 208.101562 312.128906 205.425781 314.378906 C 203.328125 316.140625 202.332031 318.671875 200.253906 320.429688 C 194.9375 324.9375 188.363281 328.003906 182.53125 331.800781 C 176.945312 335.445312 174.007812 341.503906 169.546875 346.273438 C 166.582031 349.453125 164.753906 354.125 161.792969 357.480469 C 159.425781 360.164062 158.101562 360.859375 159.503906 364.214844 C 159.785156 364.890625 160.886719 365.023438 161.054688 364.175781 C 161.910156 359.824219 173.167969 350.996094 177.324219 351.097656 C 181.164062 351.191406 183.722656 348.398438 186.109375 345.859375 C 189.382812 342.386719 193.625 339.886719 197.832031 337.542969 C 198.292969 338.125 198.964844 338.539062 199.78125 338.554688 C 212.007812 338.855469 217.382812 334.78125 226.464844 327.265625 C 235.441406 319.828125 248.195312 317.464844 258.125 311.347656 C 262.742188 308.503906 267.394531 305.816406 272.269531 303.441406 C 278.445312 300.421875 283.929688 301.714844 290.234375 300.15625 C 295.542969 298.84375 299.863281 296.882812 304.753906 294.570312 C 315.351562 289.558594 326.746094 291.351562 337.863281 288.855469 C 339.628906 288.457031 339.5625 285.808594 337.851562 285.386719 C 331.203125 283.769531 323.648438 283.304688 316.273438 283.804688 C 317.382812 283.261719 318.492188 282.683594 319.613281 282.050781 C 323.4375 279.882812 330.507812 279.703125 334.828125 278.792969 Z M 223.027344 313.921875 C 220.410156 315.648438 217.855469 317.519531 215.347656 319.472656 C 217.546875 316.078125 220.652344 313.285156 224.425781 312.066406 C 225.347656 311.769531 226.28125 311.503906 227.214844 311.242188 C 225.816406 312.109375 224.429688 313.003906 223.027344 313.921875 " fill-opacity="1" fill-rule="nonzero"/><path fill="#a30505" d="M 354.257812 286.894531 C 352.914062 286.871094 351.605469 286.582031 350.257812 286.574219 C 349.082031 286.5625 347.738281 286.445312 346.667969 287.007812 C 346.230469 287.238281 346.167969 287.839844 346.570312 288.136719 C 348.632812 289.671875 351.441406 290.070312 353.964844 290.222656 C 356.125 290.347656 356.402344 286.929688 354.257812 286.894531 " fill-opacity="1" fill-rule="nonzero"/><path fill="#a30505" d="M 207.453125 355.75 C 200.0625 356.554688 193.691406 361.375 187.914062 365.640625 C 186.988281 366.324219 188.023438 367.765625 188.964844 367.089844 C 191.984375 364.9375 194.882812 362.667969 198.230469 361.046875 C 201.398438 359.515625 204.875 358.628906 207.898438 356.816406 C 208.445312 356.492188 208.003906 355.691406 207.453125 355.75 " fill-opacity="1" fill-rule="nonzero"/><path fill="#a30505" d="M 262.871094 338.808594 C 248.972656 334.015625 231.117188 346.898438 218.058594 350.402344 C 216.714844 350.761719 217.273438 352.527344 218.324219 352.804688 C 225.425781 354.714844 230.539062 351.46875 237.242188 349.285156 C 242.898438 347.449219 248.332031 345.398438 254.25 344.535156 C 257.84375 344.019531 260.472656 343.242188 263.367188 341.128906 C 264.230469 340.496094 263.765625 339.117188 262.871094 338.808594 " fill-opacity="1" fill-rule="nonzero"/><path fill="#a30505" d="M 295.988281 325.890625 C 291.765625 327.070312 288.425781 329.058594 284.484375 331.011719 C 279.949219 333.265625 275.269531 334.605469 270.667969 336.597656 C 269.820312 336.964844 270.464844 338.058594 271.222656 337.972656 C 276.191406 337.386719 279.355469 337.09375 284.09375 335.335938 C 288.867188 333.566406 293.171875 330.886719 296.902344 327.484375 C 297.703125 326.75 297.003906 325.601562 295.988281 325.890625 " fill-opacity="1" fill-rule="nonzero"/><path fill="#a30505" d="M 348.09375 299.628906 C 345.996094 300.355469 346.976562 303.980469 349.140625 303.390625 C 352.003906 302.625 356.652344 303.078125 359.425781 303.359375 C 363.703125 303.792969 364.925781 307.875 368.507812 308.914062 C 370.761719 309.566406 381.015625 311.984375 378.296875 316.519531 C 376.816406 318.984375 375.042969 321.871094 375.054688 324.855469 C 375.078125 331.453125 375.726562 338.925781 369.789062 343.292969 C 365.015625 346.804688 361.675781 351.582031 356.980469 355.089844 C 354.34375 357.0625 351.816406 358.464844 349.507812 360.8125 C 348.722656 361.613281 349.515625 362.90625 350.574219 362.660156 C 357.265625 361.121094 363.804688 356.792969 369.71875 353.507812 C 373.804688 351.25 376.417969 348.738281 379.253906 344.984375 C 382.382812 340.839844 386.921875 338.367188 388.1875 332.929688 C 389.546875 327.085938 393.84375 322 394.09375 315.96875 C 394.992188 294.449219 361.425781 295.023438 348.09375 299.628906 " fill-opacity="1" fill-rule="nonzero"/><path fill="#380000" d="M 181.476562 384.371094 C 177.96875 378.023438 168.742188 378.507812 164.84375 372.476562 C 162.21875 368.417969 159.039062 366.628906 154.109375 368.003906 C 152.125 368.558594 150.875 370.539062 150.292969 372.789062 C 149.640625 373.738281 149.402344 374.988281 149.875 376.441406 C 149.890625 376.496094 149.914062 376.539062 149.933594 376.59375 C 150 377.503906 150.164062 378.359375 150.441406 379.050781 C 151.316406 381.238281 152.734375 382.59375 154.296875 384.308594 C 155.695312 385.839844 156.539062 387.863281 157.164062 390.003906 C 157.527344 393.152344 157.5625 396.511719 158.230469 399.996094 C 158.582031 401.808594 160.589844 403.855469 162.105469 404.773438 C 164.859375 406.449219 164.375 409.492188 168.21875 410.402344 C 174.675781 411.941406 177.535156 404.816406 180.179688 400.640625 C 183.617188 395.238281 184.667969 390.136719 181.476562 384.371094 " fill-opacity="1" fill-rule="nonzero"/><path fill="#562202" d="M 179.25 383.644531 C 177.621094 380.234375 173.175781 379.007812 169.394531 377.328125 C 168.089844 375.679688 166.628906 374.144531 165.058594 372.746094 C 164.484375 372.242188 163.777344 372.03125 163.046875 372.007812 C 162.734375 371.914062 162.410156 371.941406 162.15625 372.089844 C 160.785156 372.367188 159.511719 373.316406 159.097656 374.601562 C 157.96875 378.105469 159.511719 380.664062 161.578125 383.507812 C 164.390625 387.378906 163.023438 391.511719 163.839844 396.019531 C 164.515625 399.742188 167.457031 402.433594 170.808594 403.273438 C 171.121094 403.828125 171.460938 404.378906 171.855469 404.894531 C 174.019531 407.699219 178.203125 406.292969 178.792969 403.011719 C 178.9375 402.203125 179.042969 401.410156 179.132812 400.605469 C 179.320312 400.175781 179.367188 399.707031 179.289062 399.242188 C 179.527344 396.996094 179.726562 394.769531 180.335938 392.480469 C 181.171875 389.367188 180.617188 386.5 179.25 383.644531 " fill-opacity="1" fill-rule="nonzero"/><path fill="#ffffff" d="M 599.792969 480.136719 C 595.421875 480.441406 591.210938 480.117188 587.273438 479.140625 C 580.84375 477.558594 573.421875 476.902344 565.5625 476.21875 C 546.269531 474.527344 524.398438 472.609375 507.71875 455.785156 C 496.824219 444.796875 483.148438 434.71875 471.085938 425.820312 C 461.507812 418.765625 452.464844 412.097656 445.722656 405.695312 C 430.101562 390.839844 423.136719 374.441406 410.851562 353.378906 C 397.296875 330.117188 394.761719 302.425781 407.429688 284.636719 C 416.667969 271.660156 434.367188 253.9375 459.882812 252.117188 C 465.851562 251.695312 471.730469 252.710938 477.355469 255.125 C 486.773438 259.199219 495.222656 262.488281 502.675781 265.394531 C 515.585938 270.433594 526.738281 274.78125 538.226562 281.152344 C 543.574219 284.125 552.492188 286.816406 561.9375 289.667969 C 581.007812 295.421875 600.71875 298.132812 615.132812 312.230469 C 623.601562 320.503906 630.636719 326.546875 636.84375 331.878906 C 644.980469 338.875 652.015625 344.917969 658.953125 353.148438 C 671.359375 367.882812 674.015625 415.527344 666.515625 437.953125 C 662.519531 449.90625 656.082031 454.433594 650.929688 456.039062 C 650.023438 456.621094 648.320312 457.824219 646.902344 458.824219 C 636.996094 465.808594 618.570312 478.796875 599.792969 480.136719 " fill-opacity="1" fill-rule="nonzero"/><path fill="#6c0f04" d="M 654.488281 454.476562 C 650.226562 455.449219 619.296875 484.113281 594.996094 478.121094 C 570.6875 472.121094 538.546875 477.929688 517.640625 456.839844 C 496.734375 435.761719 468.125 418.949219 453.03125 404.597656 C 437.933594 390.242188 425.691406 374.753906 413.09375 353.148438 C 400.5 331.542969 401.0625 313.265625 411.109375 299.148438 C 421.15625 285.03125 445.308594 251.246094 471.757812 262.648438 C 498.210938 274.054688 515.894531 279.152344 533.976562 289.183594 C 552.058594 299.21875 592.941406 303.597656 613.429688 323.632812 C 633.921875 343.667969 646.335938 351.261719 658.191406 365.335938 C 670.050781 379.40625 673.136719 450.195312 654.488281 454.476562 " fill-opacity="1" fill-rule="nonzero"/><path fill="#840c03" d="M 585.558594 410.132812 C 574.367188 409.800781 566.5625 405.472656 555.980469 403.957031 C 548.96875 402.957031 548.265625 393.132812 540.464844 390.992188 C 536.625 389.9375 533.027344 389.585938 529.046875 389.410156 C 524.359375 389.203125 524.449219 387.574219 521.167969 383.457031 C 518.894531 380.597656 515 379.683594 511.828125 378.324219 C 506.480469 376.03125 505.269531 374.277344 501.738281 369.707031 C 496.085938 362.398438 487.355469 358.480469 478.644531 356.203125 C 479.464844 356.417969 476.613281 350.476562 475.824219 349.335938 C 472.253906 344.160156 468.480469 340.785156 463.402344 337.128906 C 450.976562 328.15625 447.5 314.820312 438.933594 302.804688 C 438.527344 302.242188 437.53125 302.144531 437.324219 302.960938 C 434.796875 312.949219 435.585938 317.945312 439.9375 327.484375 C 442.171875 332.390625 444.859375 336.304688 448.253906 340.421875 C 450.554688 342.6875 452.921875 344.878906 455.367188 346.988281 C 459.375 350.566406 460.253906 362.042969 462.28125 368.125 C 463.59375 372.054688 467.765625 374.492188 471.363281 375.992188 C 478.898438 379.125 481.808594 383 485.691406 389.753906 C 490.574219 398.25 498.210938 400.292969 506.667969 401.820312 C 511.183594 406.527344 513.132812 408.953125 522.019531 410.085938 C 524.925781 410.464844 534.21875 405.597656 535.976562 410.253906 C 536.816406 412.464844 538.921875 415.066406 540.8125 416.476562 C 548.613281 422.300781 559.199219 422.609375 567.542969 428.386719 C 576.523438 434.605469 592.089844 435.171875 602.582031 436.007812 C 606.4375 436.316406 611.183594 433.3125 612.777344 429.859375 C 613.121094 429.117188 613.460938 428.375 613.808594 427.632812 C 615.425781 424.128906 615.195312 421.132812 612.761719 418.085938 C 606.433594 410.175781 594.984375 410.414062 585.558594 410.132812 " fill-opacity="1" fill-rule="nonzero"/><path fill="#840c03" d="M 654.996094 382.121094 C 654.070312 375.234375 651.832031 369.664062 644.753906 367.675781 C 643.996094 367.460938 643.3125 368.144531 643.195312 368.867188 C 642.765625 368.1875 642.347656 367.519531 641.875 366.8125 C 638.441406 361.660156 631.957031 357.71875 627.765625 352.960938 C 619.476562 343.523438 611.359375 335.667969 599.550781 330.851562 C 592.785156 328.089844 583.335938 323.71875 576.90625 320.019531 C 569.921875 315.992188 559.738281 321.050781 554.394531 316.117188 C 550.109375 312.148438 548.273438 308.554688 542.992188 305.234375 C 537.550781 301.820312 532.992188 299.628906 526.671875 298.570312 C 519.648438 297.632812 513.070312 295.308594 506.953125 291.59375 C 503.511719 289.847656 501.679688 285.363281 498.148438 283.464844 C 492.023438 280.191406 485.542969 278.222656 480.042969 273.726562 C 464.453125 260.980469 440.269531 267.96875 433.285156 286.839844 C 432.425781 289.164062 434.617188 291.910156 437.011719 291.820312 C 448.484375 291.398438 456.882812 279.574219 468.90625 289.917969 C 475.023438 295.1875 483.242188 296.953125 489.25 301.726562 C 496.195312 307.238281 500.785156 308.910156 509.75 310.691406 C 521.851562 313.09375 536.800781 313.753906 544.292969 324.914062 C 548.324219 330.921875 553.636719 332.691406 560.375 334.078125 C 561.808594 334.375 571.632812 345.191406 571.800781 345.324219 C 575.390625 348.109375 579.710938 350.625 583.984375 352.894531 C 587.269531 356.796875 590.742188 360.535156 594.488281 363.980469 C 600.847656 369.824219 602.722656 379.195312 609.542969 385.296875 C 610.871094 386.335938 612.195312 387.363281 613.53125 388.394531 C 617.382812 390.226562 617.65625 390.828125 614.351562 390.1875 C 614.839844 393.457031 615.1875 396.703125 615.457031 399.96875 C 612.476562 395.1875 606.167969 390.527344 602.507812 389.183594 C 595.660156 386.667969 588.171875 388.003906 581.5625 385.402344 C 576.746094 383.507812 573.320312 379.25 569.007812 376.496094 C 567.480469 375.515625 564.679688 376.382812 564.796875 378.53125 C 565.246094 386.945312 567.894531 395.554688 576.132812 399.511719 C 580.796875 401.757812 584.558594 402.164062 589.695312 401.746094 C 593.65625 401.421875 597.078125 400.503906 600.207031 403.492188 C 602.28125 405.472656 604.511719 407.34375 606.789062 409.09375 C 608.496094 410.414062 611.066406 411.054688 613.113281 410.085938 C 614.484375 409.4375 615.445312 408.667969 616.09375 407.820312 C 617.042969 415.414062 620.554688 422.871094 625.949219 428.121094 C 631.023438 433.054688 640.503906 432.28125 645.734375 428.230469 C 653.875 421.914062 655.589844 414.464844 654.980469 406.210938 C 658.238281 399.511719 655.828125 388.328125 654.996094 382.121094 " fill-opacity="1" fill-rule="nonzero"/><path fill="#510600" d="M 623.863281 417.113281 C 614.050781 417.890625 607.984375 425.472656 597.449219 424.332031 C 586.65625 423.167969 576.484375 419.964844 565.84375 418.195312 C 555.007812 416.390625 554.160156 415.738281 547.789062 410.539062 C 541.996094 405.8125 536.527344 403.050781 529.4375 400.605469 C 523.773438 398.65625 516.253906 397.574219 511.617188 393.21875 C 504.125 386.1875 500.171875 377.441406 491.425781 371.363281 C 480.21875 363.582031 466.207031 367.757812 457.269531 354.886719 C 453.769531 349.851562 447.828125 346.550781 444.078125 341.132812 C 435.550781 328.804688 426.722656 323.746094 432.972656 306.007812 C 433.324219 304.996094 431.65625 304.269531 431.214844 305.265625 C 422.617188 324.566406 434.34375 336.605469 443.289062 353.003906 C 445.84375 357.695312 451.210938 358.066406 451.894531 364.71875 C 452.316406 368.839844 456.371094 371.378906 459.441406 373.417969 C 463.789062 376.300781 466.152344 380.417969 470.96875 382.589844 C 477.324219 385.457031 479.90625 382.738281 486.703125 389.421875 C 489.757812 392.429688 491.441406 396.628906 494.195312 399.867188 C 498.023438 404.378906 500.746094 410.199219 504.988281 414.347656 C 509.429688 418.699219 517.472656 420.640625 523.269531 422.183594 C 528.632812 423.617188 533.523438 424.882812 538.375 427.566406 C 544 430.695312 549.496094 427.722656 555.542969 428.914062 C 568.667969 431.476562 581.828125 433.382812 594.90625 436.304688 C 606.84375 438.96875 621.550781 434.578125 627 422.960938 C 628.066406 420.679688 627.0625 416.859375 623.863281 417.113281 " fill-opacity="1" fill-rule="nonzero"/><path fill="#510600" d="M 654.554688 375.597656 C 653.230469 369.03125 646.625 362.644531 642.21875 357.933594 C 635.144531 350.386719 626.507812 346.417969 617.402344 342.257812 C 615.6875 341.472656 614.617188 343.875 615.894531 344.984375 C 625.253906 353.15625 646.941406 370.023438 638.910156 384.179688 C 636.054688 389.207031 636.035156 394.09375 636.246094 399.847656 C 636.441406 405.183594 634.582031 410.007812 634.140625 415.285156 C 633.851562 418.773438 637.507812 421.3125 640.6875 419.886719 C 648.914062 416.203125 652.664062 410.644531 654.082031 401.742188 C 655.367188 393.667969 656.203125 383.765625 654.554688 375.597656 " fill-opacity="1" fill-rule="nonzero"/><path fill="#510600" d="M 509.792969 314.960938 C 520.070312 318.9375 528.707031 325.144531 538.433594 330.046875 C 547.328125 334.53125 554.148438 341.417969 562.855469 345.933594 C 571.007812 350.160156 575.136719 352.917969 577.292969 361.902344 C 578.414062 366.570312 578.984375 367.445312 581.847656 371.089844 C 583.171875 372.78125 585.878906 372.03125 585.851562 369.769531 C 585.773438 363.757812 584.996094 356.03125 581.324219 351 C 574.84375 342.132812 563.558594 339.625 555.265625 332.765625 C 547.714844 326.527344 537.128906 324.515625 528.675781 319.859375 C 515.644531 312.691406 500.5 309.539062 486.609375 304.585938 C 486.515625 304.550781 486.457031 304.707031 486.542969 304.75 C 494.21875 308.296875 501.902344 311.898438 509.792969 314.960938 " fill-opacity="1" fill-rule="nonzero"/><path fill="#510600" d="M 493.273438 357.589844 C 498.253906 362.960938 500.53125 369.136719 504.140625 375.207031 C 508.191406 382.023438 521.269531 385.601562 527.660156 388.820312 C 536.703125 393.375 545.925781 397.316406 555.601562 400.371094 C 562.121094 402.421875 570.394531 400.496094 577.070312 400.796875 C 583.773438 401.097656 590.039062 402.3125 596.722656 401.582031 C 598.328125 401.410156 598.566406 398.992188 597.289062 398.25 C 589.671875 393.835938 581.214844 393.046875 572.457031 392.972656 C 557.753906 392.847656 543.082031 393.101562 529.660156 385.335938 C 524.9375 382.59375 520.195312 379.875 515.375 377.296875 C 509.011719 373.890625 506.070312 368.164062 501.878906 362.820312 C 495.695312 354.953125 488.191406 348.179688 481.007812 341.246094 C 479.785156 340.054688 478.136719 342.054688 479.3125 343.238281 C 483.835938 347.808594 488.882812 352.84375 493.273438 357.589844 " fill-opacity="1" fill-rule="nonzero"/><path fill="#510600" d="M 587.863281 443.933594 C 578.929688 441.722656 570.6875 446.460938 561.738281 441.734375 C 555.464844 438.417969 547.703125 437.890625 541.492188 434.195312 C 541.125 433.976562 540.890625 434.519531 541.125 434.78125 C 546.695312 440.859375 554.371094 444.265625 561.214844 448.523438 C 569.917969 453.929688 579.585938 450.765625 588.082031 446.453125 C 589.238281 445.871094 589.195312 444.265625 587.863281 443.933594 " fill-opacity="1" fill-rule="nonzero"/><path fill="#9e110e" d="M 462.097656 273.945312 C 456.113281 270.914062 446.503906 271.3125 440.890625 275.300781 C 437.46875 277.726562 436.277344 282.445312 432.816406 285.144531 C 430.066406 287.285156 428.003906 288.957031 426.636719 292.15625 C 426.292969 292.96875 427.453125 293.339844 427.925781 292.761719 C 431.394531 288.476562 439.621094 287.875 444.144531 284.570312 C 449.085938 280.957031 456.523438 281.171875 462.15625 277.671875 C 463.492188 276.84375 463.585938 274.699219 462.097656 273.945312 " fill-opacity="1" fill-rule="nonzero"/><path fill="#9e110e" d="M 427.375 326.042969 C 428.320312 324.839844 428.246094 323.773438 427.691406 322.390625 C 426.625 319.710938 425.953125 314.796875 427.082031 312.007812 C 427.539062 310.867188 426.050781 309.566406 425.1875 310.691406 C 421.832031 315.023438 421.453125 322.617188 426.113281 326.160156 C 426.5 326.457031 427.066406 326.429688 427.375 326.042969 " fill-opacity="1" fill-rule="nonzero"/><path fill="#9e110e" d="M 427.738281 334.382812 C 427.6875 333.851562 426.949219 333.84375 426.902344 334.382812 C 426.617188 337.734375 426.042969 344.046875 430.292969 345.277344 C 430.84375 345.445312 431.355469 344.929688 431.222656 344.378906 C 430.816406 342.632812 429.347656 341.257812 428.667969 339.578125 C 428.003906 337.945312 427.898438 336.113281 427.738281 334.382812 " fill-opacity="1" fill-rule="nonzero"/><path fill="#9e110e" d="M 493.671875 398.382812 C 490.023438 396.441406 486.828125 396.804688 483.914062 393.21875 C 480.988281 389.605469 478.234375 385.980469 475.234375 382.378906 C 471.214844 377.550781 466.121094 373.550781 460.589844 370.628906 C 449.851562 364.949219 442.699219 359.617188 435.078125 349.664062 C 434.507812 348.917969 433.085938 349.503906 433.351562 350.460938 C 435.585938 358.496094 438.226562 363.273438 444.453125 369.058594 C 451.476562 375.597656 459.847656 378.65625 465.640625 386.671875 C 469.902344 392.570312 474.269531 398.941406 479.464844 404.0625 C 481.105469 405.675781 483.617188 406.582031 485.78125 407.136719 C 490.28125 408.304688 494.304688 410.496094 498.6875 411.925781 C 500.230469 412.433594 501.859375 410.914062 501.757812 409.386719 C 501.40625 403.953125 498.390625 400.890625 493.671875 398.382812 " fill-opacity="1" fill-rule="nonzero"/><path fill="#9e110e" d="M 643.546875 361.769531 C 642.195312 361.167969 640.824219 361.136719 639.5625 361.503906 C 636.238281 351.921875 630.921875 343.832031 622.253906 338.117188 C 618.09375 335.371094 615.359375 330.621094 612.042969 327.003906 C 608.277344 322.898438 605.113281 320.214844 600.574219 317.15625 C 596.648438 314.515625 590.667969 314.425781 586.152344 313.574219 C 579.082031 312.242188 573.417969 311.515625 567.582031 306.589844 C 558.226562 298.710938 545.65625 293.191406 533.980469 289.808594 C 526.332031 287.585938 518.097656 288.457031 511.320312 283.820312 C 507.035156 280.886719 501.761719 280.359375 497.628906 277.1875 C 490.210938 271.503906 477.269531 272.367188 468.78125 274.109375 C 466.511719 274.574219 466.238281 278.257812 468.625 278.773438 C 476.953125 280.578125 487.066406 280.65625 493.972656 286.28125 C 498.195312 289.714844 503.835938 289.984375 508.195312 293.660156 C 511.417969 296.371094 513.808594 297.800781 517.949219 298.796875 C 529.125 301.488281 539.113281 305.207031 549.097656 310.949219 C 559.429688 316.886719 566.277344 324.21875 578.210938 327.128906 C 589.167969 329.796875 596.394531 330.789062 603.570312 340.292969 C 605.96875 343.46875 608.605469 346.273438 611.453125 349.054688 C 614.695312 352.222656 620.589844 354.964844 622.425781 359.464844 C 624.023438 363.394531 625.566406 367.433594 626.921875 371.476562 C 627.191406 372.15625 627.402344 372.855469 627.644531 373.542969 C 625.742188 372.359375 623.613281 371.472656 621.597656 370.734375 C 615.328125 368.421875 616.058594 361.933594 610.773438 358.703125 C 606.007812 355.789062 600.957031 355.90625 595.527344 355.179688 C 587.851562 354.15625 580.109375 349.675781 573.640625 345.632812 C 570.886719 343.914062 567.523438 342.355469 564.1875 341.769531 C 564.058594 341.628906 563.941406 341.488281 563.800781 341.34375 C 558.550781 335.929688 550.746094 335.027344 544.8125 330.636719 C 542.460938 328.890625 539.09375 327.753906 536.410156 326.65625 C 532.09375 324.886719 530.625 319.65625 526.039062 318.027344 C 522.976562 316.9375 520.15625 316.304688 516.964844 315.871094 C 511.539062 315.125 507.105469 312.558594 501.8125 311.992188 C 501.128906 311.921875 500.855469 312.816406 501.261719 313.257812 C 506.621094 319.0625 510.5625 321.144531 518.253906 322.871094 C 526.382812 324.691406 522.804688 328.535156 525.984375 332.417969 C 528.292969 335.238281 531.113281 337.109375 533.734375 339.621094 C 535.671875 341.488281 537.433594 343.289062 539.394531 344.984375 C 543.171875 350.117188 549.746094 354.761719 556.277344 356.144531 C 557.011719 357.425781 557.675781 358.757812 558.367188 360.011719 C 560.121094 363.171875 563.980469 364.84375 566.769531 366.878906 C 569.480469 368.855469 572.53125 370.246094 575.144531 372.371094 C 577.703125 374.457031 579.6875 377.871094 582.390625 380.113281 C 586.734375 383.707031 590.417969 391.570312 596.785156 391.851562 C 599.664062 391.984375 601.613281 390.96875 603.902344 392.589844 C 606.234375 394.253906 608.324219 395.097656 611.082031 395.832031 C 617.296875 397.488281 618.5 405.429688 626.117188 404.582031 C 628.222656 404.347656 629.75 402.371094 629.988281 400.382812 C 630.007812 400.261719 629.988281 400.167969 630.003906 400.058594 C 630.359375 399.828125 630.679688 399.546875 630.976562 399.238281 C 630.070312 403.070312 628.390625 406.851562 626.871094 410.828125 C 626.074219 412.902344 626.4375 414.785156 627.386719 416.253906 C 620.730469 421.183594 612.375 425.464844 604.75 428.453125 C 599.214844 430.621094 590.195312 432.167969 584.386719 432.03125 C 580.488281 431.9375 577.203125 430.582031 573.746094 428.988281 C 568.367188 426.511719 563.324219 426.101562 557.484375 426.398438 C 551.660156 426.691406 546.648438 428.390625 540.816406 426.1875 C 538.171875 425.1875 536.488281 423.5 534.089844 422.324219 C 532.027344 421.316406 530.273438 419.34375 528.195312 418.207031 C 526.109375 417.066406 523.496094 417.035156 521.234375 416.308594 C 519.542969 415.769531 518.804688 418.257812 520.203125 419.082031 C 523.78125 421.191406 526.554688 427.058594 529.320312 430.222656 C 533.875 435.4375 542.683594 439.878906 549.578125 439.960938 C 556.503906 440.042969 563.367188 439.769531 569.648438 443.3125 C 573.257812 445.339844 576.542969 446.152344 580.613281 446.726562 C 588.925781 447.894531 598.386719 446.277344 606.359375 443.820312 C 612.078125 442.058594 621.78125 439.117188 625.519531 434.246094 C 630.710938 427.488281 638.449219 423.835938 644.40625 417.835938 C 644.335938 417.941406 644.28125 418.058594 644.199219 418.164062 C 642.664062 420.128906 640.355469 421.351562 638.824219 423.371094 C 637.796875 424.726562 636.796875 426.03125 636.226562 427.660156 C 634.109375 433.683594 628.480469 435.761719 624.332031 439.855469 C 621.515625 442.632812 623.640625 448.65625 627.949219 448.085938 C 635.644531 447.058594 643.8125 440.710938 646.5625 433.246094 C 647.988281 429.375 652.015625 427.378906 654.542969 424.296875 C 657.621094 420.535156 659.679688 414.378906 660.953125 409.777344 C 665.179688 394.433594 659.261719 368.761719 643.546875 361.769531 Z M 647.351562 390.058594 C 647.019531 388.488281 646.847656 386.878906 646.769531 385.25 C 647.597656 388.066406 648.09375 391.148438 648.300781 394.214844 C 647.957031 392.6875 647.609375 391.273438 647.351562 390.058594 " fill-opacity="1" fill-rule="nonzero"/><path fill="#b71c1c" d="M 467.15625 281.984375 C 464.664062 280.574219 462.113281 280.847656 459.476562 281.742188 C 457.273438 282.488281 455.925781 284.003906 453.527344 283.625 C 452.039062 283.394531 450.53125 283.507812 449.042969 283.628906 C 445.050781 283.949219 439.007812 286.535156 437.855469 290.753906 C 437.625 291.601562 438.644531 292.632812 439.410156 291.859375 C 443.425781 287.773438 450.800781 285.136719 456.324219 284.875 C 458.195312 284.789062 459.839844 283.957031 461.722656 284.042969 C 463.929688 284.140625 465.136719 284.535156 467.140625 283.6875 C 467.933594 283.34375 467.828125 282.359375 467.15625 281.984375 " fill-opacity="1" fill-rule="nonzero"/><path fill="#b71c1c" d="M 476.515625 283.222656 C 476.242188 282.960938 475.855469 283.460938 476.160156 283.703125 C 476.765625 284.199219 477.511719 284.402344 478.113281 284.898438 C 478.324219 285.066406 478.574219 284.761719 478.382812 284.578125 C 477.8125 284.035156 477.082031 283.761719 476.515625 283.222656 " fill-opacity="1" fill-rule="nonzero"/><path fill="#b71c1c" d="M 503.964844 290.445312 C 501.878906 289.847656 499.617188 289.785156 497.570312 289.03125 C 495.824219 288.390625 494.429688 287.167969 492.652344 286.566406 C 491.355469 286.128906 490.5625 287.554688 491.054688 288.589844 C 491.042969 288.589844 491.023438 288.589844 491.011719 288.589844 C 491.078125 288.691406 491.15625 288.78125 491.226562 288.882812 L 491.230469 288.898438 C 491.273438 288.9375 491.304688 288.984375 491.324219 289.042969 C 491.335938 289.0625 491.363281 289.074219 491.375 289.089844 C 492.410156 290.554688 493.472656 291.972656 494.75 293.242188 C 496.070312 294.550781 498.59375 294.914062 500.296875 295.425781 C 503.410156 296.375 507.160156 297.367188 510.421875 296.945312 C 511.316406 296.832031 511.804688 295.574219 511.324219 294.855469 C 509.660156 292.367188 506.757812 291.25 503.964844 290.445312 " fill-opacity="1" fill-rule="nonzero"/><path fill="#b71c1c" d="M 653.214844 388.992188 C 652.640625 387 649.664062 387.710938 649.441406 389.53125 C 649.078125 392.496094 648.722656 395.40625 648.324219 398.371094 C 647.980469 400.914062 647.757812 403.488281 646.960938 405.9375 C 646.855469 406.273438 646.636719 406.59375 646.34375 406.898438 C 646.414062 406.570312 646.488281 406.25 646.539062 405.933594 C 647.320312 400.855469 648.226562 397.445312 646.1875 392.46875 C 643.273438 385.351562 642.3125 379.511719 642.058594 371.933594 C 641.710938 361.628906 634.777344 351.894531 626.214844 346.660156 C 626.203125 346.648438 626.195312 346.648438 626.1875 346.644531 C 621.78125 341.707031 616.203125 337.351562 611.972656 333.15625 C 605 326.226562 598.167969 322.128906 589.367188 317.847656 C 583.914062 315.195312 577.578125 314.191406 571.929688 311.882812 C 565.5625 309.28125 559.242188 306.714844 552.894531 303.957031 C 549.414062 302.453125 546.570312 300.890625 542.78125 300.003906 C 537.117188 298.683594 530.214844 300.59375 524.949219 298.890625 C 524.390625 298.710938 523.894531 299.34375 524.367188 299.785156 C 530.292969 305.316406 538.910156 306.148438 544.703125 311.449219 C 553.171875 319.195312 565.488281 323.996094 576.226562 327.777344 C 586.179688 331.28125 594.105469 334.367188 601.699219 341.976562 C 601.761719 342.035156 601.820312 342.101562 601.878906 342.160156 C 603.074219 344 604.300781 345.828125 605.605469 347.628906 C 610.929688 354.972656 620.328125 357.761719 624.835938 365.972656 C 625.492188 367.167969 625.992188 368.328125 626.421875 369.472656 C 625.714844 370.296875 625.203125 371.269531 625.015625 372.3125 C 623.75 379.25 626.308594 385.101562 626.550781 391.902344 C 626.730469 397.003906 628.832031 404.640625 632.738281 408.667969 C 631.867188 409.5 630.917969 410.300781 629.882812 411.0625 C 626.644531 413.445312 628.054688 417.769531 631.574219 418.785156 C 635.710938 419.972656 639.644531 417.832031 642.457031 414.523438 C 643.382812 416.292969 645.410156 417.566406 647.503906 417.402344 C 647.390625 417.453125 647.28125 417.507812 647.164062 417.558594 C 648.046875 417.515625 648.859375 417.257812 649.601562 416.78125 C 650.539062 416.171875 651.53125 415.261719 652.347656 414.507812 C 655.203125 411.871094 656.257812 408.769531 656.457031 404.957031 C 656.757812 399.324219 654.714844 394.207031 653.214844 388.992188 " fill-opacity="1" fill-rule="nonzero"/><path fill="#3a0100" d="M 674.226562 387.921875 C 673.132812 373.363281 671.457031 355.738281 661.972656 343.875 C 655.808594 336.179688 647.332031 330.003906 639.667969 323.910156 C 630.265625 316.582031 621.421875 312.371094 612.011719 305.058594 C 596.1875 292.765625 575.292969 294.488281 556.167969 290.339844 C 573.789062 297.253906 593.601562 297.714844 607.464844 311.199219 C 622.445312 325.761719 638.460938 336.375 651.855469 352.410156 C 656.800781 358.441406 657.59375 372.375 658.179688 380.597656 C 658.847656 390.039062 658.75 399.65625 657.566406 409.050781 C 656.707031 415.878906 656.519531 423.3125 650.863281 428.054688 C 644.554688 433.335938 635.785156 438.25 628.644531 442.488281 C 615.503906 450.289062 604.410156 453.070312 589.769531 450.476562 C 570.875 447.125 550.164062 449.109375 532.609375 440.195312 C 524.039062 435.84375 517.546875 427.929688 510.210938 421.878906 C 503.054688 415.976562 495.644531 410.417969 488.101562 405.023438 C 464.308594 388.023438 441.246094 371.308594 425.167969 346.070312 C 415.839844 332.375 406.671875 321.695312 408.074219 304.097656 C 409.367188 287.816406 422.339844 273.234375 432.378906 261.191406 C 419.421875 272.429688 404 286.316406 401.117188 304.066406 C 398.652344 319.304688 402.363281 330.011719 409.71875 343.019531 C 424.941406 369.726562 443.21875 391.832031 467.441406 410.605469 C 483.117188 422.753906 498.007812 435.25 512.589844 448.679688 C 527.773438 462.667969 548.632812 465.324219 568.335938 467.128906 C 583.894531 468.550781 599.683594 473.632812 615.105469 469.074219 C 630.671875 464.476562 643.304688 454.65625 656.488281 445.660156 C 655.386719 446.363281 656.535156 445.699219 655.273438 446.035156 C 676.972656 440.347656 675.414062 404.867188 674.226562 387.921875 Z M 651.214844 428.6875 C 651.25 428.660156 651.207031 428.683594 651.3125 428.648438 C 651.28125 428.65625 651.246094 428.675781 651.214844 428.6875 " fill-opacity="1" fill-rule="nonzero"/><path fill="#c11717" d="M 640.855469 377.691406 C 640.351562 377.496094 639.671875 377.96875 639.949219 378.539062 C 640.097656 378.855469 640.234375 379.214844 640.503906 379.449219 C 640.636719 379.558594 641.402344 380.015625 641.40625 380.191406 C 641.453125 381.746094 643.765625 381.496094 643.523438 379.949219 C 643.320312 378.613281 641.96875 378.117188 640.855469 377.691406 " fill-opacity="1" fill-rule="nonzero"/><path fill="#c11717" d="M 631 369.582031 C 631.570312 367.175781 632.089844 364.503906 630.46875 362.90625 C 628.957031 361.417969 628.5625 361.066406 627.480469 360.507812 C 625.664062 356.019531 626.25 351.464844 620.535156 351.070312 C 618.992188 350.964844 617.75 352.132812 617.324219 353.519531 C 616.339844 352.023438 615.621094 350.210938 614.671875 347.640625 C 613.34375 344.039062 609.527344 340.503906 606.792969 338.078125 C 602.664062 334.402344 598.695312 330.328125 594.09375 327.269531 C 589.980469 324.535156 587.652344 321.230469 582.550781 320.949219 C 579.941406 320.800781 579.636719 324.34375 582.101562 324.902344 C 585.375 325.652344 589.425781 329.03125 593.023438 332.519531 C 592.960938 332.488281 592.894531 332.460938 592.835938 332.4375 C 590.234375 331.253906 588.582031 334.875 590.914062 336.328125 C 596.289062 339.679688 601.058594 347.664062 604.925781 352.605469 C 608.195312 356.789062 611.042969 360.707031 613.367188 365.199219 C 614.066406 367.589844 614.578125 369.945312 614.84375 372.171875 C 615.238281 375.515625 615.460938 378.390625 615.175781 381.054688 C 614.535156 381.722656 613.886719 382.386719 613.296875 383.109375 C 611.476562 385.304688 610.738281 388.179688 609.925781 389.066406 C 607.015625 392.257812 602.511719 392.90625 600.082031 396.785156 C 597.679688 400.632812 595.753906 404.316406 595.613281 408.902344 C 595.5 412.578125 599.96875 413.679688 602.339844 411.539062 C 613.230469 401.703125 630 401.796875 632.566406 385.042969 C 633.425781 379.457031 632.574219 374.476562 631 369.582031 Z M 619.769531 363.539062 C 620.140625 364.460938 620.488281 365.414062 620.75 366.457031 C 621.117188 367.898438 621.355469 369.539062 621.375 371.199219 C 621.351562 371.152344 621.328125 371.101562 621.308594 371.058594 C 620.949219 368.457031 620.441406 365.898438 619.769531 363.539062 " fill-opacity="1" fill-rule="nonzero"/><path fill="#d11818" d="M 646.035156 389.289062 C 642.886719 386.1875 639.195312 384.289062 634.648438 385.667969 C 630.410156 386.949219 625.828125 389.507812 621.691406 391.292969 C 617.167969 393.238281 613.132812 394.648438 608.34375 395.941406 C 606.28125 396.496094 605.34375 398.703125 604.636719 400.445312 C 603 404.476562 600.253906 406.828125 597.839844 410.28125 C 593.511719 416.445312 594.089844 425.179688 597.945312 431.394531 C 599.207031 433.421875 601.90625 432.726562 602.292969 430.46875 C 603.453125 423.777344 601.949219 417.710938 606.929688 412.199219 C 609.292969 409.597656 610.628906 407.125 611.128906 403.609375 C 611.703125 399.585938 619.546875 399.730469 622.597656 397.800781 C 628.496094 394.070312 637.800781 390.480469 644.734375 391.726562 C 645.960938 391.945312 646.945312 390.1875 646.035156 389.289062 " fill-opacity="1" fill-rule="nonzero"/><path fill="#d11818" d="M 630.054688 374.726562 C 627.707031 371.210938 628.589844 366.941406 626.125 363.5625 C 623.234375 359.597656 619.78125 352.839844 615.195312 350.644531 C 610.269531 348.28125 608.945312 342.335938 604.117188 340.625 C 601.34375 339.644531 598.542969 338.90625 595.714844 338.117188 C 595.601562 338.082031 595.5625 338.253906 595.671875 338.292969 C 602.652344 340.582031 605.550781 343.710938 608.425781 350.320312 C 608.898438 351.402344 609.507812 352.617188 610.480469 353.320312 C 614.828125 356.488281 616.894531 361.34375 620.035156 365.511719 C 622.4375 368.679688 621.765625 370.632812 622.808594 373.730469 C 623.644531 376.210938 625.789062 378.136719 625.914062 380.816406 C 625.949219 381.453125 623.429688 385.945312 623.375 386.0625 C 622.671875 387.492188 623.925781 391.082031 623.886719 392.472656 C 623.867188 393.371094 624.910156 393.996094 625.558594 393.203125 C 629.289062 388.660156 631.199219 384.058594 631.484375 378.351562 C 631.542969 377.152344 630.691406 375.675781 630.054688 374.726562 " fill-opacity="1" fill-rule="nonzero"/><path fill="#3a0100" d="M 650.535156 397.160156 C 644.183594 395.589844 643.4375 401.054688 637.644531 401.503906 C 631.28125 402.003906 626.585938 406.25 621.460938 409.820312 C 619.03125 411.507812 618.652344 417.691406 617.113281 420.058594 C 615.773438 422.121094 615.640625 425.078125 616.007812 428.019531 C 614.300781 430.902344 612.992188 433.488281 613.582031 437.703125 C 614.128906 441.613281 619.285156 443.261719 622.570312 442.835938 C 627.453125 442.203125 631.132812 438.230469 634.769531 435.214844 C 637.449219 432.996094 639.058594 430.242188 642.488281 428.765625 C 644.699219 427.816406 647.589844 426.933594 649.015625 424.78125 C 651.546875 420.949219 659.105469 399.273438 650.535156 397.160156 " fill-opacity="1" fill-rule="nonzero"/><path fill="#562202" d="M 651.390625 402.378906 C 650.90625 398.871094 647.171875 397.984375 644.507812 399.621094 C 640.898438 401.835938 635.164062 401.464844 631.21875 402.074219 C 629.824219 402.289062 627.765625 403.363281 627 404.59375 C 625.601562 406.816406 623.09375 406.980469 621.476562 408.863281 C 619.894531 410.710938 618.269531 414.058594 617.988281 416.535156 C 617.746094 418.703125 618.558594 421.53125 619.0625 424.25 C 618.511719 426.484375 618.449219 428.5625 618.917969 430.230469 C 618.703125 430.710938 618.421875 431.152344 618.03125 431.542969 C 617.507812 432.0625 617.25 432.828125 617.449219 433.550781 C 617.515625 433.789062 617.582031 434.035156 617.644531 434.28125 C 618.230469 436.425781 620.980469 435.398438 621.421875 433.789062 C 621.007812 435.300781 621.585938 434.546875 622.367188 433.789062 C 623.800781 434.167969 625.65625 434.027344 627.984375 433.179688 C 631.808594 431.785156 634.398438 428.875 636.398438 425.453125 C 636.640625 425.035156 636.820312 424.546875 636.980469 424.039062 C 638.34375 423.265625 639.71875 422.511719 641.132812 421.8125 C 643.074219 420.863281 644.597656 418.597656 644.597656 416.414062 C 644.597656 415.160156 644.597656 413.660156 644.378906 412.214844 C 648.480469 409.996094 651.992188 406.6875 651.390625 402.378906 " fill-opacity="1" fill-rule="nonzero"/><path fill="#ffffff" d="M 423.519531 531.527344 C 423.320312 531.519531 403.589844 530.628906 390.652344 531.503906 C 388.988281 531.617188 387.445312 531.757812 386.074219 531.9375 C 384.238281 532.183594 381.921875 532.398438 379.179688 532.582031 C 361.328125 533.785156 325.417969 533.679688 311.984375 530.785156 C 296.4375 527.417969 274.582031 515.851562 259.808594 505.871094 C 240.230469 492.636719 233.738281 463.570312 232.636719 457.878906 C 230.6875 447.796875 227.421875 430.914062 244.636719 412.980469 C 254.527344 402.675781 288.433594 376.652344 309.476562 375.230469 L 310.289062 375.1875 C 316.605469 374.960938 324.910156 375.058594 334.515625 375.164062 C 346.902344 375.3125 360.933594 375.464844 373.667969 374.945312 C 386.402344 374.421875 399.386719 372.894531 412.339844 376.710938 C 429.464844 381.753906 447.304688 375.292969 464.722656 376.632812 C 480.003906 377.800781 498.015625 384.652344 509.179688 394.574219 C 510.589844 395.824219 543.992188 430.925781 538.464844 450.914062 C 538.042969 452.433594 537.957031 454.589844 537.84375 457.089844 C 537.414062 467.324219 536.75 482.742188 512.652344 497.390625 C 507.4375 501.351562 471.074219 527.785156 425.023438 531.503906 L 424.273438 531.5625 L 423.519531 531.527344 " fill-opacity="1" fill-rule="nonzero"/><g clip-path="url(#b1c29191a0)"><path fill="#6c0f04" d="M 511.199219 497.8125 C 511.199219 497.8125 472.84375 528.402344 424.3125 532.324219 C 424.3125 532.324219 396.152344 530.976562 382.371094 532.820312 C 368.597656 534.65625 322.523438 534.832031 308.164062 531.667969 C 293.800781 528.503906 271.84375 516.78125 257.070312 506.636719 C 242.300781 496.5 235.023438 473.101562 232.902344 462.019531 C 230.78125 450.941406 228.835938 437.886719 242.75 423.171875 C 256.65625 408.457031 288.800781 383.882812 303.738281 383.355469 C 318.671875 382.820312 346.816406 384.144531 370.980469 383.160156 C 395.148438 382.175781 427.257812 401.007812 446.347656 396.46875 C 465.429688 391.929688 497.007812 401.46875 506.675781 410.183594 C 516.335938 418.921875 537.214844 442.449219 534.050781 454.085938 C 530.890625 465.722656 538.753906 481.105469 511.199219 497.8125 " fill-opacity="1" fill-rule="nonzero"/></g><path fill="#510600" d="M 479.253906 446.910156 C 474.035156 442.574219 466.828125 442.902344 460.46875 443.636719 C 449.109375 444.929688 438.855469 446.308594 428.777344 439.40625 C 421.1875 434.199219 413.050781 431.617188 403.914062 434.203125 C 396.671875 436.253906 387.746094 433.894531 380.355469 434.390625 C 364.84375 435.421875 351.074219 444.914062 335.902344 436.570312 C 332.246094 434.5625 329.136719 439.816406 332.089844 442.277344 C 342.8125 451.214844 356.171875 451.410156 369.734375 452.539062 C 374.320312 452.917969 379.347656 458.039062 383.746094 459.703125 C 389.28125 461.796875 395.363281 461.484375 401.210938 461.441406 C 414.589844 461.347656 427.476562 459.242188 440.265625 461.273438 C 445.484375 462.105469 450.085938 461.980469 455.367188 461.660156 C 459.902344 461.390625 480.335938 462.730469 487.125 467.285156 C 486.320312 467.910156 485.566406 468.597656 484.796875 469.265625 C 476.210938 468.394531 468.480469 472.847656 460.195312 475.34375 C 447.742188 479.089844 437.550781 477.910156 425.011719 477.214844 C 414.136719 476.601562 403.210938 476.332031 392.320312 476.519531 C 387.542969 476.601562 386.050781 477.269531 381.402344 478.320312 C 372.921875 480.234375 365.792969 474.847656 359.078125 470.835938 C 355.347656 468.601562 350.925781 467.273438 346.515625 467.191406 C 339.992188 467.0625 336.933594 460.738281 331.023438 459.199219 C 324.046875 457.382812 312.734375 463.148438 307.617188 459.046875 C 302.164062 454.675781 296.074219 454.972656 289.390625 454.707031 C 280.351562 454.339844 271.167969 450.308594 262.085938 448.839844 C 261.722656 448.785156 261.488281 449.113281 261.582031 449.421875 C 264.882812 460.964844 277.898438 471.640625 289.894531 474.828125 C 292.671875 475.566406 297.773438 480.949219 300.105469 482.488281 C 303.09375 484.457031 306.335938 484.546875 309.828125 484.761719 C 314.945312 485.078125 320.179688 483.003906 325.335938 481.558594 C 327.019531 482.792969 328.53125 483.882812 330.253906 484.746094 C 320.246094 485.359375 319.136719 497.234375 326.546875 501.972656 C 340.125 510.664062 361.984375 509.714844 377.863281 511.222656 C 388.132812 512.207031 398.21875 509.957031 407.375 505.742188 C 412.039062 503.605469 416.320312 501.023438 420.550781 498.207031 C 428.824219 492.691406 433.71875 495.554688 441.367188 497.890625 C 456.09375 502.367188 465.375 494.964844 479.359375 493.625 C 488.636719 492.738281 501.429688 480.597656 501.199219 471.1875 C 500.921875 460.003906 487.296875 453.589844 479.253906 446.910156 " fill-opacity="1" fill-rule="nonzero"/><path fill="#510600" d="M 322.617188 410.019531 C 334.5625 412.347656 346.078125 413.082031 358.203125 411.632812 C 362.625 411.105469 367.25 408.933594 371.410156 407.511719 C 379.152344 404.855469 384.359375 407.339844 391.480469 408.605469 C 402.882812 410.632812 415.445312 407.269531 426.164062 412.097656 C 433.121094 415.234375 437.917969 416.367188 444.855469 413.414062 C 446.359375 412.773438 446.980469 410.484375 446.03125 409.230469 C 433.09375 392.285156 406.160156 400.523438 388.253906 397.367188 C 379.492188 395.820312 371.992188 398.550781 363.9375 401.660156 C 350.332031 406.917969 337.628906 407.113281 323.410156 405.011719 C 319.976562 404.503906 319.261719 409.363281 322.617188 410.019531 " fill-opacity="1" fill-rule="nonzero"/><path fill="#510600" d="M 509.234375 429.859375 C 505.980469 423.171875 498.273438 418.875 492.441406 414.375 C 485.695312 409.167969 478.09375 408.292969 470.300781 405.003906 C 464.542969 402.582031 461.808594 410.683594 466.035156 413.820312 C 467.59375 414.984375 468.703125 416.789062 470.378906 417.824219 C 474.511719 420.375 478.179688 422.777344 481.71875 426.070312 C 487.246094 431.21875 492.886719 437.300781 500.550781 439.40625 C 506.652344 441.085938 511.910156 435.332031 509.234375 429.859375 " fill-opacity="1" fill-rule="nonzero"/><path fill="#510600" d="M 278.464844 487.3125 C 272.242188 484.648438 270.109375 481.125 266.078125 476.503906 C 261.863281 471.683594 255.285156 469.601562 250.878906 464.742188 C 249.921875 463.679688 248.0625 465.160156 248.90625 466.28125 C 252.539062 471.128906 256.84375 475.058594 259.484375 480.589844 C 261.894531 485.625 264.117188 490.457031 269.464844 493.246094 C 279.386719 498.410156 290.410156 501.765625 301.773438 502.621094 C 303.660156 502.765625 304.386719 500.636719 303.351562 499.398438 C 297.410156 492.328125 286.722656 490.851562 278.464844 487.3125 " fill-opacity="1" fill-rule="nonzero"/><path fill="#840c03" d="M 473.875 417.097656 C 466.488281 417.003906 461.199219 417.53125 454.789062 413.761719 C 450.320312 411.136719 445.089844 410.746094 440.003906 410.402344 C 433.949219 409.996094 427.949219 410.832031 421.878906 410.421875 C 412.875 409.816406 409.601562 404.199219 402.164062 401.503906 C 390.34375 397.214844 378.960938 402.796875 367.058594 399.996094 C 355.339844 397.234375 343.910156 395.378906 331.796875 395.347656 C 319.726562 395.320312 306.394531 393.609375 297.199219 402.019531 C 292 406.78125 284.53125 409.332031 277.988281 412.179688 C 269.058594 416.066406 263.859375 426.589844 254.1875 429.128906 C 250.96875 429.96875 251.480469 434.722656 254.960938 434.132812 C 260.964844 433.125 266.523438 430.796875 271.566406 427.578125 C 279.578125 422.460938 283.738281 418.664062 294.441406 419.601562 C 298.289062 419.941406 302.804688 418.101562 305.453125 415.46875 C 311.128906 409.832031 334.78125 410.210938 341.550781 413.515625 C 353.285156 419.226562 364.109375 424.671875 377.136719 427.277344 C 380.382812 427.929688 385.242188 426.488281 388.207031 425.277344 C 395.9375 422.121094 399.042969 421.222656 406.546875 424.070312 C 414.515625 427.089844 426.46875 425.589844 434.851562 424.992188 C 444.941406 424.269531 452.332031 430.804688 461.785156 429.671875 C 471.347656 428.527344 475.355469 426.28125 485.824219 428.277344 C 495.324219 430.089844 494.628906 434.933594 498.902344 440.671875 C 501.875 444.65625 508.574219 443.410156 508.710938 438.160156 C 509.207031 419.800781 489.101562 417.289062 473.875 417.097656 " fill-opacity="1" fill-rule="nonzero"/><path fill="#840c03" d="M 471.082031 447.320312 C 449.425781 456.851562 424.515625 434.019531 402.285156 442.75 C 399.46875 443.855469 399.214844 447.589844 402.03125 448.875 C 409.398438 452.246094 415.785156 457.195312 423.058594 460.777344 C 423.578125 461.03125 424.132812 461.242188 424.671875 461.46875 C 420.757812 463.308594 416.972656 465.242188 413.40625 466.914062 C 402.179688 472.207031 387.398438 469.523438 375.421875 467.964844 C 366.433594 466.789062 353.867188 466.875 345.117188 464.488281 C 343.796875 464.132812 343.148438 465.816406 344 466.597656 C 358.726562 480.324219 384.460938 477.933594 403.097656 482.652344 C 415.0625 485.675781 427.429688 481.734375 439.460938 480.890625 C 446.160156 480.417969 453.761719 482.210938 460.5625 482.601562 C 470.804688 483.183594 475.515625 480.199219 484.464844 475.140625 C 488.320312 472.964844 489.960938 469.898438 490.046875 466.753906 C 492.210938 467.214844 494.472656 467.875 496.992188 468.746094 C 503.210938 470.90625 510.496094 465.058594 510.117188 459.058594 C 509.21875 444.792969 481.59375 442.691406 471.082031 447.320312 " fill-opacity="1" fill-rule="nonzero"/><path fill="#a30400" d="M 254.878906 434.089844 C 259.898438 430.84375 263.316406 427.882812 269.597656 426.550781 C 273.4375 425.738281 275.734375 423.179688 278.816406 421.007812 C 283.007812 418.050781 286.160156 414.996094 291.0625 412.9375 C 293.273438 412.003906 295.46875 411.085938 297.414062 409.710938 C 303.039062 405.742188 307.253906 403.457031 314.675781 403.207031 C 318.625 403.070312 322.679688 401.304688 326.050781 399.488281 C 329.804688 397.472656 338.015625 399.78125 342.515625 399.582031 C 346.363281 399.414062 350.03125 398.589844 353.339844 396.75 C 354.308594 396.210938 354.347656 394.605469 353.238281 394.164062 C 349.671875 392.753906 346.625 393.078125 342.679688 392.664062 C 338.070312 392.183594 332.90625 391.054688 328.246094 391.007812 C 323.8125 390.96875 319.507812 391.855469 315.074219 391.585938 C 309.238281 391.234375 304.660156 390.527344 299.371094 393.148438 C 294.867188 395.371094 291.542969 399.554688 287.359375 402.285156 C 281.621094 406.023438 276.472656 409.195312 271.5 413.941406 C 268.007812 417.273438 265.109375 419.683594 261.085938 422.445312 C 257.285156 425.066406 253.195312 430.863281 248.695312 431.957031 C 248.074219 432.109375 247.699219 432.765625 247.875 433.34375 C 247.953125 433.589844 248.023438 433.820312 248.097656 434.054688 C 248.335938 434.835938 249.722656 434.789062 249.953125 434.035156 C 249.46875 435.636719 255.214844 433.871094 254.878906 434.089844 " fill-opacity="1" fill-rule="nonzero"/><path fill="#a30400" d="M 370.636719 400.585938 C 376.054688 401.28125 381.425781 403.808594 386.785156 403.316406 C 387.726562 403.226562 388.601562 402.429688 388.261719 401.46875 C 386.355469 395.984375 381.148438 394.96875 375.53125 394.203125 C 372.960938 393.855469 370.347656 393.765625 367.761719 393.476562 C 364.5 393.117188 362.742188 394.007812 359.699219 394.492188 C 358.910156 394.617188 358.539062 395.597656 359.089844 396.15625 C 362.117188 399.203125 366.28125 400.027344 370.636719 400.585938 " fill-opacity="1" fill-rule="nonzero"/><path fill="#a30400" d="M 504.628906 419.636719 C 501.800781 415.800781 499.738281 413.105469 495.84375 410.175781 C 490.386719 406.070312 478.546875 407.625 472.402344 406.808594 C 468.683594 406.304688 463.613281 405.488281 460.199219 403.695312 C 458.144531 402.617188 456 400.84375 453.710938 400.214844 C 448.320312 398.75 443.203125 398.765625 437.617188 398.808594 C 426.679688 398.894531 415.5625 402.238281 404.679688 401.203125 C 402.554688 400.996094 400.296875 403.453125 402.027344 405.28125 C 407.621094 411.183594 417.839844 409.902344 425.328125 409.609375 C 431.34375 409.378906 437.199219 408.691406 443.238281 408.785156 C 450.175781 408.90625 454.816406 413.527344 461.207031 415.101562 C 467.648438 416.679688 474.097656 417.609375 480.730469 418.28125 C 489.71875 419.203125 490.269531 421.101562 494.710938 427.347656 C 500.371094 435.308594 503.21875 442.457031 512.777344 447.03125 C 515.246094 448.21875 518.40625 446.355469 518.199219 443.683594 C 517.496094 434.753906 509.929688 426.835938 504.628906 419.636719 " fill-opacity="1" fill-rule="nonzero"/><path fill="#a30400" d="M 331.667969 464.957031 C 331.796875 464.957031 331.8125 464.769531 331.679688 464.769531 C 331.550781 464.769531 331.539062 464.957031 331.667969 464.957031 " fill-opacity="1" fill-rule="nonzero"/><path fill="#a30400" d="M 467.878906 421.984375 C 463.75 420.5 459.171875 419.695312 454.875 418.714844 C 449.519531 417.488281 444.121094 415.6875 438.824219 417.292969 C 437.835938 417.585938 437.632812 418.996094 438.625 419.429688 C 445.640625 422.527344 454.449219 422.132812 461.980469 423.875 C 471.050781 425.972656 475.515625 432.9375 483.519531 436.355469 C 485.335938 437.128906 486.464844 434.988281 485.265625 433.757812 C 479.957031 428.316406 475.402344 424.683594 467.878906 421.984375 " fill-opacity="1" fill-rule="nonzero"/><path fill="#a30400" d="M 430.214844 418.851562 C 430.851562 419.0625 431.308594 418.289062 430.695312 417.945312 C 429.257812 417.148438 427.003906 416.476562 425.457031 417.34375 C 425.089844 417.550781 425.183594 418.035156 425.507812 418.214844 C 426.886719 418.992188 428.714844 418.355469 430.214844 418.851562 " fill-opacity="1" fill-rule="nonzero"/><path fill="#a30400" d="M 420.570312 418.484375 C 421.339844 418.378906 421.339844 417.203125 420.601562 417.046875 C 406.480469 414.125 391.085938 411.679688 376.519531 412.976562 C 375.527344 413.0625 375.320312 414.628906 376.328125 414.867188 C 390.257812 418.117188 406.292969 420.523438 420.570312 418.484375 " fill-opacity="1" fill-rule="nonzero"/><path fill="#3d0400" d="M 501.800781 391.183594 C 484.074219 377.816406 457.289062 374.699219 436.082031 379.328125 C 419.527344 383.597656 399.21875 374.523438 382.570312 371.894531 C 382.265625 371.835938 381.953125 371.78125 381.644531 371.738281 C 392.941406 375.367188 403.828125 380.175781 415.183594 383.648438 C 425.378906 386.769531 433.820312 386.15625 444.226562 385.824219 C 459.113281 385.34375 480.949219 389.953125 492.414062 400.160156 C 501.542969 407.40625 517.152344 424.734375 517.746094 437.0625 C 518.15625 440.953125 516.492188 445.859375 516.128906 449.8125 C 514.738281 472.15625 486.496094 485.375 468.167969 493.96875 C 451.503906 502.242188 433.621094 506.855469 415.261719 509.082031 C 377.242188 507.628906 339.292969 514.582031 301.320312 510.09375 C 284.84375 506.152344 264.34375 497.347656 250.125 486.371094 C 236.625 477.527344 237.292969 462.207031 234.535156 447.164062 C 230.785156 426.707031 244.71875 414.042969 257.742188 400.601562 C 247.960938 407.6875 237.070312 415.023438 231.257812 425.980469 C 225.042969 437.601562 224.84375 451.257812 227.746094 463.589844 C 232.125 482.460938 235.628906 492.09375 251.542969 502.828125 C 275.664062 519.101562 296.648438 527.238281 325.175781 528.75 C 347.125 529.707031 368.667969 527.722656 390.535156 527.558594 C 405.160156 527.453125 418.664062 528.339844 433.035156 525.742188 C 459.859375 520.878906 486.855469 508.03125 508.191406 491.121094 C 513.597656 486.8125 525.753906 477.980469 529.84375 467.226562 C 532.640625 460.1875 532.21875 452.976562 532.789062 445.617188 C 535.257812 423.542969 518.441406 404.277344 501.800781 391.183594 " fill-opacity="1" fill-rule="nonzero"/><path fill="#840c03" d="M 445.238281 499.023438 C 436.957031 498.523438 428.730469 499.867188 420.847656 502.246094 C 409.914062 505.550781 401.691406 506.296875 390.320312 504.726562 C 379.34375 503.210938 370.453125 499.988281 360.410156 495.773438 C 352.136719 492.300781 342.691406 494.816406 334.023438 494.390625 C 321.644531 493.789062 311.613281 491.964844 301.363281 485.125 C 294.398438 480.476562 281.316406 478.089844 272.863281 476.121094 C 268.074219 475.007812 264.816406 471.570312 259.765625 471.585938 C 252.027344 471.609375 251.664062 458.578125 250.214844 453.65625 C 249.769531 452.160156 247.445312 452.953125 247.824219 454.429688 C 249.363281 460.359375 249.097656 467.757812 253.050781 472.984375 C 254.582031 475.011719 254.699219 475.042969 257.3125 475.699219 C 261.71875 476.800781 263.242188 479.722656 266.953125 482.269531 C 274.585938 487.511719 283.464844 491.828125 292.222656 495.125 C 298.09375 497.339844 303.125 502.046875 309.289062 504.339844 C 314.085938 506.128906 318.792969 506.839844 323.902344 507.121094 C 336.226562 507.789062 348.972656 500.066406 360.695312 504.042969 C 368.5 506.691406 378.773438 507.261719 387.082031 507.921875 C 396.34375 508.660156 404.90625 511.722656 414.253906 510.171875 C 419.476562 509.304688 424.015625 507.109375 429.191406 505.914062 C 434.660156 504.644531 440.320312 504.464844 445.804688 503.1875 C 448.375 502.59375 447.695312 499.171875 445.238281 499.023438 " fill-opacity="1" fill-rule="nonzero"/><path fill="#840c03" d="M 479.914062 474.195312 C 471.894531 477.203125 463.710938 480.410156 456.570312 485.035156 C 447.816406 490.707031 437.761719 485.148438 427.984375 485.582031 C 423.871094 485.769531 419.882812 486.449219 415.863281 487.296875 C 411.164062 488.289062 409.269531 483.914062 405.097656 484.457031 C 392.566406 486.105469 381.785156 490.40625 368.875 487.191406 C 368.066406 486.988281 367.597656 488.003906 368.386719 488.359375 C 378.132812 492.660156 387.550781 494.808594 398.394531 495.816406 C 401.472656 496.105469 402.546875 494.886719 404.738281 496.796875 C 406.054688 497.945312 408.285156 498.9375 410.0625 499.132812 C 414.960938 499.664062 419.472656 499.207031 424.109375 497.582031 C 430.585938 495.308594 437.664062 493.273438 444.488281 492.039062 C 447.886719 491.425781 451.871094 492.128906 455.121094 491.101562 C 460.984375 489.253906 466.257812 486.113281 472.09375 484.136719 C 476.589844 482.613281 479.886719 481.261719 482.773438 477.726562 C 484.277344 475.878906 482.160156 473.355469 479.914062 474.195312 " fill-opacity="1" fill-rule="nonzero"/><path fill="#a30400" d="M 307.195312 487.265625 C 305.300781 485.367188 302.996094 484.496094 300.617188 483.21875 C 296.726562 481.140625 294.515625 477.800781 291.242188 475.101562 C 287.121094 471.710938 281.742188 470.019531 277.171875 467.277344 C 276.179688 466.683594 275.164062 467.726562 275.78125 468.636719 C 277.613281 471.335938 279.332031 474.054688 281.121094 476.738281 C 282.300781 478.519531 286.59375 480.453125 288.328125 481.757812 C 293.054688 485.292969 299.917969 492.277344 306.632812 489.859375 C 307.847656 489.421875 308.042969 488.121094 307.195312 487.265625 " fill-opacity="1" fill-rule="nonzero"/><path fill="#bf1313" d="M 342.332031 397.730469 C 338.609375 395.429688 333.535156 396.371094 329.382812 396.167969 C 326.675781 396.039062 324.089844 395.050781 321.398438 395.492188 C 319.433594 395.820312 318.886719 398.261719 320.769531 399.140625 C 322.273438 399.839844 323.730469 401.074219 325.429688 401.375 C 327.089844 401.664062 328.746094 401.886719 330.433594 402.007812 C 334.355469 402.289062 338.917969 402.941406 342.351562 400.859375 C 343.457031 400.191406 343.398438 398.386719 342.332031 397.730469 " fill-opacity="1" fill-rule="nonzero"/><path fill="#510600" d="M 477.089844 414.386719 C 472.179688 414.132812 469.839844 409.257812 464.902344 408.539062 C 457.300781 407.433594 449.824219 408.347656 442.214844 407.875 C 435.347656 407.449219 428.046875 406.574219 421.480469 404.679688 C 420.035156 404.265625 418.199219 403.71875 416.707031 404 C 410.304688 405.195312 405.449219 403.582031 399.636719 401.433594 C 394.046875 399.371094 375.234375 395.992188 370.253906 400.835938 C 369.671875 401.394531 369.667969 402.285156 370.246094 402.859375 C 374.625 407.1875 388.277344 406.667969 394.3125 407.359375 C 399.523438 407.953125 404.835938 407.695312 410.070312 407.90625 C 412.664062 408.011719 413.375 409.964844 415.425781 410.835938 C 420.007812 412.796875 424.414062 414.035156 429.464844 414.167969 C 431.359375 414.21875 434.371094 413.429688 436.242188 413.050781 C 443.65625 411.566406 442.292969 414.617188 445.625 416.644531 C 448.296875 418.273438 449.714844 418.703125 452.886719 419.617188 C 457.84375 421.039062 462.09375 422.53125 466.621094 424.753906 C 470.859375 426.835938 476.695312 424.6875 480.191406 426.75 C 485.4375 429.84375 488.703125 434.035156 494.265625 436.988281 C 496.664062 438.257812 509.328125 440.972656 508.710938 438.160156 C 504.628906 419.636719 489.207031 415.007812 477.089844 414.386719 " fill-opacity="1" fill-rule="nonzero"/><path fill="#510600" d="M 284.410156 413.160156 C 287.96875 408.496094 292.570312 407.089844 297.851562 404.742188 C 304.671875 401.699219 314.871094 403.792969 319.859375 398.175781 C 320.496094 397.464844 320.070312 396.453125 319.152344 396.222656 C 307.605469 393.339844 300.121094 396.082031 289.621094 400.394531 C 287.125 401.421875 283.347656 402.871094 281.699219 405.03125 C 276.707031 411.570312 271.238281 415.113281 264.019531 418.914062 C 259.476562 421.308594 255.898438 424.484375 252.417969 428.148438 C 245.476562 435.453125 248.730469 431.988281 245.535156 441.117188 C 243.007812 448.359375 240.769531 457.578125 244.457031 464.816406 C 244.90625 465.695312 245.859375 466.398438 246.957031 466 C 247.203125 465.910156 247.441406 465.824219 247.6875 465.734375 C 249.113281 465.214844 249.023438 463.183594 247.628906 462.695312 C 248.265625 462.910156 253.453125 441.480469 254.246094 438.996094 C 256.761719 431.113281 268.195312 427.199219 274.488281 422.855469 C 278.527344 420.078125 281.523438 416.953125 284.410156 413.160156 " fill-opacity="1" fill-rule="nonzero"/><path fill="#510600" d="M 399.65625 417.660156 C 393.746094 413.714844 384.597656 414.6875 377.820312 415.3125 C 370.601562 415.976562 363.332031 414.140625 355.976562 415.019531 C 354.707031 415.164062 353.421875 415.316406 352.132812 415.46875 C 354.605469 413.996094 356.976562 412.675781 358.699219 412.714844 C 366.25 412.847656 374.367188 414.011719 381.847656 412.824219 C 383.292969 412.597656 383.234375 410.640625 382.132812 410.074219 C 375.234375 406.558594 366.484375 409.890625 359.078125 409.445312 C 354.507812 409.171875 350.9375 405.972656 346.121094 405.792969 C 340.511719 405.570312 334.433594 407.5625 329 408.710938 C 321.09375 410.382812 313.144531 411.328125 305.167969 413.113281 C 302.304688 413.757812 299.285156 414.574219 296.902344 416.265625 C 294.007812 418.316406 290.832031 419.914062 287.726562 421.660156 C 284.613281 423.410156 284.140625 426.160156 280.230469 427.722656 C 279.316406 428.09375 279.527344 429.320312 280.457031 429.496094 C 286.753906 430.699219 292.707031 427.648438 297.804688 424.105469 C 301.648438 421.4375 305.761719 420.144531 310.332031 419.175781 C 313.878906 417.339844 317.371094 417.386719 320.804688 419.34375 C 323.347656 420.828125 326.402344 421.066406 329.285156 421.386719 C 328.96875 421.929688 328.953125 422.578125 329.347656 423.238281 C 329.453125 423.40625 329.554688 423.570312 329.652344 423.738281 C 330.328125 424.839844 331.925781 424.433594 332.488281 423.511719 C 332.125 424.109375 341.324219 424.117188 341.914062 424.109375 C 346.644531 424.03125 351.070312 424.691406 355.6875 425.558594 C 363.867188 427.113281 372.671875 429.375 381.074219 429 C 387.164062 428.722656 393.617188 424.09375 399.335938 424.433594 C 404.351562 424.738281 409.148438 426.171875 413.328125 423.234375 C 413.933594 422.808594 413.941406 421.710938 413.386719 421.253906 C 409.210938 417.824219 403.867188 420.472656 399.65625 417.660156 " fill-opacity="1" fill-rule="nonzero"/><path fill="#a30400" d="M 489.542969 434.867188 C 490.8125 436.078125 491.777344 438.289062 492.804688 439.707031 C 492.960938 439.910156 493.089844 440.089844 493.207031 440.242188 C 493.058594 440.203125 492.90625 440.257812 492.808594 440.503906 C 492.535156 441.191406 492.824219 441.863281 493.339844 442.363281 C 495.257812 439.234375 497.882812 436.976562 500.847656 435.65625 C 500.539062 434.511719 499.921875 433.3125 498.996094 432.082031 C 494.402344 425.996094 487.589844 422.132812 482.886719 416.0625 C 478.910156 410.945312 473.703125 411.953125 468.460938 410.078125 C 461.332031 407.53125 453.019531 407.824219 445.582031 406.496094 C 440.855469 405.65625 433.863281 405.746094 429.515625 404.199219 C 423.203125 401.953125 417.523438 400.652344 410.710938 400.265625 C 404.710938 399.925781 400.9375 395.164062 394.652344 394.460938 C 390.867188 394.042969 387.828125 391.371094 384.488281 389.96875 C 380.488281 388.289062 376.566406 389.742188 372.347656 390.027344 C 365.613281 390.476562 360.066406 389.300781 353.460938 391.023438 C 346.292969 392.886719 336.640625 390.28125 329.097656 391.058594 C 323.125 391.679688 318.625 394.800781 314.035156 398.070312 C 307.402344 402.800781 300.808594 405.199219 293.683594 409.039062 C 288.289062 411.945312 283.40625 416.15625 278.507812 419.652344 C 276.011719 421.441406 273.484375 423.164062 270.859375 424.789062 C 266.914062 427.234375 263.484375 426 259.648438 427.894531 C 252.703125 431.324219 253.566406 435.929688 249.257812 440.804688 C 247.421875 442.882812 250.324219 445.421875 252.664062 444.070312 C 256.207031 442.03125 260.964844 435.65625 264.65625 435.699219 C 273.105469 435.792969 277.023438 436.621094 284.925781 432.726562 C 290.492188 429.976562 294.800781 426.457031 299.898438 423.132812 C 304.699219 420.011719 310.628906 418.683594 315.757812 416.074219 C 320.445312 413.675781 323.9375 409.832031 328.300781 407.070312 C 333.277344 403.921875 344.027344 405.714844 349.808594 406.355469 C 355.632812 407.003906 361.011719 404.652344 366.972656 405.25 C 370.992188 405.65625 375.226562 405.144531 379.296875 404.507812 C 386.421875 407.609375 393.09375 410.832031 400.167969 413.976562 C 402.921875 415.199219 406.078125 415.238281 409.058594 415.441406 C 415.316406 415.871094 420.046875 417.015625 425.871094 419.042969 C 428.519531 419.960938 432.613281 419.609375 435.46875 420.097656 C 440.089844 420.882812 444.871094 422.019531 449.550781 422.40625 C 457.238281 423.042969 464.257812 425.5625 471.707031 425.984375 C 477.460938 428.765625 485.777344 431.269531 489.542969 434.867188 " fill-opacity="1" fill-rule="nonzero"/><path fill="#a30400" d="M 486.285156 438.722656 C 484.558594 437.714844 483.984375 435.925781 482 435.355469 C 476.308594 433.707031 470.675781 432.425781 464.84375 431.203125 C 457.148438 429.597656 449.898438 426.3125 441.847656 426.328125 C 436.933594 426.335938 432.035156 426.664062 427.148438 427.125 C 420.671875 427.734375 415.695312 431.117188 408.652344 428.167969 C 400.976562 424.957031 391.300781 425.429688 383.09375 424.601562 C 363.949219 422.675781 345.804688 416.617188 326.394531 421.261719 C 321.296875 422.480469 316.699219 425.695312 311.660156 427.285156 C 306.085938 429.054688 301.179688 431.417969 295.96875 433.867188 C 282.085938 440.394531 263.679688 435.015625 250.441406 443.285156 C 248.90625 444.25 248.527344 446.871094 250.582031 447.621094 C 258.027344 450.34375 266.121094 449.902344 274.074219 450.175781 C 283.761719 450.511719 294.371094 450.46875 303.425781 447.203125 C 307.660156 445.679688 311.347656 443.285156 315.691406 441.910156 C 322.855469 439.632812 329.722656 434.519531 337.140625 433.253906 C 341.875 432.445312 347.03125 432.460938 351.851562 431.75 C 359.898438 430.550781 367.722656 424.871094 375.941406 427.589844 C 393.179688 433.285156 412.988281 433.101562 431.238281 434.832031 C 440.984375 435.757812 449.347656 437.425781 458.835938 439.527344 C 467.304688 441.398438 476.515625 440.007812 484.890625 442.101562 C 487.199219 442.675781 488.117188 439.78125 486.285156 438.722656 " fill-opacity="1" fill-rule="nonzero"/><path fill="#c11717" d="M 316.585938 399.125 C 314.273438 399.511719 310.574219 399.890625 308.851562 401.609375 C 308.339844 402.121094 299.976562 402.285156 298.648438 402.519531 C 294.566406 403.226562 290.316406 403.910156 286.503906 405.5 C 282.746094 407.066406 279.433594 406.515625 275.816406 407.664062 C 263.46875 411.578125 252.335938 424.402344 244.078125 433.089844 C 239.496094 437.90625 234.253906 455.121094 243.328125 457.980469 C 244.15625 458.242188 245.257812 458.191406 245.804688 457.453125 C 248.101562 454.375 249.566406 451.410156 251.171875 447.992188 C 253.550781 442.910156 258.976562 440.34375 263.066406 436.300781 C 266.183594 433.222656 270.078125 430.257812 273.511719 427.433594 C 277.789062 423.917969 279.332031 423.15625 284.71875 421.960938 C 294.242188 419.847656 303.992188 410.207031 313.359375 410.917969 C 320.425781 411.449219 326.941406 410.121094 333.875 409.050781 C 338.488281 408.347656 343.136719 409.691406 347.519531 408.039062 C 349.042969 407.46875 350.191406 405.964844 349.539062 404.425781 C 344.417969 392.449219 326.640625 397.445312 316.585938 399.125 " fill-opacity="1" fill-rule="nonzero"/><path fill="#c11717" d="M 432.4375 417.453125 C 435.371094 419.417969 439.355469 420.167969 442.777344 420.996094 C 449.683594 422.671875 456.878906 421.828125 463.800781 420.886719 C 466.214844 420.550781 467.542969 423.148438 469.464844 424.085938 C 473.878906 426.238281 479.328125 424.882812 483.550781 427.003906 C 486.8125 428.644531 487.472656 431.882812 489.515625 434.742188 C 491.699219 432.929688 496.835938 440.9375 498.96875 439.644531 C 501.847656 437.90625 501.605469 428.085938 504.625 427.847656 C 506.050781 427.734375 500.230469 419.378906 499.40625 418.675781 C 496.25 416.003906 492.273438 414.058594 488.371094 412.742188 C 484.941406 411.589844 479.453125 412.132812 476.691406 409.980469 C 471.199219 405.703125 466.257812 404.996094 459.214844 406.304688 C 449.003906 408.207031 441.488281 404.628906 431.941406 402.597656 C 424.453125 401.007812 417.199219 403.898438 409.757812 403.3125 C 404.992188 402.933594 400.363281 402.640625 395.574219 402.644531 C 390.675781 402.644531 384.808594 399.851562 380 398.953125 C 372.972656 397.640625 362.464844 399.398438 355.976562 401.957031 C 352.394531 403.367188 353.363281 407.621094 356.4375 408.855469 C 361.226562 410.765625 366.898438 410.105469 372 410.253906 C 380.394531 410.496094 387.4375 413.496094 395.640625 414.359375 C 402.316406 415.0625 409.761719 415.246094 416.492188 415.238281 C 422.773438 415.234375 425.535156 412.824219 432.4375 417.453125 " fill-opacity="1" fill-rule="nonzero"/><path fill="#c11717" d="M 392.371094 500.195312 C 389.835938 499.132812 387.050781 499.390625 384.320312 499.425781 C 382.667969 499.441406 381.03125 499.53125 379.386719 499.664062 C 377.734375 499.800781 375.59375 500.359375 373.988281 499.90625 C 373.71875 499.828125 373.453125 500.09375 373.644531 500.320312 C 375.648438 502.667969 378.605469 502.484375 381.636719 502.730469 C 384.960938 503 389.21875 503.304688 392.324219 502.046875 C 393.09375 501.742188 393.160156 500.527344 392.371094 500.195312 " fill-opacity="1" fill-rule="nonzero"/><path fill="#c11717" d="M 492.054688 462.476562 C 491.957031 462.222656 491.886719 461.980469 491.796875 461.726562 C 491.535156 464.445312 491.023438 466.972656 488.183594 469.554688 C 487.007812 470.632812 485.359375 471.484375 483.578125 472.226562 C 483.382812 471.261719 483.066406 470.332031 482.675781 469.554688 C 482.148438 468.523438 479.378906 461.785156 479.75 463.933594 C 479.589844 462.984375 478.828125 462.003906 477.847656 461.773438 C 477.785156 461.425781 477.675781 461.101562 477.5625 460.78125 C 479.976562 458.699219 475.9375 448.921875 475.988281 448.558594 C 476.597656 444.421875 479.859375 442.175781 482.105469 439.007812 C 483.542969 436.980469 482.054688 433.578125 481.667969 431.441406 C 481.40625 430.003906 478.964844 429.738281 478.679688 431.300781 C 477.222656 439.324219 467.710938 443.113281 469.496094 452.753906 C 470.09375 455.929688 472.035156 456.1875 473.828125 457.917969 C 470.242188 457.527344 467.277344 460.691406 467.652344 464.386719 C 468.105469 468.78125 469.15625 471.601562 464.753906 474.773438 C 462.132812 476.667969 459.816406 478.042969 456.644531 479.136719 C 456.261719 479.269531 455.960938 479.484375 455.710938 479.722656 C 455.238281 479.78125 454.761719 479.84375 454.289062 479.90625 C 443.535156 481.316406 434.097656 488.265625 423.714844 490.667969 C 421.921875 491.078125 421.691406 493.894531 423.726562 494.128906 C 431.609375 495.050781 438.210938 491.488281 445.445312 488.925781 C 452.164062 486.539062 458.105469 485.085938 465.203125 485.304688 C 465.675781 485.09375 466.15625 484.886719 466.667969 484.707031 C 473.929688 482.136719 485.996094 482.257812 489.429688 474.5 C 491.171875 470.566406 492.96875 464.820312 492.054688 462.476562 " fill-opacity="1" fill-rule="nonzero"/><path fill="#c11717" d="M 462.050781 463.09375 C 461.578125 454.160156 458.605469 442.824219 467.3125 436.519531 C 468.410156 435.726562 467.441406 433.882812 466.257812 434.648438 C 457.324219 440.40625 455.714844 454.667969 460.148438 463.707031 C 460.683594 464.789062 462.105469 464.175781 462.050781 463.09375 " fill-opacity="1" fill-rule="nonzero"/><path fill="#3d0400" d="M 509.835938 424.074219 C 508.910156 422.484375 507.65625 421.171875 505.972656 420.375 C 497.707031 416.476562 499.011719 427.113281 497.84375 431.730469 C 497.648438 432.5 497.332031 433.234375 496.964844 433.957031 C 496.667969 434.160156 496.378906 434.367188 496.117188 434.570312 C 492.949219 437.023438 491.085938 439.484375 490.066406 442.777344 C 487.828125 445.660156 486.339844 448.714844 487.746094 452.503906 C 488.6875 455.046875 490.726562 458.3125 492.484375 460.945312 C 493.003906 463.640625 494.753906 465.363281 494.738281 468.5 C 494.730469 470.097656 494.085938 471.863281 493.792969 473.425781 C 493.371094 475.691406 494.96875 478.226562 497.066406 478.496094 C 501.640625 479.085938 504.183594 475.664062 506.40625 471.628906 C 507.910156 468.886719 508.738281 465.976562 509.617188 462.941406 C 510.492188 459.898438 509.953125 451.066406 511.035156 449.605469 C 515.582031 443.441406 517.691406 427.445312 509.835938 424.074219 " fill-opacity="1" fill-rule="nonzero"/><path fill="#562202" d="M 509.804688 430.21875 C 509.039062 429.03125 507.640625 428.617188 506.316406 428.789062 C 506.277344 428.597656 506.246094 428.402344 506.203125 428.207031 C 506.058594 427.523438 505.449219 427.246094 504.851562 427.273438 C 504.507812 427.257812 504.179688 427.363281 503.929688 427.613281 C 503.71875 427.792969 503.582031 428.03125 503.542969 428.332031 C 502.792969 431.847656 501.777344 437.203125 498.96875 439.644531 C 495.683594 442.503906 492.363281 444.417969 491.324219 448.914062 C 490.578125 452.175781 489.808594 456.414062 492.527344 459.058594 C 493.785156 460.289062 494.917969 461.140625 495.867188 461.953125 C 496.125 464.613281 496.707031 467.230469 497.359375 470.046875 C 498.074219 473.140625 502.234375 474.6875 504.089844 471.894531 C 505.085938 471.4375 505.898438 470.59375 506.148438 469.367188 C 506.222656 469.011719 506.289062 468.632812 506.355469 468.25 C 510.285156 465.882812 511.617188 460.464844 509.804688 455.03125 C 508.539062 451.21875 511.445312 446.3125 511.449219 442.121094 C 511.449219 437.851562 512.199219 433.882812 509.804688 430.21875 " fill-opacity="1" fill-rule="nonzero"/></svg>