<svg xmlns="http://www.w3.org/2000/svg" xmlns:xlink="http://www.w3.org/1999/xlink" width="1080" zoomAndPan="magnify" viewBox="0 0 810 809.999993" height="1080" preserveAspectRatio="xMidYMid meet" version="1.0"><defs><clipPath id="0f91250154"><path d="M 142.003906 143 L 656 143 L 656 657.25 L 142.003906 657.25 Z M 142.003906 143 " clip-rule="nonzero"/></clipPath><clipPath id="6b5a48b175"><path d="M 245 112.75 L 667.753906 112.75 L 667.753906 549 L 245 549 Z M 245 112.75 " clip-rule="nonzero"/></clipPath></defs><g clip-path="url(#0f91250154)"><path fill="#ffadc8" d="M 398.789062 143.105469 C 257.246094 143.105469 142.003906 258.429688 142.003906 400.070312 C 142.003906 541.710938 257.246094 657.035156 398.789062 657.035156 C 540.328125 657.035156 655.570312 541.710938 655.570312 400.070312 C 655.570312 338.835938 634.863281 284.078125 599.703125 239.214844 L 575.523438 267.890625 C 606.175781 305.660156 618.175781 347.59375 618.175781 400.070312 C 618.175781 521.453125 520.082031 619.554688 398.785156 619.554688 C 277.488281 619.554688 179.394531 521.453125 179.394531 400.070312 C 179.394531 278.6875 277.488281 180.527344 398.785156 180.527344 C 437.222656 180.527344 465.96875 186.054688 497.355469 203.402344 L 520.324219 173.214844 C 483.578125 152.90625 443.636719 143.105469 398.785156 143.105469 Z M 398.789062 143.105469 " fill-opacity="1" fill-rule="evenodd"/></g><g clip-path="url(#6b5a48b175)"><path fill="#ffadc8" d="M 303.75 366.273438 C 314.105469 366.273438 321.9375 374.777344 327.246094 391.78125 C 337.867188 423.664062 345.433594 439.605469 349.949219 439.605469 C 353.398438 439.605469 356.984375 436.949219 360.703125 431.636719 C 435.308594 312.074219 504.339844 215.363281 567.792969 141.5 C 584.253906 122.371094 610.40625 112.808594 646.25 112.804688 C 654.746094 112.808594 660.457031 113.605469 663.375 115.199219 C 666.296875 116.792969 667.757812 118.785156 667.757812 121.175781 C 667.757812 124.894531 663.375 132.203125 654.613281 143.09375 C 552.128906 266.378906 457.078125 396.5625 369.464844 533.660156 C 363.355469 543.226562 350.878906 548.007812 332.027344 548.007812 C 312.910156 548.007812 301.625 547.210938 298.175781 545.617188 C 289.148438 541.632812 278.527344 521.308594 266.316406 484.640625 C 252.507812 443.988281 245.605469 418.484375 245.605469 408.121094 C 245.605469 396.960938 254.898438 386.203125 273.484375 375.839844 C 284.898438 369.460938 294.988281 366.273438 303.75 366.273438 " fill-opacity="1" fill-rule="nonzero"/></g></svg>