<svg xmlns="http://www.w3.org/2000/svg" xmlns:xlink="http://www.w3.org/1999/xlink" width="500" zoomAndPan="magnify" viewBox="0 0 375 374.999991" height="500" preserveAspectRatio="xMidYMid meet" version="1.0"><defs><clipPath id="5c0aee091b"><path d="M 49.9375 59.773438 L 305.6875 59.773438 L 305.6875 315.523438 L 49.9375 315.523438 Z M 49.9375 59.773438 " clip-rule="nonzero"/></clipPath></defs><g clip-path="url(#5c0aee091b)"><path fill="#97d5fe" d="M 295.632812 137.882812 C 289.195312 122.648438 279.980469 108.984375 268.238281 97.242188 C 256.496094 85.496094 242.816406 76.269531 227.597656 69.835938 C 211.816406 63.164062 195.078125 59.789062 177.820312 59.789062 C 160.558594 59.789062 143.808594 63.164062 128.042969 69.835938 C 112.808594 76.269531 99.144531 85.496094 87.398438 97.242188 C 75.65625 108.984375 66.429688 122.648438 59.992188 137.882812 C 53.324219 153.648438 49.9375 170.402344 49.9375 187.660156 C 49.9375 193.304688 50.3125 198.988281 51.050781 204.542969 C 55.074219 235.023438 70.039062 263.078125 93.199219 283.527344 C 104.632812 293.625 117.621094 301.527344 131.792969 306.992188 C 146.46875 312.660156 161.949219 315.527344 177.820312 315.527344 C 193.675781 315.527344 209.15625 312.660156 223.832031 306.992188 C 238.015625 301.527344 250.992188 293.625 262.4375 283.527344 C 285.585938 263.078125 300.5625 235.023438 304.585938 204.542969 C 305.3125 198.988281 305.6875 193.304688 305.6875 187.660156 C 305.6875 170.402344 302.300781 153.648438 295.632812 137.882812 Z M 60.472656 187.660156 C 60.472656 122.960938 113.117188 70.316406 177.820312 70.316406 C 242.519531 70.316406 295.152344 122.960938 295.152344 187.660156 C 295.152344 191.972656 294.914062 196.316406 294.449219 200.59375 C 294.332031 201.660156 293.417969 202.464844 292.34375 202.464844 L 63.292969 202.464844 C 62.21875 202.464844 61.304688 201.664062 61.1875 200.59375 C 60.71875 196.316406 60.472656 191.972656 60.472656 187.660156 Z M 177.820312 304.992188 C 122.789062 304.992188 75.351562 266.457031 63.386719 213.742188 C 63.085938 212.433594 64.105469 211.1875 65.449219 211.1875 L 290.1875 211.1875 C 291.53125 211.1875 292.550781 212.433594 292.25 213.742188 C 280.273438 266.457031 232.847656 304.992188 177.820312 304.992188 Z M 177.820312 304.992188 " fill-opacity="1" fill-rule="nonzero"/></g><path fill="#97d5fe" d="M 205.054688 115.074219 L 199.796875 102.894531 C 203.257812 100.996094 205.605469 97.320312 205.605469 93.105469 C 205.605469 86.957031 200.605469 81.953125 194.453125 81.953125 L 161.171875 81.953125 C 155.019531 81.953125 150.015625 86.957031 150.015625 93.105469 C 150.015625 97.304688 152.347656 100.96875 155.78125 102.867188 L 150.527344 115.125 C 147.902344 121.246094 146.570312 127.726562 146.570312 134.386719 L 146.570312 182.289062 C 146.570312 187.859375 151.101562 192.390625 156.667969 192.390625 L 198.957031 192.390625 C 204.523438 192.390625 209.054688 187.859375 209.054688 182.289062 L 209.054688 134.4375 C 209.054688 127.738281 207.707031 121.222656 205.054688 115.074219 Z M 161.171875 90.324219 L 194.453125 90.324219 C 195.960938 90.324219 197.238281 91.597656 197.238281 93.105469 C 197.238281 94.613281 195.960938 95.890625 194.453125 95.890625 L 161.171875 95.890625 C 159.660156 95.890625 158.386719 94.613281 158.386719 93.105469 C 158.386719 91.597656 159.660156 90.324219 161.171875 90.324219 Z M 158.21875 118.421875 L 163.757812 105.503906 C 164.03125 104.867188 164.65625 104.457031 165.347656 104.457031 L 190.21875 104.457031 C 190.910156 104.457031 191.53125 104.863281 191.804688 105.5 L 197.367188 118.390625 C 198.453125 120.910156 199.277344 123.5 199.832031 126.152344 C 198.917969 125.6875 197.941406 125.246094 196.910156 124.855469 C 188.359375 121.613281 180.132812 123.34375 173.746094 129.730469 C 169.980469 133.496094 165.761719 134.640625 160.847656 133.222656 C 158.417969 132.523438 156.378906 131.339844 155.125 130.5 C 155.523438 126.34375 156.558594 122.296875 158.21875 118.421875 Z M 200.683594 182.289062 C 200.683594 183.242188 199.910156 184.019531 198.957031 184.019531 L 156.667969 184.019531 C 155.714844 184.019531 154.941406 183.242188 154.941406 182.289062 L 154.941406 139.945312 C 155.941406 140.390625 157.03125 140.8125 158.195312 141.164062 C 160.128906 141.753906 162.378906 142.183594 164.8125 142.183594 C 169.417969 142.183594 174.675781 140.636719 179.667969 135.644531 C 183.703125 131.609375 188.308594 130.617188 193.742188 132.609375 C 196.832031 133.742188 199.371094 135.566406 200.683594 136.621094 Z M 200.683594 182.289062 " fill-opacity="1" fill-rule="nonzero"/><path fill="#97d5fe" d="M 143.6875 254.328125 L 143.6875 259.894531 L 130.523438 259.894531 L 130.523438 266.03125 L 143.039062 266.03125 L 143.039062 271.59375 L 130.523438 271.59375 L 130.523438 282.726562 L 124.1875 282.726562 L 124.1875 254.328125 Z M 143.6875 254.328125 " fill-opacity="1" fill-rule="nonzero"/><path fill="#97d5fe" d="M 173.871094 263.753906 C 173.871094 268.304688 172.070312 271.242188 168.46875 272.570312 L 175.660156 282.726562 L 167.859375 282.726562 L 161.5625 273.667969 L 157.175781 273.667969 L 157.175781 282.726562 L 150.835938 282.726562 L 150.835938 254.328125 L 161.601562 254.328125 C 166.015625 254.328125 169.164062 255.074219 171.046875 256.5625 C 172.929688 258.054688 173.871094 260.449219 173.871094 263.753906 Z M 166.234375 267.125 C 167.019531 266.421875 167.414062 265.304688 167.414062 263.773438 C 167.414062 262.246094 167.007812 261.195312 166.195312 260.625 C 165.382812 260.058594 163.960938 259.773438 161.929688 259.773438 L 157.175781 259.773438 L 157.175781 268.183594 L 161.804688 268.183594 C 163.972656 268.183594 165.449219 267.832031 166.234375 267.125 Z M 166.234375 267.125 " fill-opacity="1" fill-rule="nonzero"/><path fill="#97d5fe" d="M 202.632812 254.328125 L 202.632812 259.976562 L 188.496094 259.976562 L 188.496094 265.828125 L 201.210938 265.828125 L 201.210938 271.230469 L 188.496094 271.230469 L 188.496094 277.121094 L 203.082031 277.121094 L 203.082031 282.726562 L 182.160156 282.726562 L 182.160156 254.332031 L 202.632812 254.332031 Z M 202.632812 254.328125 " fill-opacity="1" fill-rule="nonzero"/><path fill="#97d5fe" d="M 230.988281 254.328125 L 230.988281 259.976562 L 216.851562 259.976562 L 216.851562 265.828125 L 229.566406 265.828125 L 229.566406 271.230469 L 216.851562 271.230469 L 216.851562 277.121094 L 231.4375 277.121094 L 231.4375 282.726562 L 210.515625 282.726562 L 210.515625 254.332031 L 230.988281 254.332031 Z M 230.988281 254.328125 " fill-opacity="1" fill-rule="nonzero"/><path fill="#97d5fe" d="M 101.265625 242.503906 L 101.265625 220.535156 L 106.167969 220.535156 L 106.167969 238.132812 L 115.535156 238.132812 L 115.535156 242.503906 Z M 101.265625 242.503906 " fill-opacity="1" fill-rule="nonzero"/><path fill="#97d5fe" d="M 136.152344 242.503906 L 134.109375 237.757812 L 124.902344 237.757812 L 122.859375 242.503906 L 117.640625 242.503906 L 127.132812 220.535156 L 131.878906 220.535156 L 141.371094 242.503906 Z M 129.519531 227.070312 L 126.753906 233.453125 L 132.253906 233.453125 Z M 129.519531 227.070312 " fill-opacity="1" fill-rule="nonzero"/><path fill="#97d5fe" d="M 155.386719 238.164062 C 157.796875 238.164062 159.765625 237.210938 161.296875 235.304688 L 164.4375 238.542969 C 161.945312 241.351562 159.007812 242.753906 155.625 242.753906 C 152.238281 242.753906 149.453125 241.6875 147.261719 239.546875 C 145.074219 237.410156 143.980469 234.714844 143.980469 231.457031 C 143.980469 228.199219 145.09375 225.480469 147.324219 223.300781 C 149.558594 221.121094 152.285156 220.03125 155.511719 220.03125 C 159.117188 220.03125 162.132812 221.402344 164.566406 224.148438 L 161.515625 227.605469 C 159.964844 225.679688 158.039062 224.714844 155.734375 224.714844 C 153.890625 224.714844 152.3125 225.316406 151.003906 226.519531 C 149.691406 227.726562 149.039062 229.351562 149.039062 231.394531 C 149.039062 233.433594 149.65625 235.074219 150.894531 236.3125 C 152.128906 237.546875 153.628906 238.164062 155.386719 238.164062 Z M 155.386719 238.164062 " fill-opacity="1" fill-rule="nonzero"/><path fill="#97d5fe" d="M 178.992188 224.777344 L 178.992188 242.503906 L 174.089844 242.503906 L 174.089844 224.777344 L 167.863281 224.777344 L 167.863281 220.535156 L 185.214844 220.535156 L 185.214844 224.777344 Z M 178.992188 224.777344 " fill-opacity="1" fill-rule="nonzero"/><path fill="#97d5fe" d="M 208.0625 239.46875 C 205.84375 241.636719 203.109375 242.722656 199.859375 242.722656 C 196.613281 242.722656 193.878906 241.636719 191.65625 239.46875 C 189.4375 237.300781 188.324219 234.605469 188.324219 231.375 C 188.324219 228.148438 189.4375 225.453125 191.65625 223.285156 C 193.878906 221.113281 196.613281 220.03125 199.859375 220.03125 C 203.109375 220.03125 205.84375 221.113281 208.0625 223.285156 C 210.285156 225.453125 211.394531 228.148438 211.394531 231.375 C 211.394531 234.605469 210.285156 237.300781 208.0625 239.46875 Z M 206.398438 231.390625 C 206.398438 229.433594 205.769531 227.761719 204.511719 226.378906 C 203.253906 224.996094 201.707031 224.304688 199.875 224.304688 C 198.042969 224.304688 196.496094 224.996094 195.238281 226.378906 C 193.984375 227.761719 193.355469 229.433594 193.355469 231.390625 C 193.355469 233.351562 193.984375 235.019531 195.238281 236.390625 C 196.496094 237.761719 198.042969 238.449219 199.875 238.449219 C 201.707031 238.449219 203.253906 237.761719 204.511719 236.390625 C 205.769531 235.019531 206.398438 233.351562 206.398438 231.390625 Z M 206.398438 231.390625 " fill-opacity="1" fill-rule="nonzero"/><path fill="#97d5fe" d="M 221.875 224.917969 C 221.40625 225.304688 221.167969 225.820312 221.167969 226.457031 C 221.167969 227.097656 221.457031 227.605469 222.03125 227.984375 C 222.609375 228.359375 223.9375 228.804688 226.023438 229.316406 C 228.109375 229.832031 229.726562 230.601562 230.878906 231.628906 C 232.03125 232.65625 232.609375 234.152344 232.609375 236.121094 C 232.609375 238.09375 231.871094 239.691406 230.394531 240.914062 C 228.917969 242.140625 226.972656 242.753906 224.5625 242.753906 C 221.085938 242.753906 217.953125 241.464844 215.164062 238.890625 L 218.089844 235.304688 C 220.457031 237.378906 222.644531 238.417969 224.65625 238.417969 C 225.558594 238.417969 226.265625 238.222656 226.777344 237.835938 C 227.292969 237.449219 227.550781 236.925781 227.550781 236.265625 C 227.550781 235.605469 227.277344 235.082031 226.730469 234.691406 C 226.1875 234.304688 225.109375 233.914062 223.496094 233.515625 C 220.9375 232.90625 219.066406 232.117188 217.882812 231.140625 C 216.699219 230.167969 216.109375 228.636719 216.109375 226.550781 C 216.109375 224.46875 216.859375 222.859375 218.355469 221.726562 C 219.851562 220.597656 221.722656 220.03125 223.964844 220.03125 C 225.433594 220.03125 226.898438 220.28125 228.367188 220.785156 C 229.832031 221.289062 231.109375 222 232.199219 222.921875 L 229.71875 226.503906 C 227.8125 225.058594 225.839844 224.335938 223.808594 224.335938 C 222.992188 224.335938 222.347656 224.53125 221.875 224.917969 Z M 221.875 224.917969 " fill-opacity="1" fill-rule="nonzero"/><path fill="#97d5fe" d="M 254.011719 220.535156 L 254.011719 224.902344 L 243.074219 224.902344 L 243.074219 229.429688 L 252.914062 229.429688 L 252.914062 233.609375 L 243.074219 233.609375 L 243.074219 238.164062 L 254.359375 238.164062 L 254.359375 242.503906 L 238.171875 242.503906 L 238.171875 220.535156 Z M 254.011719 220.535156 " fill-opacity="1" fill-rule="nonzero"/></svg>