<svg width="173" height="173" viewBox="0 0 173 173" fill="none" xmlns="http://www.w3.org/2000/svg">
<path fill-rule="evenodd" clip-rule="evenodd" d="M137.511 138.016C124.308 151.219 106.912 158.708 88.3232 159.245V134.979C92.3285 135.521 96.5472 134.245 99.6305 131.161C103.157 127.641 104.313 122.635 103.104 118.161C98.6305 116.958 93.6305 118.115 90.1097 121.641C89.4222 122.323 88.8285 123.063 88.3232 123.844V117.703C92.3285 118.24 96.5472 116.969 99.6305 113.885C103.157 110.359 104.313 105.359 103.104 100.885C98.6305 99.6771 93.6305 100.839 90.1097 104.359C89.4222 105.047 88.8285 105.786 88.3232 106.568V100.422C92.3285 100.964 96.5472 99.6927 99.6305 96.6094C103.157 93.0833 104.313 88.0833 103.104 83.6094C98.6305 82.401 93.6305 83.5573 90.1097 87.0833C89.4222 87.7656 88.8285 88.5104 88.3232 89.2917V83.1458C92.3285 83.6875 96.5472 82.4167 99.6305 79.3281C103.157 75.8073 104.313 70.8073 103.104 66.3281C98.6305 65.125 93.6305 66.2812 90.1097 69.8073C89.4222 70.4896 88.8285 71.2292 88.3232 72.0104V65.8698C92.3285 66.4062 96.5472 65.1354 99.6305 62.0521C103.157 58.526 104.313 53.526 103.104 49.0521C98.6305 47.8438 93.6305 49.0052 90.1097 52.526C89.4222 53.2135 88.8285 53.9531 88.3232 54.7344V50.8438C91.1253 48.3854 92.9014 44.7656 92.9014 40.7396C92.9014 35.7552 90.1878 31.401 86.1722 29.0885C82.1514 31.401 79.4378 35.7552 79.4378 40.7396C79.4378 44.7656 81.2139 48.3854 84.016 50.8438V54.7344C83.5107 53.9531 82.917 53.2135 82.2347 52.526C78.7087 49.0052 73.7087 47.8438 69.2347 49.0521C68.0264 53.526 69.1878 58.526 72.7087 62.0521C75.792 65.1354 80.0107 66.4062 84.016 65.8698V72.0104C83.5107 71.2292 82.917 70.4896 82.2347 69.8073C78.7087 66.2812 73.7087 65.125 69.2347 66.3281C68.0264 70.8073 69.1878 75.8073 72.7087 79.3281C75.792 82.4167 80.0107 83.6875 84.016 83.1458V89.2917C83.5107 88.5104 82.917 87.7656 82.2347 87.0833C78.7087 83.5573 73.7087 82.401 69.2347 83.6094C68.0264 88.0833 69.1878 93.0833 72.7087 96.6094C75.792 99.6927 80.0107 100.964 84.016 100.422V106.568C83.5107 105.786 82.917 105.047 82.2347 104.359C78.7087 100.839 73.7087 99.6771 69.2347 100.885C68.0264 105.359 69.1878 110.359 72.7087 113.885C75.792 116.969 80.0107 118.24 84.016 117.703V123.844C83.5107 123.063 82.917 122.323 82.2347 121.641C78.7087 118.115 73.7087 116.958 69.2347 118.161C68.0264 122.635 69.1878 127.641 72.7087 131.161C75.792 134.245 80.0107 135.521 84.016 134.979V159.245C65.4274 158.708 48.0368 151.219 34.8285 138.016C6.52116 109.703 6.52116 63.6458 34.8285 35.3385C48.542 21.6198 66.7764 14.0677 86.1722 14.0677C105.563 14.0677 123.797 21.6198 137.511 35.3385C151.224 49.0469 158.776 67.2812 158.776 86.6771C158.776 106.068 151.224 124.302 137.511 138.016ZM146.979 25.8594C130.74 9.61979 109.141 0.671875 86.1722 0.671875C63.1982 0.671875 41.5993 9.61979 25.3545 25.8594C-8.17676 59.3958 -8.17676 113.953 25.3545 147.49C41.5993 163.729 63.1982 172.677 86.1722 172.677C109.141 172.677 130.74 163.729 146.979 147.49C163.224 131.245 172.172 109.646 172.172 86.6771C172.172 63.7031 163.224 42.1042 146.979 25.8594ZM50.1043 72.2917C47.922 70.3542 44.995 69.3855 41.3127 69.3855C33.0783 69.3855 28.9585 73.8647 28.9585 82.8178V90.5313C28.9585 99.4845 33.047 103.964 41.2189 103.964C49.3231 103.964 53.3752 99.6511 53.3752 91.0209V85.2605H41.1668V90.5313H47.1252V92.1459C47.1252 94.198 46.6772 95.724 45.7814 96.7345C44.8908 97.7449 43.4637 98.2501 41.5106 98.2501C39.4272 98.2501 37.8908 97.6407 36.896 96.4167C35.9012 95.198 35.4064 93.2032 35.4064 90.4376V83.1615C35.4064 80.2605 35.87 78.1772 36.797 76.9063C37.7241 75.6407 39.2137 75.0053 41.2658 75.0053C43.0887 75.0053 44.495 75.5105 45.4897 76.5157C46.4845 77.5261 46.9793 78.797 46.9793 80.3282V80.6667H53.3752V80.3282C53.3752 76.9063 52.2866 74.2292 50.1043 72.2917ZM142.453 69.8281V75.3958H127.464V84.0365H140.307V89.6042H127.464V103.521H121.068V69.8281H142.453Z" fill="#FFBAFC"/>
</svg>
