<svg width="173" height="173" viewBox="0 0 173 173" fill="none" xmlns="http://www.w3.org/2000/svg">
<path fill-rule="evenodd" clip-rule="evenodd" d="M165.89 53.4063C161.562 43.1615 155.364 33.9688 147.463 26.073C139.568 18.172 130.37 11.9688 120.135 7.64071C109.521 3.15633 98.2655 0.885498 86.6561 0.885498C75.0519 0.885498 63.7811 3.15633 53.1769 7.64071C42.9321 11.9688 33.7446 18.172 25.8488 26.073C17.9478 33.9688 11.7446 43.1615 7.4165 53.4063C2.92692 64.0053 0.650879 75.2761 0.650879 86.8803C0.650879 90.6772 0.906088 94.5001 1.40088 98.2345C4.10921 118.734 14.1717 137.604 29.7498 151.354C37.4373 158.146 46.1717 163.458 55.703 167.135C65.5728 170.948 75.9842 172.875 86.6561 172.875C97.3228 172.875 107.734 170.948 117.604 167.135C127.14 163.458 135.87 158.146 143.568 151.354C159.135 137.604 169.203 118.734 171.911 98.2345C172.401 94.5001 172.651 90.6772 172.651 86.8803C172.651 75.2761 170.375 64.0053 165.89 53.4063ZM7.73942 86.8803C7.73942 43.3699 43.1457 7.96362 86.6561 7.96362C130.172 7.96362 165.568 43.3699 165.568 86.8803C165.568 89.7813 165.406 92.7032 165.094 95.5782C165.015 96.297 164.401 96.8386 163.677 96.8386H9.63525C8.9113 96.8386 8.29671 96.297 8.21859 95.5782C7.90609 92.7032 7.73942 89.7813 7.73942 86.8803ZM86.6561 165.792C49.6457 165.792 17.7446 139.875 9.69775 104.422C9.49463 103.542 10.1821 102.703 11.0832 102.703H162.229C163.13 102.703 163.818 103.542 163.614 104.422C155.562 139.875 123.667 165.792 86.6561 165.792ZM104.974 38.0678L101.438 29.8751C103.766 28.599 105.344 26.1251 105.344 23.2917C105.344 19.1563 101.979 15.7917 97.8438 15.7917H75.4583C71.3229 15.7917 67.9583 19.1563 67.9583 23.2917C67.9583 26.1147 69.526 28.5782 71.8385 29.8542L68.3021 38.099C66.5365 42.2136 65.6406 46.573 65.6406 51.0522V83.2709C65.6406 87.0157 68.6875 90.0626 72.4323 90.0626H100.87C104.615 90.0626 107.661 87.0157 107.661 83.2709V51.0886C107.661 46.5834 106.755 42.2032 104.974 38.0678ZM75.4583 21.4167H97.8438C98.8594 21.4167 99.7135 22.2761 99.7135 23.2917C99.7135 24.3074 98.8594 25.1615 97.8438 25.1615H75.4583C74.4479 25.1615 73.5885 24.3074 73.5885 23.2917C73.5885 22.2761 74.4479 21.4167 75.4583 21.4167ZM73.474 40.3178L77.2031 31.6303C77.3854 31.198 77.8021 30.922 78.2708 30.922H94.9948C95.4583 30.922 95.8802 31.198 96.0625 31.6251L99.8021 40.297C100.536 41.9897 101.089 43.7345 101.458 45.5157C100.844 45.2032 100.188 44.9063 99.4948 44.6459C93.7448 42.4636 88.2135 43.6251 83.9167 47.922C81.3854 50.4532 78.5469 51.224 75.2448 50.2709C73.6094 49.797 72.2396 49.0053 71.3958 48.4376C71.6615 45.6459 72.3594 42.922 73.474 40.3178ZM102.036 83.2709C102.036 83.9115 101.51 84.4324 100.87 84.4324H72.4323C71.7917 84.4324 71.2708 83.9115 71.2708 83.2709V54.7917C71.9427 55.0938 72.6771 55.3751 73.4583 55.6147C74.7604 56.0053 76.2708 56.297 77.9115 56.297C81.0052 56.297 84.5417 55.2553 87.901 51.9011C90.6146 49.1824 93.7135 48.5157 97.3646 49.8595C99.4427 50.6199 101.151 51.849 102.036 52.5574V83.2709ZM63.703 135.464V131.719H50.5884V150.818H54.8488V143.328H63.2655V139.589H54.8488V135.464H63.703ZM83.9998 138.057C83.9998 141.12 82.7915 143.094 80.3696 143.984L85.203 150.818H79.9582L75.7238 144.724H72.7707V150.818H68.5103V131.719H75.7498C78.7186 131.719 80.8384 132.219 82.104 133.224C83.3696 134.224 83.9998 135.833 83.9998 138.057ZM78.8644 140.323C79.3957 139.854 79.6561 139.099 79.6561 138.073C79.6561 137.042 79.3853 136.339 78.8384 135.953C78.2915 135.573 77.3332 135.38 75.9686 135.38H72.7707V141.036H75.8853C77.3436 141.036 78.3384 140.797 78.8644 140.323ZM103.344 135.516V131.719H89.5728V150.818H103.646V147.047H93.8384V143.083H102.39V139.453H93.8384V135.516H103.344ZM122.417 131.719V135.516H112.906V139.453H121.458V143.083H112.906V147.047H122.719V150.818H108.646V131.719H122.417ZM35.1719 108.99V123.766H44.7708V120.828H38.4688V108.99H35.1719ZM58.6354 123.766L57.2604 120.573H51.0677L49.6927 123.766H46.1875L52.5677 108.99H55.7604L62.1458 123.766H58.6354ZM54.1771 113.385L52.3125 117.677H56.0156L54.1771 113.385ZM75.547 118.922C74.5158 120.208 73.1929 120.849 71.5731 120.849C70.3856 120.849 69.3804 120.432 68.547 119.599C67.7189 118.771 67.3022 117.667 67.3022 116.292C67.3022 114.917 67.7397 113.828 68.62 113.016C69.5054 112.208 70.5627 111.802 71.8022 111.802C73.3543 111.802 74.6512 112.448 75.6929 113.745L77.745 111.422C76.1095 109.573 74.0783 108.651 71.6564 108.651C69.4845 108.651 67.6512 109.385 66.1512 110.849C64.646 112.318 63.896 114.146 63.896 116.333C63.896 118.526 64.6356 120.339 66.1095 121.776C67.5783 123.214 69.4533 123.932 71.7293 123.932C74.0054 123.932 75.9793 122.99 77.6564 121.104L75.547 118.922ZM87.4425 111.844V123.766H84.1457V111.844H79.9634V108.99H91.63V111.844H87.4425ZM101.479 123.912C103.662 123.912 105.505 123.182 106.995 121.724C108.49 120.266 109.24 118.453 109.24 116.281C109.24 114.115 108.49 112.297 106.995 110.839C105.505 109.38 103.662 108.651 101.479 108.651C99.297 108.651 97.4585 109.38 95.9637 110.839C94.4689 112.297 93.7241 114.115 93.7241 116.281C93.7241 118.453 94.4689 120.266 95.9637 121.724C97.4585 123.182 99.297 123.912 101.479 123.912ZM104.61 112.922C105.453 113.849 105.875 114.974 105.875 116.292C105.875 117.609 105.453 118.729 104.61 119.656C103.761 120.578 102.724 121.037 101.49 121.037C100.255 121.037 99.2189 120.578 98.3752 119.656C97.5262 118.729 97.1043 117.609 97.1043 116.292C97.1043 114.974 97.5262 113.849 98.3752 112.922C99.2189 111.99 100.255 111.526 101.49 111.526C102.724 111.526 103.761 111.99 104.61 112.922ZM116.286 111.938C115.969 112.198 115.812 112.547 115.812 112.974C115.812 113.406 116.005 113.745 116.39 114C116.781 114.255 117.672 114.552 119.078 114.896C120.479 115.245 121.568 115.76 122.344 116.453C123.114 117.141 123.505 118.151 123.505 119.474C123.505 120.797 123.01 121.875 122.015 122.698C121.021 123.521 119.713 123.932 118.094 123.932C115.755 123.932 113.646 123.068 111.776 121.333L113.739 118.927C115.333 120.318 116.802 121.016 118.156 121.016C118.76 121.016 119.239 120.885 119.583 120.625C119.927 120.365 120.104 120.016 120.104 119.568C120.104 119.125 119.917 118.771 119.552 118.51C119.187 118.25 118.458 117.99 117.375 117.719C115.656 117.313 114.396 116.781 113.604 116.125C112.807 115.469 112.406 114.443 112.406 113.037C112.406 111.635 112.911 110.552 113.917 109.792C114.927 109.031 116.182 108.651 117.693 108.651C118.677 108.651 119.667 108.823 120.651 109.162C121.635 109.495 122.495 109.979 123.229 110.599L121.562 113.005C120.276 112.031 118.953 111.547 117.588 111.547C117.036 111.547 116.604 111.677 116.286 111.938ZM137.901 111.927V108.99H127.245V123.766H138.13V120.849H130.542V117.781H137.161V114.974H130.542V111.927H137.901Z" fill="#97D5FE"/>
</svg>
