<svg width="178" height="178" viewBox="0 0 178 178" fill="none" xmlns="http://www.w3.org/2000/svg">
<path fill-rule="evenodd" clip-rule="evenodd" d="M169.39 37.9946C179.651 50.4269 178.245 59.7134 175.297 66.505C177.25 74.3384 178.125 82.4061 177.896 90.5102C177.776 94.9165 177.333 99.2915 176.573 103.614C173.041 124.927 161.76 145 143.328 159.219C104.661 189.052 49.1612 181.849 19.3748 143.135C-10.4221 104.416 -3.22417 48.8488 35.4373 19.0154C58.1248 1.51023 86.604 -3.24498 112.291 3.64044C88.7342 -1.11998 63.005 4.16127 42.104 20.2811C4.52583 49.2759 -3.1773 102.37 24.906 138.864C52.9894 175.359 106.219 181.432 143.807 152.437C149.521 148.026 154.547 143.057 158.864 137.666C161.984 133.276 164.661 128.62 166.875 123.765C169.76 116.854 170.672 109.265 169.541 101.89C169.349 100.724 169.104 99.4842 168.791 98.1873C168.713 97.8592 168.63 97.5311 168.536 97.2029L168.552 97.1977C168.203 95.8488 167.786 94.4477 167.281 93.0102C168.26 89.9321 168.953 87.5623 168.083 83.3071C168.483 87.0038 167.713 89.0754 166.774 91.601L166.765 91.6248C165.854 89.2915 164.687 86.8852 163.213 84.5154C163.739 82.3175 164.01 80.3019 163.229 77.3488C163.665 79.957 163.251 81.5616 162.739 83.5498L162.698 83.7082C159.823 79.3175 155.818 75.0571 150.219 71.4946C155.656 75.8384 159.969 81.4009 162.911 86.6144C160.651 85.3436 158.271 83.5519 156.286 81.2342C158.437 84.2863 161.01 86.3748 163.573 87.8227C164.76 90.0727 165.682 92.2342 166.323 94.1769C163.396 92.6248 158.224 89.2082 156.021 86.63C158.661 90.7967 163.479 93.7342 166.693 95.3852C167.062 96.7394 167.291 97.9582 167.349 98.9946C164.661 98.8019 158.953 98.1509 155.062 93.5259C151.675 89.4882 151.267 85.639 150.903 82.2122V82.2121C150.717 80.4495 150.542 78.7987 149.979 77.2915C148.323 72.8592 147.073 70.8019 145.812 69.5727L144.922 68.7915C144.922 68.7915 145.39 68.7915 146 68.8644L146.073 68.8727C147.365 69.0184 159.52 70.3887 166.828 79.1873C173.239 86.9113 172.255 92.6665 170.406 96.854C171.552 101.052 172.041 105.375 171.88 109.677C175.541 95.5519 175.604 80.4269 171.614 65.6561L171.656 65.6404C171.193 63.9894 170.672 62.2863 170.062 60.5623C171.677 55.5363 172.812 51.6769 171.422 44.729C172.051 50.772 170.783 54.157 169.232 58.294L169.229 58.3019C167.75 54.479 165.864 50.5519 163.463 46.6717C164.338 43.0936 164.786 39.7967 163.521 34.979C164.225 39.2336 163.543 41.8539 162.699 45.0945L162.63 45.3592C157.953 38.1769 151.448 31.2029 142.323 25.3592C151.172 32.479 158.187 41.5727 162.969 50.0988C159.281 48.0102 155.396 45.0779 152.172 41.2863C155.672 46.2759 159.859 49.6977 164.036 52.0779C165.974 55.755 167.469 59.2811 168.5 62.4581C163.729 59.9061 155.302 54.3071 151.724 50.0988C156.005 56.9009 163.859 61.7238 169.094 64.4373C169.703 66.6404 170.057 68.6352 170.146 70.3279C165.76 69.9998 156.453 68.9113 150.135 61.3436C144.609 54.7365 143.959 48.4477 143.381 42.8497V42.8496C143.084 39.975 142.806 37.2825 141.896 34.8227C139.219 27.5779 137.187 24.2186 135.135 22.2082L133.682 20.9269C133.682 20.9269 134.453 20.9321 135.443 21.0571L135.511 21.0647C137.331 21.2653 157.41 23.4785 169.39 37.9946ZM29.2134 87.802C29.2134 53.1978 57.3332 25.052 91.8853 25.052C110.463 25.052 127.125 33.2291 138.614 46.1301C138.828 47.9062 139.14 49.7812 139.635 51.7343C128.687 37.2447 111.385 27.8228 91.8853 27.8228C58.8592 27.8228 31.9842 54.7343 31.9842 87.802C31.9842 120.875 58.8592 147.786 91.8853 147.786C121.896 147.786 146.75 125.547 151.057 96.677C151.075 96.7005 151.092 96.7239 151.109 96.7474C151.126 96.7708 151.143 96.7942 151.161 96.8176C151.87 97.651 152.656 98.401 153.489 99.0989C148.156 128.323 122.588 150.557 91.8853 150.557C57.3332 150.557 29.2134 122.406 29.2134 87.802ZM60.4585 82.1458C60.8075 82.4948 61.2293 82.6719 61.7189 82.6719C62.2137 82.6719 62.6408 82.4948 62.9845 82.1458C63.3283 81.8073 63.5002 81.3802 63.5002 80.8906V61.0729C63.5002 60.5729 63.3335 60.151 63.0002 59.8021C62.6668 59.4583 62.2397 59.2812 61.7293 59.2812C61.5262 59.2812 61.3179 59.3177 61.1252 59.3958L57.8283 60.4948C57.4585 60.6667 57.1825 60.901 56.9897 61.1823C56.8022 61.4635 56.7085 61.7917 56.7085 62.1562C56.7085 62.6615 56.8804 63.0885 57.2137 63.4219C57.5522 63.7604 57.9793 63.9323 58.4793 63.9323C58.7762 63.9323 59.0887 63.8646 59.4429 63.7292C59.4903 63.7114 59.5381 63.694 59.5861 63.6769L59.6929 63.6389L59.6931 63.6389L59.6933 63.6388L59.6935 63.6387L59.6937 63.6386L59.6939 63.6386L59.6941 63.6385L59.6943 63.6384L59.6945 63.6384L59.6947 63.6383L59.6949 63.6382L59.6951 63.6382L59.6953 63.6381L59.6954 63.638C59.7801 63.6081 59.8647 63.5781 59.9481 63.5469V80.8906C59.9481 81.3802 60.12 81.8073 60.4585 82.1458ZM71.6564 65.0677C71.3439 65.7708 71.1043 66.6406 70.9429 67.6562C70.7866 68.6719 70.7033 69.7812 70.7033 70.9531C70.7033 72.1406 70.7866 73.2656 70.9429 74.2812C71.0991 75.2865 71.3439 76.1562 71.6616 76.8646C71.9793 77.5677 72.37 78.1146 72.8179 78.5052C73.2658 78.8802 73.7762 79.0625 74.37 79.0625C74.9741 79.0625 75.495 78.8698 75.9377 78.4896C76.4012 78.0938 76.7918 77.5365 77.0991 76.8333C77.4064 76.1146 77.646 75.2396 77.8022 74.2448C77.9585 73.2344 78.0418 72.1198 78.0418 70.9531C78.0418 69.8021 77.9585 68.6979 77.797 67.6771C77.6304 66.6771 77.3908 65.8073 77.0783 65.0833C76.771 64.3698 76.3908 63.8125 75.9272 63.4167C75.4793 63.0312 74.9689 62.849 74.37 62.849C73.7762 62.849 73.2658 63.0312 72.8127 63.4167C72.3543 63.8125 71.9637 64.3646 71.6564 65.0677ZM74.37 82.6719C73.2137 82.6719 72.1668 82.3958 71.2606 81.849C70.3543 81.3073 69.5887 80.5208 68.9793 79.5104C68.3804 78.5208 67.9116 77.2812 67.5939 75.8385C67.2762 74.4167 67.1147 72.7708 67.1147 70.9531C67.1147 69.1354 67.2762 67.4948 67.5939 66.0781C67.9116 64.6354 68.3804 63.401 68.9793 62.401C69.5887 61.3854 70.3543 60.5938 71.2606 60.0573C72.1668 59.5104 73.2137 59.2344 74.37 59.2344C75.5262 59.2344 76.5783 59.5208 77.4897 60.0729C78.3856 60.6198 79.1512 61.4219 79.7658 62.4427C80.3804 63.4479 80.8439 64.6875 81.1564 66.1198C81.4689 67.5469 81.6304 69.1719 81.6304 70.9531C81.6304 72.7344 81.4689 74.3594 81.1564 75.7865C80.8439 77.2188 80.3804 78.4583 79.7658 79.4688C79.1512 80.4844 78.3856 81.2812 77.4897 81.8333C76.5783 82.3906 75.5262 82.6719 74.37 82.6719ZM95.9429 74.2448C95.7814 75.2396 95.547 76.1146 95.2345 76.8333C94.9325 77.5365 94.5418 78.0938 94.0731 78.4896C93.6356 78.8698 93.1147 79.0625 92.5106 79.0625C91.9116 79.0625 91.4064 78.8802 90.9585 78.5052C90.5054 78.1146 90.1147 77.5677 89.8022 76.8646C89.4845 76.1562 89.2397 75.2865 89.0783 74.2812C88.922 73.2656 88.8439 72.1406 88.8439 70.9531C88.8439 69.7812 88.922 68.6719 89.0783 67.6562C89.245 66.6406 89.4845 65.7708 89.797 65.0677C90.1043 64.3646 90.495 63.8125 90.9533 63.4167C91.4064 63.0312 91.9116 62.849 92.5106 62.849C93.1095 62.849 93.6147 63.0312 94.0679 63.4167C94.5262 63.8125 94.9116 64.3698 95.2189 65.0833C95.5314 65.8073 95.771 66.6771 95.9377 67.6771C96.0991 68.6979 96.1825 69.8021 96.1825 70.9531C96.1825 72.1198 96.0991 73.2344 95.9429 74.2448ZM99.7658 70.9531C99.7658 69.1719 99.6095 67.5469 99.297 66.1198C98.9845 64.6875 98.521 63.4479 97.9064 62.4427C97.2918 61.4219 96.5262 60.6198 95.6252 60.0729C94.7137 59.5208 93.6668 59.2344 92.5106 59.2344C91.3543 59.2344 90.3022 59.5104 89.4012 60.0573C88.495 60.5938 87.7293 61.3854 87.12 62.401C86.5158 63.401 86.0522 64.6354 85.7293 66.0781C85.4168 67.4948 85.2554 69.1354 85.2554 70.9531C85.2554 72.7708 85.4168 74.4167 85.7293 75.8385C86.0522 77.2812 86.5158 78.5208 87.12 79.5104C87.7293 80.5208 88.495 81.3073 89.4012 81.849C90.3022 82.3958 91.3543 82.6719 92.5106 82.6719C93.6668 82.6719 94.7137 82.3906 95.6252 81.8333C96.5262 81.2812 97.2918 80.4844 97.9064 79.4688C98.521 78.4583 98.9845 77.2188 99.297 75.7865C99.6095 74.3594 99.7658 72.7344 99.7658 70.9531ZM107.385 63.6094C107.146 63.849 106.969 64.125 106.844 64.4271C106.703 64.7396 106.641 65.0677 106.641 65.4062C106.641 65.75 106.703 66.0833 106.833 66.3854C106.969 66.6927 107.146 66.9635 107.375 67.1979C107.604 67.4271 107.875 67.6094 108.182 67.75C108.49 67.8802 108.828 67.9479 109.188 67.9479C109.531 67.9479 109.865 67.8802 110.172 67.75C110.479 67.6094 110.755 67.4271 110.99 67.1979C111.214 66.9635 111.396 66.6875 111.521 66.3906C111.661 66.0833 111.724 65.75 111.724 65.4062C111.724 65.0677 111.656 64.7396 111.521 64.4323C111.385 64.1198 111.203 63.8438 110.969 63.6094C110.745 63.375 110.474 63.1875 110.161 63.0469C109.859 62.9167 109.531 62.849 109.188 62.849C108.828 62.849 108.495 62.9167 108.193 63.0469C107.88 63.1875 107.615 63.3698 107.385 63.6094ZM109.188 71.5156C108.349 71.5156 107.552 71.3542 106.812 71.026C106.062 70.7031 105.411 70.2552 104.87 69.7031C104.318 69.151 103.875 68.5 103.562 67.7604C103.24 67.026 103.078 66.2344 103.078 65.4062C103.078 64.5781 103.24 63.7812 103.562 63.0417C103.875 62.3021 104.323 61.6458 104.87 61.0938C105.411 60.5365 106.062 60.0938 106.812 59.7708C107.552 59.4427 108.349 59.2812 109.188 59.2812C110.016 59.2812 110.812 59.4427 111.557 59.7708C112.302 60.0938 112.958 60.5365 113.495 61.0938C114.042 61.6458 114.49 62.3021 114.802 63.0417C115.125 63.7812 115.286 64.5781 115.286 65.4062C115.286 66.2344 115.125 67.026 114.802 67.7604C114.49 68.5 114.047 69.151 113.495 69.7083C112.958 70.2552 112.302 70.7031 111.557 71.026C110.812 71.3542 110.016 71.5156 109.188 71.5156ZM124.641 61.052C124.641 60.8072 124.594 60.5676 124.5 60.3541C124.401 60.1405 124.271 59.9478 124.115 59.7968C123.958 59.6405 123.776 59.5051 123.563 59.4114C123.339 59.3176 123.11 59.2708 122.86 59.2708C122.318 59.2708 121.839 59.4999 121.432 59.9791L106.104 79.6874C105.818 80.0103 105.677 80.4166 105.677 80.8905C105.677 81.1301 105.719 81.3593 105.807 81.578C105.891 81.7864 106.021 81.9791 106.182 82.1458C106.339 82.3124 106.537 82.4374 106.75 82.5312C106.964 82.6249 107.193 82.6718 107.448 82.6718C107.979 82.6718 108.427 82.4791 108.781 82.0885L124.287 62.1353C124.521 61.8228 124.641 61.4635 124.641 61.052ZM119.245 74.7501C119.021 74.9792 118.839 75.2553 118.698 75.5678C118.573 75.8751 118.505 76.2084 118.505 76.5574C118.505 76.9115 118.573 77.2449 118.698 77.547C118.839 77.8595 119.021 78.1355 119.245 78.3647C119.474 78.5938 119.75 78.7761 120.057 78.9063C120.365 79.0365 120.698 79.1042 121.047 79.1042C121.396 79.1042 121.729 79.0365 122.037 78.9011C122.349 78.7657 122.62 78.5782 122.844 78.349C123.078 78.1147 123.266 77.849 123.396 77.5365C123.537 77.2292 123.604 76.9115 123.604 76.5574C123.604 76.2136 123.537 75.8803 123.396 75.5782C123.266 75.2657 123.078 74.9949 122.849 74.7709C122.62 74.5365 122.349 74.3542 122.037 74.2188C121.719 74.0782 121.396 74.0105 121.047 74.0105C120.698 74.0105 120.365 74.0782 120.057 74.2084C119.75 74.3438 119.474 74.5261 119.245 74.7501ZM118.682 82.1824C117.948 81.8595 117.292 81.4115 116.745 80.8647C116.198 80.3126 115.75 79.6615 115.432 78.9272C115.11 78.1928 114.943 77.3959 114.943 76.5574C114.943 75.7397 115.104 74.9428 115.427 74.198C115.74 73.4584 116.177 72.8022 116.735 72.2501C117.287 71.698 117.932 71.2553 118.667 70.9376C119.401 70.6147 120.203 70.448 121.047 70.448C121.87 70.448 122.662 70.6095 123.396 70.9272C124.136 71.2501 124.787 71.6824 125.339 72.2292C125.901 72.7761 126.339 73.4324 126.662 74.1667C126.985 74.9063 127.151 75.7136 127.151 76.5574C127.151 77.4063 126.985 78.2084 126.662 78.9428C126.339 79.6772 125.901 80.323 125.344 80.8803C124.802 81.4272 124.146 81.8699 123.401 82.1876C122.662 82.5105 121.87 82.672 121.047 82.672C120.203 82.672 119.417 82.5053 118.682 82.1824ZM51.7814 92.4791C51.5054 92.7551 51.37 93.0937 51.37 93.4791V104.104L42.4168 92.5728C42.1043 92.2343 41.745 92.0676 41.3283 92.0676C41.1252 92.0676 40.9377 92.0989 40.771 92.1718C40.5991 92.2395 40.4533 92.3437 40.3231 92.4739C40.1929 92.5989 40.0939 92.7551 40.0158 92.9322C39.9481 93.1041 39.9116 93.2864 39.9116 93.4791V108.229C39.9116 108.62 40.0522 108.953 40.3231 109.229C40.5991 109.505 40.9325 109.646 41.3283 109.646C41.7137 109.646 42.0522 109.505 42.3283 109.229C42.6043 108.953 42.745 108.62 42.745 108.229V97.6249L51.7085 109.156C52.0054 109.479 52.37 109.646 52.7814 109.646C52.9793 109.646 53.1616 109.615 53.3335 109.536C53.5054 109.469 53.6564 109.365 53.7866 109.234C53.922 109.109 54.021 108.958 54.0939 108.786C54.1616 108.615 54.2033 108.427 54.2033 108.229V93.4791C54.2033 93.0937 54.0575 92.7551 53.7814 92.4791C53.5106 92.203 53.172 92.0676 52.7814 92.0676C52.4012 92.0676 52.0575 92.203 51.7814 92.4791ZM65.3804 101.073L63.9637 97.4062L62.5418 101.073H65.3804ZM59.2241 109.229C58.9481 109.505 58.6095 109.646 58.2241 109.646C57.8335 109.646 57.495 109.505 57.2241 109.229C56.9533 108.953 56.8179 108.62 56.8179 108.229C56.8179 108.016 56.8595 107.802 56.9637 107.594L62.6147 93.0155C62.9689 92.2291 63.5418 92.0676 63.9637 92.0676C64.5835 92.0676 65.0418 92.3905 65.3022 93.0103L70.9897 107.667C71.0627 107.838 71.0991 108.026 71.0991 108.229C71.0991 108.62 70.9533 108.953 70.6825 109.229C70.4064 109.505 70.0679 109.646 69.6772 109.646C69.2866 109.646 68.9481 109.505 68.6877 109.229C68.5522 109.094 68.4481 108.943 68.37 108.781L66.4793 103.906H61.4429L59.5418 108.771C59.4689 108.943 59.3647 109.094 59.2241 109.229ZM75.3752 109.229C75.6512 109.505 75.9845 109.646 76.3804 109.646C76.7658 109.646 77.1043 109.505 77.3804 109.229C77.6564 108.953 77.797 108.62 77.797 108.229V94.901H81.6981C82.0887 94.901 82.422 94.7603 82.6981 94.4895C82.9741 94.2135 83.1147 93.8749 83.1147 93.4791C83.1147 93.0937 82.9741 92.7551 82.6981 92.4791C82.422 92.203 82.0835 92.0676 81.6981 92.0676H71.0679C70.672 92.0676 70.3387 92.203 70.0627 92.4791C69.7918 92.7551 69.646 93.0937 69.646 93.4791C69.646 93.8749 69.7918 94.2135 70.0627 94.4843C70.3387 94.7603 70.672 94.901 71.0679 94.901H74.9637V108.229C74.9637 108.62 75.1095 108.953 75.3752 109.229ZM87.1147 92.0676C87.5002 92.0676 87.8387 92.203 88.1147 92.4791C88.3908 92.7551 88.5262 93.0937 88.5262 93.4791V103.307C88.5262 103.786 88.62 104.24 88.797 104.661C88.9793 105.083 89.2293 105.453 89.547 105.776C89.8595 106.088 90.2293 106.344 90.6564 106.531C91.0835 106.719 91.5262 106.807 92.0158 106.807C92.4897 106.807 92.9481 106.719 93.37 106.536C93.7918 106.354 94.172 106.094 94.4845 105.781C94.8022 105.453 95.047 105.088 95.2345 104.661C95.4116 104.245 95.5106 103.792 95.5106 103.307V93.4791C95.5106 93.0937 95.646 92.7551 95.922 92.4791C96.1981 92.203 96.5366 92.0676 96.922 92.0676C97.3127 92.0676 97.6512 92.203 97.9272 92.4791C98.2033 92.7551 98.3387 93.0937 98.3387 93.4791V103.307C98.3387 103.885 98.2606 104.448 98.1095 104.984C97.9637 105.51 97.745 106.016 97.4741 106.484C97.1981 106.958 96.8647 107.391 96.4793 107.776C96.1043 108.156 95.672 108.49 95.1981 108.771C94.7345 109.047 94.2241 109.26 93.6877 109.417C93.1512 109.568 92.5835 109.646 92.0158 109.646C90.271 109.646 88.7658 109.021 87.5522 107.781C86.3231 106.552 85.6929 105.047 85.6929 103.307V93.4791C85.6929 93.0937 85.8335 92.7551 86.1095 92.4791C86.3856 92.203 86.7241 92.0676 87.1147 92.0676ZM103.724 94.901H106.406C106.771 94.901 107.12 94.9739 107.432 95.1093C107.766 95.2499 108.042 95.4426 108.286 95.6874C108.531 95.927 108.729 96.2187 108.865 96.5364C109.005 96.8645 109.073 97.2135 109.073 97.5833C109.073 97.9426 109.005 98.2864 108.865 98.6093C108.724 98.9322 108.531 99.2239 108.292 99.4635C108.047 99.7135 107.771 99.9062 107.448 100.042C107.125 100.187 106.771 100.255 106.406 100.255H103.724V94.901ZM101.75 92.1718C101.583 92.2447 101.432 92.3437 101.302 92.4739C101.172 92.6041 101.068 92.7603 101 92.9322C100.932 93.1041 100.891 93.2864 100.891 93.4791V108.229C100.891 108.62 101.036 108.953 101.312 109.234C101.583 109.505 101.922 109.646 102.312 109.646C102.703 109.646 103.042 109.505 103.312 109.229C103.589 108.953 103.724 108.62 103.724 108.229V103.078L106.344 102.953L110.104 108.963C110.396 109.411 110.812 109.646 111.307 109.646C111.5 109.646 111.688 109.609 111.854 109.536C112.026 109.469 112.182 109.365 112.318 109.234C112.448 109.104 112.547 108.953 112.615 108.786C112.688 108.615 112.724 108.427 112.724 108.229C112.724 107.958 112.646 107.698 112.495 107.453L109.271 102.281C109.646 102.052 109.979 101.792 110.266 101.5C110.62 101.156 110.927 100.766 111.172 100.349C111.417 99.9374 111.599 99.4895 111.724 99.0208C111.844 98.552 111.906 98.0676 111.906 97.5833C111.906 96.828 111.76 96.1093 111.469 95.4426C111.177 94.7812 110.781 94.1926 110.292 93.6874C109.797 93.1926 109.203 92.7916 108.547 92.4999C107.88 92.2083 107.156 92.0676 106.406 92.0676H102.312C102.109 92.0676 101.922 92.0989 101.75 92.1718ZM123.838 101.073L122.427 97.4062L121.005 101.073H123.838ZM117.687 109.229C117.411 109.505 117.073 109.646 116.682 109.646C116.292 109.646 115.958 109.505 115.682 109.229C115.411 108.953 115.276 108.62 115.276 108.229C115.276 108.016 115.323 107.802 115.417 107.594L121.073 93.0155C121.427 92.2291 122.005 92.0676 122.427 92.0676C123.042 92.0676 123.505 92.3905 123.76 93.0103L129.453 107.667C129.526 107.838 129.557 108.026 129.557 108.229C129.557 108.62 129.417 108.953 129.14 109.229C128.864 109.505 128.526 109.646 128.14 109.646C127.745 109.646 127.417 109.505 127.146 109.229C127.01 109.094 126.906 108.943 126.833 108.781L124.937 103.906H119.906L118 108.771C117.927 108.943 117.818 109.094 117.687 109.229ZM134.578 92.4791C134.307 92.203 133.969 92.0676 133.573 92.0676C133.188 92.0676 132.849 92.203 132.573 92.4791C132.302 92.7551 132.156 93.0937 132.156 93.4791V108.229C132.156 108.427 132.193 108.615 132.271 108.786C132.339 108.953 132.443 109.104 132.573 109.234C132.698 109.365 132.849 109.463 133.016 109.536C133.188 109.609 133.375 109.646 133.573 109.646H142.573C142.958 109.646 143.297 109.505 143.573 109.229C143.849 108.953 143.99 108.62 143.99 108.229C143.99 107.833 143.849 107.5 143.573 107.224C143.297 106.948 142.964 106.807 142.573 106.807H134.99V93.4791C134.99 93.0937 134.854 92.7551 134.578 92.4791ZM152.948 115.599C154.187 116.427 155.422 117.266 156.646 118.12C158.047 117.604 159.443 117.021 160.833 116.401C160.443 117.901 160.005 119.396 159.521 120.88C160.411 122.094 161.302 123.338 162.14 124.604C160.62 124.63 159.104 124.615 157.594 124.562C156.656 125.812 155.661 127.021 154.661 128.198C154.38 126.698 154.057 125.219 153.687 123.776C152.286 123.25 150.901 122.713 149.51 122.156C150.739 121.453 151.969 120.703 153.167 119.896C153.146 118.448 153.062 117.01 152.948 115.599ZM145.484 135.151C144.547 133.99 143.599 132.833 142.635 131.693C142.354 133.078 142.026 134.479 141.64 135.875C140.255 136.307 138.88 136.698 137.495 137.021C138.672 137.937 139.859 138.854 141.057 139.75C141.005 141.24 140.896 142.745 140.745 144.266C142.042 143.411 143.328 142.536 144.578 141.599C146.015 142.078 147.463 142.51 148.932 142.922C148.479 141.474 147.979 140.021 147.463 138.615C148.344 137.318 149.193 136.016 149.979 134.682C148.474 134.891 146.974 135.047 145.484 135.151ZM128.229 144.24C128.833 145.615 129.417 146.984 129.995 148.365C131.448 148.677 132.937 148.953 134.437 149.172C133.307 150.234 132.125 151.245 130.917 152.245C131.021 153.74 131.094 155.266 131.125 156.797C129.818 155.979 128.562 155.167 127.312 154.302C125.849 154.844 124.37 155.328 122.89 155.776C123.458 154.365 123.979 152.943 124.453 151.531C123.562 150.333 122.677 149.12 121.807 147.906C123.224 147.984 124.651 148.005 126.109 147.979C126.859 146.745 127.568 145.495 128.229 144.24ZM107.167 161.604C108.12 162.766 109.104 163.938 110.115 165.073C110.516 163.589 110.891 162.13 111.208 160.646C112.656 160.047 114.068 159.396 115.453 158.703C114.073 158.063 112.724 157.38 111.417 156.672C111.261 155.182 111.083 153.698 110.891 152.214C109.906 153.234 108.875 154.219 107.797 155.198C106.401 154.813 105.031 154.375 103.693 153.912C104.182 155.323 104.693 156.729 105.208 158.13C104.36 159.359 103.458 160.568 102.505 161.755C104.052 161.76 105.61 161.693 107.167 161.604ZM87.646 167.078C86.995 165.688 86.37 164.313 85.7866 162.912C84.2658 162.563 82.7606 162.198 81.271 161.755C82.5158 160.885 83.7189 159.964 84.8752 159.031C84.771 157.547 84.6825 156.052 84.6043 154.557C85.7554 155.38 86.9481 156.172 88.1825 156.943C89.4897 156.313 90.7658 155.646 91.995 154.948C91.7658 156.427 91.5106 157.896 91.245 159.37C92.3075 160.422 93.4012 161.458 94.5522 162.458C93.0262 162.74 91.4845 162.948 89.9325 163.13C89.2085 164.448 88.4429 165.771 87.646 167.078ZM68.88 153.109C67.9113 152.036 66.9946 150.927 66.1196 149.812C65.7759 151.266 65.4373 152.724 65.1248 154.188C63.7394 154.76 62.3332 155.286 60.8853 155.776C62.1925 156.604 63.5259 157.411 64.8957 158.161C65.0675 159.661 65.2707 161.177 65.505 162.682C66.6405 161.661 67.7394 160.615 68.8123 159.542C70.3488 159.823 71.8957 160.031 73.4373 160.208C72.6196 158.917 71.8488 157.62 71.1353 156.312C71.8019 154.969 72.453 153.625 73.0884 152.276C71.7134 152.594 70.3071 152.885 68.88 153.109ZM49.729 140.016C50.2498 141.344 50.8228 142.656 51.4478 143.969C52.8853 144.151 54.3175 144.271 55.7238 144.359C54.729 145.474 53.7238 146.578 52.7082 147.672C53.0207 149.135 53.3905 150.594 53.8123 152.062C52.38 151.464 50.9738 150.812 49.5675 150.12C48.2446 150.833 46.8853 151.536 45.5103 152.193C45.7082 150.672 45.9321 149.177 46.203 147.682C45.0988 146.578 44.0571 145.427 43.0259 144.266C44.5519 144.198 46.0519 144.094 47.5363 143.938C48.2603 142.62 48.9894 141.318 49.729 140.016ZM33.7502 135.656C34.9064 136.708 36.0783 137.74 37.2814 138.708C37.2866 137.188 37.3439 135.677 37.4533 134.188C38.7397 133.422 40.0106 132.646 41.2762 131.854C39.9481 131.375 38.6095 130.854 37.2814 130.276C37.0522 128.839 36.8595 127.422 36.7345 126.01C35.6616 127.042 34.5939 128.089 33.5314 129.146C32.0679 128.88 30.5991 128.568 29.1147 128.198C29.7762 129.599 30.4533 131.005 31.2085 132.375C30.5262 133.734 29.9012 135.104 29.2814 136.505C30.7866 136.26 32.2866 135.969 33.7502 135.656ZM26.5885 116.958C26.0729 118.359 25.5885 119.792 25.1562 121.25C24.2708 119.979 23.4427 118.661 22.6302 117.328C21.1198 117.214 19.6198 117.062 18.0938 116.88C19.0885 115.703 20.0781 114.562 21.1094 113.453C20.7865 111.922 20.5 110.391 20.2865 108.859C21.5938 109.63 22.9271 110.349 24.2552 111.016C25.5625 110.307 26.8854 109.599 28.2135 108.911C27.9323 110.307 27.7135 111.719 27.526 113.161C28.6406 114.089 29.7656 114.964 30.9167 115.797C29.4792 116.198 28.0313 116.589 26.5885 116.958ZM17.1458 96.5834C17.526 98.099 17.9792 99.5938 18.4531 101.068C19.2865 99.7917 20.151 98.5574 21.0469 97.3647C22.5417 97.4115 24.0313 97.4532 25.526 97.474C24.6615 96.3542 23.8177 95.1876 23.0208 93.9792C23.5938 92.6511 24.2188 91.3542 24.875 90.099C23.4115 90.3803 21.9427 90.6824 20.4844 91.0001C19.3854 89.9792 18.3333 88.9115 17.276 87.8074C17.0729 89.3438 16.8958 90.8907 16.7812 92.4428C15.4792 93.2188 14.1927 94.0313 12.9219 94.8699C14.3177 95.4845 15.7344 96.0522 17.1458 96.5834ZM14.125 72.3229C15.5677 71.8646 17.0521 71.4479 18.4948 71.0729C19.0573 69.6042 19.6458 68.1667 20.2865 66.75C20.9792 68.1146 21.6927 69.4375 22.4583 70.7188C23.9531 70.8229 25.4375 70.9479 26.9219 71.0833C25.9531 72.1094 24.9844 73.1771 24.0625 74.2917C24.5052 75.6719 24.974 77.026 25.4948 78.3438C24.0677 77.9062 22.6406 77.4531 21.224 76.9792C20.0365 77.8802 18.8542 78.8229 17.7031 79.8229C17.6562 78.2708 17.6406 76.7083 17.6927 75.1458C16.4792 74.2396 15.3021 73.2969 14.125 72.3229ZM29.1147 47.4114C28.1095 48.5885 27.12 49.7916 26.1877 51.0468C24.672 50.9895 23.1564 50.9791 21.6304 50.9999C22.4741 52.2655 23.3595 53.5155 24.2554 54.7291C23.7658 56.2083 23.3283 57.7083 22.9429 59.2083C24.3335 58.5833 25.7189 58.0051 27.12 57.4895C28.3543 58.3437 29.5835 59.1822 30.8283 60.0051C30.7085 58.5937 30.6304 57.1614 30.6095 55.7135C31.8127 54.9062 33.0366 54.151 34.2606 53.453C32.8804 52.8958 31.4845 52.3593 30.0835 51.8333C29.7189 50.3853 29.396 48.9114 29.1147 47.4114ZM41.1354 43.9167C40.1719 42.7708 39.2292 41.6198 38.2865 40.4583C36.8073 40.5625 35.2969 40.7135 33.7969 40.9271C34.5833 39.5938 35.4375 38.2917 36.3125 36.9948C35.7969 35.5885 35.2917 34.1354 34.8385 32.6875C36.3125 33.0937 37.7604 33.5312 39.1979 34.0104C40.4427 33.0729 41.7396 32.1979 43.026 31.3437C42.875 32.8646 42.776 34.3646 42.7188 35.8594C43.9164 36.755 45.0985 37.6715 46.2805 38.588L46.2812 38.5885C44.8906 38.9115 43.5208 39.2969 42.1302 39.7292C41.75 41.1302 41.4219 42.5312 41.1354 43.9167ZM53.7814 27.2448C54.3543 28.6198 54.9377 29.9948 55.547 31.3646C56.1981 30.1094 56.9116 28.8594 57.672 27.6302C59.1252 27.6094 60.547 27.625 61.9689 27.6979C61.0991 26.4844 60.2137 25.276 59.3179 24.0729C59.7866 22.6667 60.3127 21.2448 60.8856 19.8333C59.4064 20.276 57.922 20.7656 56.4585 21.3073C55.2137 20.4427 53.9533 19.625 52.6512 18.8125C52.6825 20.3385 52.7502 21.8646 52.8543 23.3646C51.6512 24.3646 50.4637 25.3698 49.3335 26.4323C50.8439 26.6562 52.3231 26.9323 53.7814 27.2448ZM73.6561 10.5364C74.6717 11.6666 75.6613 12.8385 76.6092 14.0051C78.1665 13.9114 79.7186 13.8489 81.2707 13.8489C80.3175 15.0364 79.4165 16.2499 78.5623 17.4739C79.0832 18.8801 79.5832 20.2812 80.078 21.6978C78.7446 21.2291 77.3748 20.7968 75.979 20.4114C74.9009 21.3853 73.8696 22.3697 72.88 23.3957C72.6925 21.9114 72.5155 20.427 72.354 18.9322C71.0467 18.2291 69.703 17.5416 68.3228 16.901C69.7082 16.2135 71.1248 15.5624 72.5623 14.9635C72.8905 13.4739 73.2603 12.0207 73.6561 10.5364ZM112.641 19.2968C111.974 20.6405 111.323 21.9843 110.682 23.3332C112.057 23.0103 113.464 22.7239 114.896 22.4999C115.865 23.5728 116.781 24.6822 117.651 25.7968C118 24.3437 118.333 22.8853 118.656 21.4218C120.031 20.8489 121.443 20.3228 122.891 19.8332C121.583 18.9999 120.245 18.1978 118.875 17.4478C118.714 15.9426 118.51 14.427 118.266 12.927C117.135 13.9426 116.026 14.9947 114.958 16.0624C113.427 15.7864 111.88 15.578 110.344 15.3957C111.161 16.6926 111.922 17.9843 112.641 19.2968ZM96.1252 8.53638C96.7814 9.92179 97.4064 11.2968 97.9845 12.6978C99.5106 13.0416 101.016 13.4114 102.505 13.8489C101.255 14.7239 100.057 15.6405 98.896 16.5728C99.0002 18.0624 99.0939 19.5572 99.172 21.0572C98.021 20.2239 96.8283 19.4322 95.5887 18.6666C94.2814 19.2968 93.0106 19.9635 91.7814 20.6562C92.0158 19.1822 92.2606 17.7135 92.521 16.2395C91.4741 15.1822 90.37 14.1458 89.2241 13.1458C90.7502 12.8697 92.2918 12.6614 93.8439 12.4739C94.5627 11.1562 95.3231 9.83846 96.1252 8.53638Z" fill="#FFBAFC"/>
</svg>
