<svg width="166" height="166" viewBox="0 0 166 166" fill="none" xmlns="http://www.w3.org/2000/svg">
<path fill-rule="evenodd" clip-rule="evenodd" d="M83.2603 161.458C39.8905 161.458 4.60921 126.177 4.60921 82.802C4.60921 39.4322 39.8905 4.15096 83.2603 4.15096C126.63 4.15096 161.917 39.4322 161.917 82.802C161.917 126.177 126.63 161.458 83.2603 161.458ZM159.276 50.6926C155.125 40.8645 149.177 32.0468 141.599 24.4687C134.021 16.8905 125.198 10.9426 115.375 6.78638C105.203 2.48429 94.4009 0.302002 83.2603 0.302002C72.1248 0.302002 61.3228 2.48429 51.1457 6.78638C41.328 10.9426 32.4998 16.8905 24.9269 24.4687C17.3488 32.0468 11.4009 40.8645 7.24463 50.6926C2.94254 60.8645 0.760254 71.6666 0.760254 82.802C0.760254 93.9426 2.94254 104.745 7.24463 114.917C11.4009 124.74 17.3488 133.562 24.9269 141.141C32.4998 148.719 41.328 154.667 51.1457 158.823C61.3228 163.125 72.1248 165.302 83.2603 165.302C94.4009 165.302 105.203 163.125 115.375 158.823C125.198 154.667 134.021 148.719 141.599 141.141C149.177 133.562 155.125 124.74 159.276 114.917C163.578 104.745 165.76 93.9426 165.76 82.802C165.76 71.6666 163.578 60.8645 159.276 50.6926ZM40.6509 51.849L36.1196 39.6042H30.3384L38.4478 60.5261H42.9165L50.8436 39.6042H45.1196L40.6509 51.849ZM58.6981 55.7656H67.8335V60.526H53.521V39.625H67.8335V44.224H58.6981V47.3802H67.7137V51.901H58.6981V55.7656ZM74.2552 57.7655C75.2552 58.7343 76.4479 59.5051 77.7917 60.0572C79.1406 60.6093 80.599 60.8905 82.1354 60.8905C82.9062 60.8905 83.6979 60.8072 84.4844 60.6458C85.2708 60.4791 86.0521 60.2187 86.8021 59.8749C87.5521 59.5312 88.2865 59.0885 88.974 58.5624C89.6667 58.0364 90.3125 57.401 90.8958 56.677L91.0625 56.4739V48.9843H81.974V53.677H85.9583V54.453C85.4688 54.8437 84.9271 55.1614 84.3281 55.4062C83.651 55.6926 82.9115 55.8385 82.1458 55.8385C81.3229 55.8385 80.5469 55.6874 79.8385 55.3853C79.1198 55.0833 78.4844 54.6614 77.9479 54.1301C77.4115 53.5989 76.9792 52.9791 76.6771 52.2812C76.3698 51.5937 76.2188 50.8437 76.2188 50.0416C76.2188 49.2603 76.3698 48.5103 76.6771 47.828C76.9792 47.1353 77.4115 46.5155 77.9427 45.9895C78.4844 45.4687 79.1198 45.0468 79.8385 44.7499C80.5521 44.4478 81.3281 44.2916 82.1458 44.2916C83.1458 44.2916 84.0573 44.4895 84.8594 44.8697C85.651 45.2395 86.3802 45.8801 87.0312 46.7603L87.5469 47.4635L91.1771 43.7603L90.7396 43.2447C89.724 42.0364 88.474 41.0624 87.0208 40.3385C85.5521 39.6093 83.9115 39.2395 82.1354 39.2395C80.599 39.2395 79.1406 39.526 77.7917 40.0885C76.4479 40.6458 75.2552 41.4166 74.2448 42.3853C73.2344 43.3541 72.4219 44.5103 71.8438 45.8124C71.2656 47.1301 70.9688 48.552 70.9688 50.0416C70.9688 51.5676 71.2656 53.0051 71.8594 54.328C72.4427 55.6405 73.25 56.7968 74.2552 57.7655ZM104.26 47.5209L102.151 52.0209H106.338L104.26 47.5209ZM92.4321 60.5261L102.318 39.6042H106.193L116.083 60.5261H110.307L108.51 56.6407H100.026L98.203 60.5261H92.4321ZM131.005 50.5261L123.911 39.6042H118.542V60.5261H123.719V48.6772L131.344 60.5261H136.182V39.6042H131.005V50.5261ZM74.9323 113.786C75.6927 115.906 76.276 118.062 76.5208 120.302C76.5364 120.458 76.5 120.667 76.4062 120.776C74.9739 122.338 73.9635 124.151 73.2448 126.135C73.216 126.219 73.1816 126.302 73.1471 126.384C73.1005 126.495 73.0537 126.607 73.0208 126.724C72.9531 126.963 72.8385 126.979 72.6198 126.896C70.6302 126.115 68.6979 125.203 66.8593 124.104C63.3958 122.016 60.4479 119.385 58.2031 116C56.1875 112.953 54.9375 109.609 54.2864 106.026C53.7239 102.932 53.6093 99.8124 53.802 96.677C54.1562 91.0468 55.3698 85.5833 57.0781 80.2239C57.6326 78.4782 58.2558 76.7522 58.8787 75.0272L58.8787 75.0271C59.1627 74.2406 59.4467 73.4544 59.7239 72.6666C59.7476 72.5921 59.7801 72.5199 59.8199 72.4313L59.82 72.4311L59.8201 72.4309L59.8207 72.4296C59.842 72.3823 59.8653 72.3303 59.8906 72.2708C59.9633 72.4238 60.0337 72.5731 60.1026 72.7196C60.3199 73.1812 60.5233 73.6133 60.7448 74.0364C62.2395 76.927 64.302 79.3801 66.7031 81.552C68.7321 83.3949 70.9442 85.0091 73.1534 86.6212C73.4166 86.8133 73.6798 87.0054 73.9427 87.1978C75.9635 88.677 77.9687 90.1926 79.802 91.9062C82.7552 94.6614 85.0312 97.8645 86.3437 101.708C87.026 103.703 87.4635 105.75 87.6458 107.849C87.7069 108.592 87.7392 109.335 87.7716 110.079L87.7716 110.079L87.7716 110.08C87.789 110.478 87.8063 110.877 87.8281 111.276C87.8437 111.474 87.7604 111.583 87.5885 111.672C84.6562 113.172 81.9739 115.026 79.6354 117.359C79.6303 117.365 79.625 117.371 79.6194 117.376C79.6137 117.382 79.6076 117.388 79.6012 117.393C79.5869 117.406 79.5707 117.42 79.5515 117.436L79.5508 117.436L79.5171 117.464C79.5105 117.47 79.5037 117.476 79.4965 117.482C79.4862 117.491 79.4752 117.5 79.4635 117.51C79.4529 117.39 79.4446 117.288 79.4372 117.196L79.427 117.073C79.25 115.365 78.7395 113.755 78.0468 112.193C77.0573 109.948 75.7552 107.885 74.4531 105.823L74.1463 105.337C72.7535 103.131 71.3658 100.933 70.177 98.6093C69.0833 96.4739 68.1666 94.2655 67.5312 91.9478C67.5052 91.8645 67.4791 91.7916 67.3958 91.7135C67.402 91.8557 67.4068 91.9975 67.4116 92.1389L67.4116 92.1399C67.423 92.4747 67.4342 92.8076 67.4635 93.1405C67.6406 95.3072 68.1458 97.3958 68.8489 99.4374C69.6562 101.807 70.6979 104.078 71.7395 106.349C71.8286 106.542 71.9178 106.735 72.007 106.929L72.0132 106.942L72.0195 106.956C73.058 109.206 74.096 111.454 74.9323 113.786ZM112.497 100.166C112.486 100.175 112.476 100.183 112.466 100.191L112.466 100.191C112.41 100.234 112.373 100.263 112.339 100.297C110.917 101.677 109.365 102.885 107.729 104C104.891 105.943 101.849 107.547 98.7917 109.109C97.8649 109.585 96.9363 110.058 96.0076 110.53L96.0029 110.533C93.7809 111.663 91.5585 112.794 89.3594 113.969C86.3126 115.594 83.4428 117.484 80.8803 119.823C75.6563 124.589 73.4063 130.552 73.6615 137.547C73.6824 138.078 73.7449 138.958 73.9636 141.141C74.0364 141.026 74.0781 140.953 74.1197 140.881L74.1199 140.88C76.6928 135.615 80.2449 131.099 84.6355 127.24C89.0105 123.396 93.9376 120.427 99.2188 118.021C99.2585 117.999 99.3056 117.983 99.3534 117.966L99.3535 117.966C99.3747 117.958 99.396 117.951 99.4167 117.943C99.4201 117.953 99.4256 117.963 99.4319 117.974L99.4321 117.975C99.4355 117.981 99.4391 117.988 99.4428 117.995C99.3624 118.05 99.2845 118.107 99.2057 118.165L99.2028 118.167C99.1702 118.191 99.1375 118.215 99.1042 118.24C94.5261 121.568 90.1772 125.156 86.3126 129.302C83.698 132.099 81.3594 135.104 79.5105 138.474C77.1615 142.75 75.8126 147.287 76.0313 152.219C76.0463 152.519 76.071 152.82 76.096 153.124L76.099 153.162C76.166 153.095 76.201 153.025 76.2346 152.958C76.248 152.932 76.2612 152.906 76.2761 152.88C76.4006 152.656 76.5204 152.429 76.6401 152.203C76.9213 151.671 77.202 151.139 77.5417 150.646C78.849 148.76 80.6303 147.385 82.5417 146.167C84.4709 144.936 86.5062 143.894 88.5441 142.851C88.8941 142.672 89.2442 142.493 89.5938 142.313C92.4063 140.859 95.1824 139.344 97.7865 137.526C102.953 133.901 106.802 129.214 109.203 123.354C110.891 119.208 111.797 114.88 112.255 110.453C112.568 107.385 112.641 104.302 112.589 101.224C112.585 100.973 112.57 100.725 112.555 100.458L112.555 100.457C112.549 100.353 112.542 100.246 112.537 100.135C112.523 100.146 112.51 100.157 112.497 100.166ZM97.125 82.7604C100.276 79.3385 104.005 76.6562 108.062 74.4115C109.063 73.8585 110.089 73.3487 111.113 72.8395C111.556 72.6197 111.998 72.4001 112.437 72.1771C112.513 72.1393 112.588 72.1084 112.694 72.0651C112.719 72.0546 112.747 72.0434 112.776 72.0312C112.797 76.8438 112.219 81.5104 110.828 86.0625C109.167 91.5 106.453 96.3438 102.703 100.615C99.8854 103.823 96.6458 106.542 93.0469 108.922C93.0469 108.844 93.0456 108.774 93.0443 108.708C93.0421 108.588 93.0401 108.483 93.0469 108.375C93.3958 103.802 94.5937 99.4427 96.3385 95.2188C97.7083 91.9062 99.3906 88.7552 101.266 85.7031C101.323 85.6146 101.375 85.526 101.385 85.3906C101.302 85.4479 101.214 85.5104 101.13 85.5729C98.8958 87.3542 97.0156 89.4531 95.3802 91.7865C93.1146 95.0156 91.401 98.5312 89.9948 102.203C89.9427 102.339 89.8906 102.469 89.8385 102.599C89.4375 98.2917 90.3854 94.9062 91.2292 92.4479C92.4948 88.7969 94.5156 85.599 97.125 82.7604Z" fill="#97D5FE"/>
</svg>
