<svg width="173" height="173" viewBox="0 0 173 173" fill="none" xmlns="http://www.w3.org/2000/svg">
<path fill-rule="evenodd" clip-rule="evenodd" d="M165.51 53.401C161.182 43.1562 154.99 33.9635 147.089 26.0676C139.193 18.1666 129.995 11.9635 119.755 7.63534C109.146 3.15096 97.8906 0.880127 86.2812 0.880127C74.6771 0.880127 63.4115 3.15096 52.8073 7.63534C42.5625 11.9635 33.3698 18.1666 25.474 26.0676C17.5729 33.9635 11.3698 43.151 7.04167 53.401C2.55729 63.9999 0.28125 75.2655 0.28125 86.8749C0.28125 90.6718 0.53125 94.4947 1.03125 98.2291C3.73437 118.729 13.7969 137.594 29.375 151.349C37.0625 158.135 45.7969 163.453 55.3281 167.125C65.1979 170.937 75.6094 172.87 86.2812 172.87C96.9479 172.87 107.359 170.937 117.229 167.125C126.766 163.453 135.49 158.135 143.188 151.349C158.755 137.594 168.828 118.729 171.531 98.2291C172.021 94.4947 172.276 90.6718 172.276 86.8749C172.276 75.2655 169.995 63.9999 165.51 53.401ZM7.36458 86.8749C7.36458 43.3645 42.7708 7.95825 86.2812 7.95825C129.792 7.95825 165.188 43.3645 165.188 86.8749C165.188 89.776 165.031 92.6978 164.719 95.5728C164.641 96.2916 164.026 96.8333 163.302 96.8333H9.26042C8.54167 96.8333 7.92708 96.2916 7.84896 95.5728C7.53125 92.6978 7.36458 89.776 7.36458 86.8749ZM86.2812 165.781C49.276 165.781 17.3698 139.87 9.32292 104.417C9.125 103.536 9.80729 102.698 10.7135 102.698H161.849C162.755 102.698 163.438 103.536 163.24 104.417C155.182 139.87 123.292 165.781 86.2812 165.781ZM84.4845 47.3959L81.3856 40.2032C81.1147 39.5938 81.2033 38.8751 81.6043 38.3386L90.1825 26.948L81.0366 19.4167L50.9897 30.2813L75.6616 50.5886L84.4845 47.3959ZM72.6927 54.1405L71.901 58.7499L67.4062 84.8072L42.8906 64.6405L48.1823 33.9739L72.6927 54.1405ZM103.552 64.8125L101.823 74.8073L71.9688 85.599L77.2604 54.9323L86.3229 51.6562L91.0052 62.474C91.2656 63.0938 91.849 63.5208 92.5104 63.5938L103.552 64.8125ZM86.1665 41.8386L92.8853 42.5782L91.5192 42.4289L93.9783 42.7001L92.8853 42.5782L98.5259 43.1979L98.7707 43.224V43.2285L106.239 44.0522L114.083 62.2136L94.005 59.9949L86.1665 41.8438V41.8386ZM129.662 44.5938L117.516 60.7188L109.677 42.5678L121.818 26.4324L129.662 44.5938ZM118.896 24.0938L106.667 40.3334L104.75 40.1251H104.74L86.4741 38.099L98.6929 21.8699L118.896 24.0938ZM97.4113 84.3542C97.4946 84.1667 97.5311 83.9688 97.5311 83.7604C97.5311 83.5521 97.4946 83.3542 97.4113 83.1615C97.3332 82.974 97.2238 82.8021 97.078 82.6562C96.9321 82.5104 96.7603 82.401 96.5728 82.3229C96.38 82.2396 96.1821 82.2031 95.9738 82.2031C95.7655 82.2031 95.5675 82.2396 95.38 82.3229C95.1873 82.401 95.0207 82.5104 94.8748 82.6562C94.729 82.8021 94.6144 82.974 94.5363 83.1615C94.4582 83.3542 94.4165 83.5521 94.4165 83.7604C94.4165 83.9688 94.4582 84.1667 94.5363 84.3542C94.6144 84.5469 94.729 84.7135 94.8748 84.8594C95.0207 85.0052 95.1873 85.1198 95.38 85.1979C95.5675 85.276 95.7655 85.3177 95.9738 85.3177C96.1821 85.3177 96.38 85.276 96.5728 85.1979C96.7603 85.1198 96.9321 85.0052 97.078 84.8594C97.2238 84.7135 97.3332 84.5469 97.4113 84.3542ZM105.745 79.651C105.745 79.8594 105.708 80.0573 105.625 80.25C105.547 80.4375 105.438 80.6094 105.292 80.7552C105.146 80.901 104.974 81.0104 104.787 81.0938C104.594 81.1719 104.396 81.2083 104.188 81.2083C103.979 81.2083 103.781 81.1719 103.594 81.0938C103.401 81.0104 103.235 80.901 103.089 80.7552C102.943 80.6094 102.828 80.4375 102.75 80.25C102.672 80.0573 102.63 79.8594 102.63 79.651C102.63 79.4479 102.672 79.25 102.75 79.0573C102.828 78.8646 102.943 78.6979 103.089 78.5521C103.235 78.4062 103.401 78.2917 103.594 78.2135C103.781 78.1354 103.979 78.0938 104.188 78.0938C104.396 78.0938 104.594 78.1354 104.787 78.2135C104.974 78.2917 105.146 78.4062 105.292 78.5521C105.438 78.6979 105.547 78.8646 105.625 79.0573C105.708 79.25 105.745 79.4479 105.745 79.651ZM114.693 80.25C114.771 80.0573 114.813 79.8594 114.813 79.651C114.813 79.4479 114.771 79.25 114.693 79.0573C114.615 78.8646 114.5 78.6979 114.354 78.5521C114.208 78.4062 114.042 78.2917 113.849 78.2135C113.656 78.1354 113.458 78.0938 113.25 78.0938C113.047 78.0938 112.849 78.1354 112.656 78.2135C112.464 78.2917 112.297 78.4062 112.151 78.5521C112.005 78.6979 111.891 78.8646 111.813 79.0573C111.735 79.25 111.693 79.4479 111.693 79.651C111.693 79.8594 111.735 80.0573 111.813 80.25C111.891 80.4375 112.005 80.6094 112.151 80.7552C112.297 80.901 112.464 81.0104 112.656 81.0938C112.849 81.1719 113.047 81.2083 113.25 81.2083C113.458 81.2083 113.656 81.1719 113.849 81.0938C114.042 81.0104 114.208 80.901 114.354 80.7552C114.5 80.6094 114.615 80.4375 114.693 80.25ZM110.984 74.5522C110.984 74.7605 110.948 74.9584 110.87 75.1511C110.786 75.3438 110.677 75.5105 110.531 75.6563C110.385 75.8022 110.213 75.9167 110.026 75.9949C109.833 76.073 109.635 76.1147 109.427 76.1147C109.224 76.1147 109.021 76.073 108.833 75.9949C108.64 75.9167 108.474 75.8022 108.328 75.6563C108.182 75.5105 108.068 75.3438 107.989 75.1511C107.911 74.9584 107.87 74.7605 107.87 74.5522C107.87 74.349 107.911 74.1511 107.989 73.9584C108.068 73.7657 108.182 73.599 108.328 73.4532C108.474 73.3074 108.64 73.1928 108.833 73.1147C109.021 73.0365 109.224 72.9949 109.427 72.9949C109.635 72.9949 109.833 73.0365 110.026 73.1147C110.213 73.1928 110.385 73.3074 110.531 73.4532C110.677 73.599 110.786 73.7657 110.87 73.9584C110.948 74.1511 110.984 74.349 110.984 74.5522ZM101.38 90.7292C101.458 90.5365 101.5 90.3386 101.5 90.1303C101.5 89.9272 101.458 89.7292 101.38 89.5365C101.302 89.3438 101.188 89.1772 101.042 89.0313C100.896 88.8855 100.729 88.7709 100.537 88.6928C100.344 88.6147 100.146 88.573 99.9377 88.573C99.7345 88.573 99.5366 88.6147 99.3439 88.6928C99.1512 88.7709 98.9845 88.8855 98.8387 89.0313C98.6929 89.1772 98.5783 89.3438 98.5002 89.5365C98.422 89.7292 98.3804 89.9272 98.3804 90.1303C98.3804 90.3386 98.422 90.5365 98.5002 90.7292C98.5783 90.922 98.6929 91.0886 98.8387 91.2345C98.9845 91.3803 99.1512 91.4949 99.3439 91.573C99.5366 91.6511 99.7345 91.6928 99.9377 91.6928C100.146 91.6928 100.344 91.6511 100.537 91.573C100.729 91.4949 100.896 91.3803 101.042 91.2345C101.188 91.0886 101.302 90.922 101.38 90.7292ZM111.979 86.7343C111.979 86.9426 111.938 87.1405 111.859 87.328C111.781 87.5208 111.667 87.6874 111.521 87.8333C111.375 87.9791 111.208 88.0937 111.016 88.1718C110.823 88.2499 110.625 88.2916 110.422 88.2916C110.214 88.2916 110.016 88.2499 109.823 88.1718C109.63 88.0937 109.464 87.9791 109.318 87.8333C109.172 87.6874 109.057 87.5208 108.979 87.328C108.901 87.1405 108.859 86.9426 108.859 86.7343C108.859 86.526 108.901 86.328 108.979 86.1353C109.057 85.9478 109.172 85.776 109.318 85.6301C109.464 85.4843 109.63 85.3749 109.823 85.2968C110.016 85.2135 110.214 85.177 110.422 85.177C110.625 85.177 110.823 85.2135 111.016 85.2968C111.208 85.3749 111.375 85.4843 111.521 85.6301C111.667 85.776 111.781 85.9478 111.859 86.1353C111.938 86.328 111.979 86.526 111.979 86.7343ZM105.062 86.198C105.141 86.0053 105.182 85.8074 105.182 85.599C105.182 85.3959 105.141 85.198 105.062 85.0053C104.984 84.8126 104.87 84.6459 104.724 84.5001C104.578 84.3542 104.411 84.2397 104.219 84.1615C104.026 84.0834 103.828 84.0417 103.62 84.0417C103.417 84.0417 103.219 84.0834 103.026 84.1615C102.833 84.2397 102.667 84.3542 102.521 84.5001C102.375 84.6459 102.26 84.8126 102.182 85.0053C102.104 85.198 102.062 85.3959 102.062 85.599C102.062 85.8074 102.104 86.0053 102.182 86.198C102.26 86.3855 102.375 86.5574 102.521 86.7032C102.667 86.849 102.833 86.9636 103.026 87.0417C103.219 87.1199 103.417 87.1563 103.62 87.1563C103.828 87.1563 104.026 87.1199 104.219 87.0417C104.411 86.9636 104.578 86.849 104.724 86.7032C104.87 86.5574 104.984 86.3855 105.062 86.198ZM65.953 138.641V135.271H54.1509V152.458H57.9894V145.724H65.5623V142.354H57.9894V138.641H65.953ZM84.224 140.979C84.224 143.729 83.1354 145.51 80.9531 146.312L85.3073 152.458H80.5833L76.776 146.979H74.1198V152.458H70.2812V135.271H76.7969C79.4688 135.271 81.375 135.724 82.5156 136.625C83.6562 137.526 84.224 138.979 84.224 140.979ZM79.599 143.016C80.0781 142.594 80.3125 141.917 80.3125 140.99C80.3125 140.062 80.0677 139.427 79.5781 139.083C79.0833 138.74 78.224 138.568 76.9948 138.568H74.1198V143.656H76.9219C78.2344 143.656 79.125 143.443 79.599 143.016ZM101.636 138.693V135.271H89.2397V152.458H101.901V149.068H93.0783V145.5H100.771V142.229H93.0783V138.693H101.636ZM118.797 135.271V138.693H110.239V142.229H117.937V145.5H110.239V149.068H119.068V152.458H106.401V135.271H118.797ZM45.3019 112.526C45.3019 112.026 45.4842 111.625 45.854 111.323C46.2238 111.021 46.7238 110.865 47.3644 110.865C48.953 110.865 50.4946 111.432 51.9894 112.562L53.9321 109.76C53.078 109.042 52.078 108.479 50.9321 108.089C49.7811 107.693 48.6353 107.5 47.4894 107.5C45.7342 107.5 44.2707 107.943 43.0988 108.828C41.9269 109.714 41.3436 110.969 41.3436 112.599C41.3436 114.234 41.8019 115.427 42.729 116.193C43.6561 116.953 45.1196 117.573 47.1196 118.047C48.38 118.359 49.2238 118.667 49.6509 118.969C50.078 119.271 50.2915 119.682 50.2915 120.198C50.2915 120.714 50.0884 121.125 49.6873 121.427C49.2863 121.729 48.7342 121.88 48.0311 121.88C46.4582 121.88 44.7446 121.073 42.8905 119.448L40.604 122.25C42.7811 124.266 45.2342 125.276 47.9582 125.276C49.8384 125.276 51.3592 124.797 52.5155 123.839C53.6717 122.88 54.2498 121.63 54.2498 120.089C54.2498 118.547 53.8019 117.375 52.8957 116.573C51.9946 115.771 50.729 115.167 49.0988 114.766C47.4686 114.365 46.4269 114.016 45.9738 113.719C45.5259 113.422 45.3019 113.026 45.3019 112.526ZM63.1509 120.641C63.7915 121.438 64.6509 121.833 65.7342 121.833C66.8123 121.833 67.6717 121.438 68.3019 120.641C68.9321 119.844 69.2498 118.76 69.2498 117.385V107.891H73.0832V117.505C73.0832 120 72.3957 121.911 71.0207 123.25C69.6405 124.583 67.88 125.25 65.7342 125.25C63.5832 125.25 61.8175 124.578 60.4321 123.234C59.0467 121.891 58.354 119.979 58.354 117.505V107.891H62.1925V117.385C62.1925 118.76 62.5103 119.844 63.1509 120.641ZM93.1717 116.328H89.3123V121.047C88.4269 121.557 87.3228 121.807 85.9946 121.807C84.6665 121.807 83.5207 121.323 82.5623 120.344C81.604 119.37 81.1248 118.073 81.1248 116.448C81.1248 114.828 81.6248 113.521 82.6248 112.526C83.6248 111.536 84.854 111.036 86.3123 111.036C87.0675 111.036 87.7707 111.167 88.4165 111.422C89.0623 111.672 89.7707 112.135 90.5415 112.807L92.5363 109.932C90.7134 108.307 88.5728 107.5 86.104 107.5C83.6353 107.5 81.5311 108.349 79.7863 110.057C78.0415 111.76 77.1665 113.885 77.1665 116.438C77.1665 118.984 78.0207 121.094 79.7342 122.766C81.4478 124.438 83.5675 125.276 86.0936 125.276C89.1092 125.276 91.4686 124.323 93.1717 122.422V116.328ZM109.771 125.078L108.172 121.365H100.969L99.37 125.078H95.2866L102.714 107.891H106.427L113.854 125.078H109.771ZM104.583 113.005L102.422 118H106.724L104.583 113.005ZM127.599 118.932C129.776 118.13 130.87 116.349 130.87 113.594C130.87 111.599 130.297 110.146 129.162 109.245C128.021 108.344 126.115 107.891 123.443 107.891H116.927V125.078H120.761V119.594H123.417L127.229 125.078H131.953L127.599 118.932ZM126.958 113.609C126.958 114.536 126.724 115.214 126.245 115.635C125.771 116.062 124.875 116.276 123.568 116.276H120.761V111.188H123.641C124.87 111.188 125.729 111.359 126.224 111.703C126.714 112.047 126.958 112.682 126.958 113.609Z" fill="#FFBAFC"/>
</svg>
