<svg width="159" height="196" viewBox="0 0 159 196" fill="none" xmlns="http://www.w3.org/2000/svg">
<path fill-rule="evenodd" clip-rule="evenodd" d="M74.5315 8.5105C74.5315 5.91834 76.2836 4.05918 77.9757 2.26366L77.9757 2.26358L77.9758 2.26354C78.5208 1.68526 79.0595 1.11357 79.5315 0.526123C79.9399 1.01618 80.3844 1.50136 80.8342 1.99223C82.564 3.8803 84.371 5.85257 84.495 8.5105C84.7291 11.2364 82.8745 13.1763 81.0866 15.0466L81.0865 15.0466C80.5276 15.6313 79.9751 16.2092 79.495 16.8022C79.0177 16.2017 78.4662 15.6168 77.9078 15.0245C76.1508 13.1611 74.326 11.2257 74.5315 8.5105ZM50.6825 17.5416C50.2366 13.117 53.126 9.77583 55.8497 6.62629C56.4347 5.9498 57.0121 5.28215 57.5471 4.6145C58.1666 5.1703 58.823 5.72053 59.4875 6.27759C62.7336 8.99881 66.1741 11.883 66.4638 16.3749C66.9457 20.9102 63.9865 24.3293 61.1926 27.5572C60.6048 28.2364 60.0242 28.9071 59.4846 29.578C58.8219 28.9546 58.1106 28.3391 57.39 27.7155L57.3898 27.7154C54.1915 24.9477 50.8101 22.0217 50.6825 17.5416ZM99.691 6.10645C96.3784 8.82121 92.8396 11.7213 92.479 16.2551C91.9229 20.9781 95.0664 24.4667 97.9974 27.7194C98.5249 28.3047 99.0454 28.8824 99.5363 29.4583C100.201 28.8343 100.92 28.217 101.649 27.5901C104.837 24.8522 108.238 21.9302 108.302 17.4635C108.872 13.0699 105.97 9.77256 103.241 6.67252C102.632 5.98001 102.031 5.29734 101.479 4.6145C100.905 5.11157 100.302 5.60586 99.691 6.10645ZM37.229 11.6614C37.6592 11.8247 38.1113 11.9708 38.5686 12.1186C40.2982 12.6774 42.1028 13.2604 43.0832 14.8958C43.6003 16.447 43.4147 18.0746 43.2295 19.6985L43.2295 19.6986C43.1498 20.3974 43.0702 21.0954 43.0467 21.7864C40.5623 21.6301 38.3175 20.6197 36.2603 19.3333C36.4946 16.7655 36.8019 14.1926 37.229 11.6614ZM119.441 12.1832C118.139 12.9191 116.832 13.6583 115.938 14.8541C115.38 16.5038 115.623 18.2556 115.863 19.9783C115.957 20.6541 116.05 21.3254 116.094 21.9843C118.5 21.4739 120.745 20.4635 122.802 19.177C122.646 16.4114 122.068 13.7239 121.094 11.1926C120.567 11.5467 120.004 11.8647 119.441 12.1832ZM22.146 31.2135C22.9094 29.2537 24.2932 27.6872 25.6633 26.1363C26.172 25.5604 26.6788 24.9867 27.1512 24.3958C27.5788 24.8469 28.0443 25.2953 28.5172 25.7507L28.5172 25.7507C30.6592 27.8137 32.9505 30.0206 32.5366 33.276C32.5961 36.0043 30.6779 37.8509 28.835 39.6252C28.2574 40.1812 27.6873 40.7301 27.1877 41.2968C26.8184 40.8732 26.4199 40.4443 26.0133 40.0066C23.7299 37.5491 21.1911 34.8166 22.146 31.2135ZM130.559 25.6421C128.419 27.7397 126.119 29.995 126.214 33.1562C126.367 35.9962 128.348 37.9562 130.263 39.8502L130.263 39.8504C130.764 40.3461 131.261 40.8373 131.719 41.3385C132.219 40.7328 132.77 40.149 133.324 39.5629C134.873 37.9218 136.439 36.2627 136.953 34.0521C137.547 30.9261 135.488 28.5978 133.534 26.3875C132.932 25.7069 132.34 25.0375 131.839 24.3594C131.434 24.7846 131 25.21 130.559 25.6421ZM43.0836 33.0051L43.1277 33.0274C48.8955 35.9399 55.9198 39.4868 57.0419 46.5937C58.4339 52.3795 55.0754 57.3413 51.963 61.9396L51.9629 61.9398L51.9627 61.94C51.4302 62.7268 50.9048 63.5029 50.4117 64.2708C49.8573 63.9489 49.2866 63.6259 48.7075 63.2982L48.706 63.2973L48.7058 63.2972C43.3346 60.2573 37.2396 56.8078 36.6097 50.0572C35.4882 44.7386 38.371 40.3244 41.1359 36.0906L41.1359 36.0905C41.8123 35.0548 42.4817 34.0299 43.0836 33.0051ZM114.539 33.6749C109.152 36.5646 103.012 39.8575 101.901 46.4376C100.429 52.1019 103.695 56.9694 106.734 61.4988L106.734 61.4991C107.372 62.4504 108.001 63.3868 108.573 64.3126C109.149 63.9669 109.729 63.6251 110.31 63.2828L110.31 63.2827L110.31 63.2827L110.31 63.2826L110.31 63.2825L110.31 63.2825L110.31 63.2824L110.31 63.2824L110.31 63.2823L110.311 63.2823L110.311 63.2822L110.311 63.2821L110.311 63.2821L110.311 63.282L110.311 63.282L110.311 63.2819L110.311 63.2819L110.311 63.2818L110.311 63.2817L110.311 63.2817C112.933 61.7367 115.568 60.1836 117.917 58.2397C122.182 54.6928 123.615 48.422 121.833 43.2449C120.782 40.6711 119.279 38.3421 117.781 36.0207C117.127 35.0068 116.474 33.9944 115.859 32.9636C115.427 33.199 114.986 33.4356 114.539 33.6749ZM10.4009 34.4844C11.7795 34.5935 13.1606 34.7382 14.5426 34.883L14.5428 34.883L14.543 34.883L14.5433 34.883L14.5435 34.8831L14.5437 34.8831L14.544 34.8831L14.5442 34.8831L14.5444 34.8831L14.5447 34.8832L14.5449 34.8832L14.5451 34.8832L14.5454 34.8832L14.5456 34.8833L14.5459 34.8833L14.5462 34.8833L14.5466 34.8834L14.547 34.8834L14.5475 34.8835L14.5479 34.8835L14.5483 34.8836L14.5487 34.8836C15.1434 34.9459 15.7383 35.0082 16.3332 35.0677C16.3954 35.344 16.4578 35.6196 16.52 35.895C16.9578 37.831 17.3916 39.7495 17.7655 41.724C15.4373 41.4531 13.1509 41.0625 10.8644 40.4792C10.6717 38.4531 10.5155 36.4688 10.4009 34.4844ZM21.8751 54.1876C19.7449 49.2813 13.9272 47.9949 9.07826 47.9167C8.92546 48.7089 8.73605 49.5224 8.54377 50.3483C7.6677 54.1111 6.73196 58.1302 8.92722 61.547C10.9015 64.7355 14.4496 65.7853 17.8724 66.798L17.8725 66.7981C18.8833 67.0971 19.8831 67.393 20.8283 67.7397C21.0283 67.0705 21.2556 66.3844 21.4867 65.6866L21.4868 65.6865C22.7364 61.9141 24.0991 57.8005 21.8751 54.1876ZM137.031 54.0729C138.86 50.2706 142.893 49.0706 146.69 47.9404C147.564 47.6804 148.425 47.4241 149.245 47.1406C149.44 47.8048 149.661 48.4863 149.885 49.1797L149.885 49.1802C151.172 53.1578 152.585 57.5285 150.177 61.276C148.342 64.7192 144.661 65.7949 141.113 66.8316C140.088 67.1309 139.074 67.4271 138.12 67.776C137.913 67.0525 137.675 66.3105 137.432 65.5565L137.432 65.5555C136.214 61.767 134.898 57.6737 137.031 54.0729ZM30.2113 59.3404C29.001 61.5206 27.6927 63.8773 28.854 66.3386C29.769 67.8917 31.3393 68.8262 32.8803 69.7432L32.8804 69.7433L32.8805 69.7433L32.8806 69.7434L32.8807 69.7435L32.8808 69.7435L32.8809 69.7436L32.881 69.7437L32.8814 69.7439C33.4278 70.0691 33.9706 70.392 34.479 70.7397C34.7117 70.1844 34.9682 69.6378 35.2244 69.0919C35.9029 67.646 36.5789 66.2055 36.8019 64.6251C36.8019 62.0857 34.7602 60.7216 32.8189 59.4246C32.1402 58.9712 31.4739 58.5261 30.9113 58.0417C30.6961 58.4669 30.4558 58.8999 30.2114 59.3401L30.2113 59.3402L30.2113 59.3404ZM122.219 64.547C122.133 62.0456 124.146 60.6513 126.057 59.3266C126.705 58.8778 127.341 58.4369 127.88 57.9636C128.133 58.4553 128.427 58.9521 128.726 59.4562C129.846 61.3492 131.026 63.3445 130.323 65.5574C129.748 67.5795 127.941 68.6151 126.191 69.6177L126.191 69.6178C125.579 69.9684 124.975 70.3148 124.432 70.698C124.202 70.1097 123.925 69.5247 123.645 68.9348L123.645 68.9347C122.98 67.5348 122.303 66.1079 122.219 64.547ZM2.46712 66.5796C1.81351 66.4744 1.16212 66.3696 0.552246 66.1824C0.703289 68.0105 0.859538 69.8803 1.09391 71.7501C3.42204 72.5313 5.82308 72.9949 8.26579 73.2709C8.12631 72.8238 8.00917 72.3568 7.891 71.8857L7.89098 71.8856C7.51495 70.3865 7.12858 68.8461 5.97933 67.7761C4.98606 66.9849 3.7225 66.7816 2.46712 66.5796ZM60.6877 66.6875C60.938 66.8153 61.1912 66.9436 61.4462 67.0728C65.7747 69.2665 70.6531 71.7389 72.0106 76.8542C73.4124 81.2647 71.0589 85.1978 68.8342 88.9155C68.2899 89.8251 67.7534 90.7218 67.2814 91.6094C66.7613 91.3184 66.2276 91.0296 65.6883 90.7379C61.6811 88.5698 57.3679 86.2361 56.0366 81.6042C54.4346 77.2079 56.7972 73.2789 59.0424 69.5451C59.6221 68.5811 60.1939 67.6301 60.6877 66.6875ZM97.3957 67.1823C93.0403 69.3642 88.0203 71.8791 86.8957 77.0834C85.6486 81.7136 88.1415 85.7543 90.4909 89.5625L90.4909 89.5626L90.491 89.5626L90.491 89.5627L90.4911 89.5628L90.4911 89.5628L90.4912 89.5629L90.4912 89.563L90.4913 89.563L90.4913 89.5631L90.4914 89.5632L90.4914 89.5632L90.4914 89.5633L90.4915 89.5634C90.9089 90.2399 91.3217 90.9091 91.7082 91.573C92.2536 91.2764 92.814 90.9837 93.3798 90.6881L93.3823 90.6868L93.3847 90.6855L93.3866 90.6845L93.3868 90.6844L93.387 90.6843L93.3871 90.6843C97.2019 88.6915 101.268 86.5675 102.719 82.2657C104.793 77.5412 102.119 73.1157 99.6683 69.0595C99.1903 68.2685 98.7209 67.4916 98.2968 66.7292C98.0008 66.8791 97.7 67.0298 97.396 67.1821L97.3957 67.1823ZM148.781 73.9688C149.979 71.5157 151.724 69.4532 154.286 68.4011C155.156 68.7903 156.039 69.1634 156.929 69.5391L156.93 69.5394L156.933 69.5408L156.936 69.542L156.936 69.5422L156.937 69.5424L156.937 69.5426L156.938 69.5428L156.938 69.543C157.474 69.7694 158.013 69.9967 158.552 70.2292C158.067 70.9609 157.572 71.6911 157.078 72.4207L157.077 72.4213L157.075 72.4251L157.072 72.4287L157.072 72.4292L157.069 72.4328C156.616 73.1014 156.163 73.7695 155.719 74.4376C153.396 74.323 151.068 74.1667 148.781 73.9688ZM144.047 36.3542C141.76 37.8699 140.443 40.2865 139.745 42.8959C142.031 42.6615 144.323 42.349 146.609 41.9584C146.937 41.1796 147.267 40.4009 147.596 39.6221C147.926 38.8436 148.255 38.0651 148.583 37.2865C147.073 36.974 145.562 36.6615 144.047 36.3542ZM5.64596 79.9806L5.64605 79.9806C10.1651 81.6167 15.0774 83.3951 16.9895 88.1823C19.2182 91.9251 18.3675 96.2387 17.5642 100.312L17.5642 100.312L17.5642 100.312L17.5641 100.312L17.5641 100.312L17.5641 100.312L17.5641 100.312L17.5641 100.312L17.5641 100.312L17.564 100.312L17.564 100.313L17.564 100.313C17.4306 100.989 17.2986 101.658 17.1822 102.318C16.4072 102 15.6029 101.7 14.79 101.396C10.9261 99.9544 6.8658 98.439 4.81758 94.6094C2.02615 90.3931 3.02628 85.155 3.93005 80.4217C3.9942 80.0857 4.05787 79.7522 4.11966 79.4219C4.6178 79.6083 5.12602 79.7923 5.63933 79.9781L5.64082 79.9787L5.64197 79.9791L5.6429 79.9795L5.64366 79.9797L5.64426 79.9799L5.64481 79.9801L5.64519 79.9803L5.64553 79.9804L5.64579 79.9805L5.64596 79.9806ZM152.046 81.1493C147.92 82.6415 143.502 84.2391 141.141 88.1822C138.156 92.4081 139.242 97.7042 140.217 102.459L140.217 102.46L140.219 102.466C140.295 102.837 140.37 103.204 140.443 103.568C141.315 103.18 142.232 102.818 143.161 102.452C147.187 100.865 151.433 99.1914 153.198 94.9218C155.373 91.262 154.622 87.1286 153.899 83.1533C153.745 82.303 153.592 81.4598 153.469 80.6301C153.001 80.8041 152.526 80.976 152.046 81.1493ZM128.192 108.901C129.508 107.836 131.142 107.389 132.766 106.946C133.341 106.789 133.915 106.632 134.474 106.448C134.496 107.216 134.622 108.021 134.751 108.835C135.077 110.907 135.412 113.036 134.047 114.745C132.919 116.357 131.054 116.735 129.227 117.104C128.54 117.243 127.859 117.381 127.224 117.583C127.213 116.858 127.106 116.074 126.997 115.273C126.684 112.981 126.352 110.545 128.192 108.901ZM28.9686 112.562C26.7238 110.964 24.203 109.911 21.5259 109.25C21.4589 109.886 21.3349 110.546 21.2091 111.216C20.8263 113.253 20.4268 115.379 21.5676 117.198C22.5689 118.928 24.4681 119.398 26.3191 119.856C27.0485 120.037 27.7704 120.216 28.427 120.469C28.6978 117.859 28.8541 115.208 28.9686 112.562ZM42.1927 78.0209C42.4636 76.8542 42.1146 75.8803 41.5313 75.0209C40.4844 73.5053 38.2396 73.5417 37.3073 75.099C36.9584 75.6824 36.6875 76.3438 36.6094 77.0834C35.9115 82.5365 36.724 88.0261 37.9271 93.323C40.0209 88.4584 41.6094 83.2761 42.1927 78.0209ZM116.25 75.5259C116.636 76.3072 116.906 77.1249 116.792 78.0572C116.849 81.7473 116.369 85.4374 115.895 89.0832V89.0833V89.0833V89.0834V89.0835V89.0835V89.0836C115.718 90.4393 115.543 91.7889 115.396 93.1301C113.224 88.0259 111.287 82.6561 111.209 77.0468C111.172 76.4634 111.323 75.9582 111.599 75.4895C112.604 73.6197 115.24 73.6561 116.25 75.5259ZM69.5261 130.786C69.9167 125.453 72.0886 120.469 74.724 115.87C68.0938 106.333 58.9792 98.5417 49.0573 92.7031C49.0638 93.1802 49.0557 93.6658 49.0475 94.155V94.1552V94.1554V94.1555V94.1557V94.1559C49.0094 96.4219 48.9702 98.7634 50.375 100.682C52.1586 103.585 54.3625 106.159 56.5661 108.733C58.1463 110.579 59.7264 112.424 61.1511 114.391C60.912 114.624 60.6699 114.897 60.42 115.18C59.3742 116.362 58.1899 117.701 56.5 116.885C50.2553 113.885 44.8282 109.172 40.3698 103.88C35.231 97.6465 34.2623 89.4235 33.3514 81.6918L33.3511 81.6892C33.3001 81.2564 33.2493 80.8251 33.198 80.3958C33.1563 77.4739 28.8959 75.1771 27.4219 78.4479C26.2056 83.4404 26.9793 88.5936 27.7427 93.6784C27.9796 95.2563 28.2155 96.8276 28.3907 98.3854C29.5938 108.276 34.5521 117.276 40.9896 124.672C45.6715 130.005 50.7914 134.901 55.9158 139.801L55.9159 139.801L55.9165 139.802L55.9167 139.802L55.9169 139.802C59.0238 142.773 62.1323 145.745 65.1459 148.818C67.3959 142.974 69.099 136.979 69.5261 130.786ZM125.433 91.6132L125.438 91.5729C125.461 91.2985 125.485 91.0235 125.51 90.7479L125.51 90.7441C125.808 87.3804 126.112 83.9351 125.323 80.5521C123.927 77.8646 120.552 78.7604 119.74 81.3698C119.088 83.6453 118.839 86.0022 118.589 88.3624C118.317 90.9289 118.045 93.4995 117.255 95.974C114.464 106.292 105.703 113.651 96.7865 118.714C94.8353 120.155 93.2483 118.481 91.9435 117.104L91.9431 117.103C91.7678 116.918 91.5976 116.739 91.4323 116.573C92.7782 114.472 94.5253 112.511 96.2805 110.542L96.2806 110.542C100.346 105.98 104.455 101.37 103.724 94.8437C103.418 95.0004 103.109 95.155 102.8 95.3099L102.8 95.31C101.27 96.077 99.7251 96.8516 98.3385 97.9219C97.7844 98.3659 97.2275 98.8102 96.6692 99.2555C88.9051 105.449 80.8754 111.854 76.3906 120.974C74.1895 124.877 73.6468 129.215 73.1026 133.564C72.6694 137.025 72.2354 140.493 70.9635 143.755C68.7337 150.135 66.2695 156.437 63.8052 162.738C60.0129 172.436 56.2203 182.134 53.2812 192.12C52.933 193.133 52.5848 194.142 52.2366 195.15L52.2344 195.156C55.2981 195.074 58.3608 195.112 61.4234 195.149H61.4244C65.5725 195.2 69.7203 195.251 73.8698 195.005H75.6562V193.641C76.3542 181.604 79.2969 169.766 82.401 158.161C83.1244 154.779 85.641 152.472 88.1096 150.21L88.1097 150.209L88.1099 150.209L88.1101 150.209L88.1103 150.209C88.8232 149.555 89.5322 148.905 90.1927 148.234C92.5878 145.83 95.0675 143.48 97.5525 141.125C105.691 133.414 113.887 125.649 119.349 115.714C123.457 108.366 124.465 99.8144 125.433 91.6132ZM44.5571 104.969C45.0389 102.689 45.7372 100.41 46.4379 98.123C48.1081 92.6717 49.7918 87.1764 48.5884 81.526C48.3841 81.435 48.1125 81.3106 47.8164 81.175C47.2142 80.8993 46.511 80.5773 46.0675 80.3958L45.9501 80.7257C43.9369 86.3827 41.9124 92.0711 39.5571 97.6093C41.1092 100.141 42.7759 102.594 44.5571 104.969ZM111.195 102.841C110.726 103.578 110.261 104.309 109.854 105.047C109.331 102.918 108.749 100.804 108.168 98.6919C107.11 94.8501 106.053 91.012 105.354 87.0937C104.634 84.8581 105.813 82.8778 106.927 81.007C107.191 80.5634 107.452 80.1259 107.682 79.6926C110.162 85.0676 112.37 90.5989 114 96.2447C113.858 98.6565 112.512 100.771 111.195 102.841ZM87.172 155.943C83.3335 168.052 81.0054 180.594 79.297 193.136C79.2189 193.641 79.0679 194.651 78.9897 195.198C82.8074 195.177 86.6356 195.177 90.4644 195.177C94.2931 195.177 98.1226 195.177 101.943 195.156L101.882 194.896L101.882 194.895C101.669 193.972 101.456 193.052 101.203 192.162C98.5184 181.532 94.0591 171.486 89.6079 161.459L89.6072 161.457C88.7915 159.619 87.9762 157.783 87.172 155.943ZM75.3587 26.4894C70.7336 31.4085 65.9494 36.4968 65.9218 43.5572C65.3874 51.0382 70.4435 56.3545 75.2972 61.458C76.7828 63.0201 78.2495 64.5623 79.5312 66.1405C80.8429 64.5028 82.3631 62.9061 83.9028 61.2888C88.7334 56.2149 93.7566 50.9388 93.1405 43.5572C92.7727 36.2963 87.8636 30.9471 83.1377 25.7976C81.9075 24.457 80.6897 23.13 79.5676 21.7864C78.2864 23.3757 76.8306 24.924 75.3587 26.4894Z" fill="#C8A349"/>
</svg>
